<svg width="64" height="65" viewBox="0 0 64 65" fill="none" xmlns="http://www.w3.org/2000/svg">
<path d="M16.0002 14.3599L11.3776 14.3599C11.3315 14.3599 11.2941 14.3972 11.2941 14.4433V27.5363C11.2941 33.2541 15.9293 37.8893 21.6471 37.8893V37.8893C27.3648 37.8893 32 33.2541 32 27.5363V14.4433C32 14.3972 31.9627 14.3599 31.9166 14.3599L27.5298 14.3599" stroke="black" stroke-width="2" stroke-linecap="round"/>
<circle cx="17" cy="14.2422" r="1" fill="black" stroke="black" stroke-width="2"/>
<circle cx="26" cy="14.2422" r="1" fill="black" stroke="black" stroke-width="2"/>
<path d="M20 37.2422V39.7422C20 41.1229 21.1193 42.2422 22.5 42.2422V42.2422C23.8807 42.2422 25 41.1229 25 39.7422V37.2422" stroke="black" stroke-width="2"/>
<rect x="41.0002" y="38.2422" width="12" height="12" rx="6" stroke="black" stroke-width="2"/>
<path d="M22.5882 41.6539L22.5882 46.3598C22.5882 49.9984 25.5379 52.948 29.1765 52.948V52.948C32.815 52.948 35.7647 49.9984 35.7647 46.3598V36.0068" stroke="black" stroke-width="2"/>
<path d="M47.0588 37.8893V34.1246C47.0588 31.0058 44.5306 28.4775 41.4118 28.4775V28.4775C38.293 28.4775 35.7647 31.0058 35.7647 34.1246V43.5364" stroke="black" stroke-width="2"/>
</svg>
