<svg width="761" height="900" viewBox="0 0 761 900" fill="none" xmlns="http://www.w3.org/2000/svg">
<path d="M449.5 872.5C337.446 872.5 229.982 827.987 150.747 748.753C71.5133 669.519 27 562.054 27 450C27 337.946 71.5132 230.482 150.747 151.247C229.981 72.0133 337.446 27.5 449.5 27.5L449.5 102.885C357.439 102.885 269.149 139.456 204.053 204.553C138.956 269.649 102.385 357.939 102.385 450C102.385 542.061 138.956 630.351 204.053 695.447C269.149 760.544 357.439 797.115 449.5 797.115L449.5 872.5Z" fill="#CFCFCF"/>
<path d="M39.5665 552.278C24.0146 489.945 22.8821 424.887 36.2552 362.051C49.6282 299.215 77.1547 240.256 116.741 189.659C156.327 139.061 206.931 98.157 264.703 70.0576C322.475 41.9583 385.894 27.4036 450.137 27.5005L450.024 102.886C397.243 102.806 345.14 114.764 297.675 137.849C250.211 160.935 208.637 194.541 176.114 236.11C143.591 277.68 120.976 326.119 109.989 377.744C99.002 429.368 99.9324 482.818 112.709 534.029L39.5665 552.278Z" fill="#8D2C80"/>
<path d="M449.5 778.611C406.346 778.611 363.615 770.111 323.746 753.597C283.877 737.083 247.651 712.878 217.137 682.363C186.623 651.849 162.417 615.623 145.903 575.754C129.389 535.885 120.889 493.154 120.889 450C120.889 406.846 129.389 364.115 145.903 324.246C162.417 284.377 186.623 248.151 217.137 217.637C247.651 187.123 283.877 162.917 323.746 146.403C363.615 129.889 406.346 121.389 449.5 121.389V187.669C415.05 187.669 380.938 194.454 349.11 207.638C317.283 220.821 288.364 240.144 264.004 264.504C239.644 288.864 220.321 317.783 207.138 349.61C193.955 381.438 187.169 415.55 187.169 450C187.169 484.45 193.955 518.562 207.138 550.39C220.321 582.217 239.644 611.136 264.004 635.496C288.364 659.856 317.283 679.179 349.11 692.362C380.938 705.546 415.05 712.331 449.5 712.331V778.611Z" fill="#CFCFCF"/>
<path d="M130.333 528.216C118.479 479.846 117.775 429.413 128.273 380.73C138.771 332.047 160.197 286.387 190.932 247.2C221.667 208.014 260.906 176.325 305.686 154.53C350.465 132.734 399.613 121.402 449.415 121.389L449.432 187.669C409.675 187.679 370.44 196.726 334.693 214.125C298.945 231.525 267.62 256.822 243.084 288.105C218.549 319.388 201.444 355.838 193.064 394.702C184.683 433.566 185.246 473.826 194.709 512.44L130.333 528.216Z" fill="#732468"/>
<path d="M449.5 684.722C418.676 684.722 388.153 678.651 359.676 666.855C331.198 655.059 305.322 637.77 283.526 615.974C261.73 594.178 244.441 568.302 232.645 539.824C220.849 511.346 214.778 480.824 214.778 450C214.778 419.176 220.849 388.654 232.645 360.176C244.441 331.698 261.73 305.822 283.526 284.026C305.322 262.23 331.198 244.941 359.676 233.145C388.153 221.349 418.676 215.278 449.5 215.278V275.354C426.565 275.354 403.855 279.872 382.666 288.648C361.477 297.425 342.224 310.289 326.007 326.507C309.789 342.724 296.925 361.977 288.148 383.166C279.372 404.355 274.854 427.065 274.854 450C274.854 472.935 279.372 495.645 288.148 516.834C296.925 538.023 309.789 557.276 326.007 573.493C342.224 589.711 361.477 602.575 382.666 611.352C403.855 620.128 426.565 624.646 449.5 624.646V684.722Z" fill="#CFCFCF"/>
<path d="M221.252 504.748C212.98 470.26 212.63 434.346 220.23 399.704C227.83 365.061 243.181 332.591 265.13 304.733C287.08 276.875 315.057 254.354 346.96 238.86C378.863 223.366 413.862 215.304 449.328 215.278L449.372 275.354C422.983 275.374 396.942 281.373 373.205 292.901C349.467 304.429 328.651 321.186 312.319 341.914C295.988 362.642 284.565 386.801 278.911 412.577C273.256 438.353 273.516 465.075 279.671 490.735L221.252 504.748Z" fill="#591C51"/>
<path d="M449.5 590.833C431.006 590.833 412.692 587.191 395.606 580.113C378.519 573.035 362.994 562.662 349.916 549.584C336.838 536.507 326.465 520.981 319.387 503.895C312.31 486.808 308.667 468.494 308.667 450C308.667 431.505 312.31 413.192 319.387 396.105C326.465 379.019 336.838 363.493 349.916 350.416C362.994 337.338 378.519 326.964 395.606 319.887C412.692 312.809 431.006 309.167 449.5 309.167V363.753C438.174 363.753 426.959 365.984 416.495 370.318C406.031 374.653 396.523 381.006 388.515 389.014C380.506 397.023 374.153 406.531 369.819 416.995C365.484 427.459 363.254 438.674 363.254 450C363.254 461.326 365.484 472.541 369.819 483.005C374.153 493.469 380.506 502.977 388.515 510.986C396.523 518.994 406.031 525.347 416.495 529.681C426.959 534.016 438.174 536.247 449.5 536.247V590.833Z" fill="#CFCFCF"/>
<path d="M312.637 483.204C307.581 462.363 307.351 440.644 311.965 419.701C316.578 398.758 325.914 379.146 339.259 362.359C352.604 345.573 369.606 332.056 388.969 322.838C408.332 313.621 429.544 308.948 450.988 309.174L450.411 363.758C437.279 363.619 424.289 366.481 412.431 372.126C400.573 377.771 390.161 386.049 381.988 396.329C373.816 406.609 368.099 418.619 365.273 431.445C362.448 444.27 362.589 457.571 365.685 470.334L312.637 483.204Z" fill="#40143A"/>
<path d="M449.5 496.944C437.049 496.944 425.109 491.999 416.305 483.195C407.501 474.391 402.555 462.45 402.555 450C402.555 437.55 407.501 425.609 416.305 416.805C425.109 408.001 437.049 403.056 449.5 403.056L449.5 450L449.5 496.944Z" fill="#CFCFCF"/>
<path d="M404.022 461.641C402.246 454.704 402.081 447.453 403.539 440.443C404.996 433.432 408.039 426.848 412.432 421.194C416.826 415.54 422.455 410.966 428.888 407.822C435.322 404.679 442.389 403.048 449.55 403.056L449.5 450L404.022 461.641Z" fill="#260C23"/>
<path d="M541.248 49.128H539.448V45H527.472V27.912H529.296V43.368H537.384V27.912H539.208V43.368H541.248V49.128ZM553.315 41.736C553.315 42.744 553.003 43.544 552.379 44.136C551.755 44.712 550.891 45 549.787 45H544.171V33.192H549.643C550.683 33.192 551.523 33.48 552.163 34.056C552.803 34.616 553.123 35.36 553.123 36.288C553.123 37.568 552.499 38.432 551.251 38.88C552.627 39.392 553.315 40.344 553.315 41.736ZM551.419 36.432C551.419 35.264 550.723 34.68 549.331 34.68H545.875V38.208H549.331C550.723 38.208 551.419 37.616 551.419 36.432ZM551.035 42.984C551.419 42.632 551.611 42.16 551.611 41.568C551.611 40.976 551.419 40.504 551.035 40.152C550.667 39.8 550.147 39.624 549.475 39.624H545.875V43.512H549.475C550.147 43.512 550.667 43.336 551.035 42.984ZM565.775 39.552H557.807C557.807 40.864 558.103 41.872 558.695 42.576C559.287 43.28 560.151 43.632 561.287 43.632C561.959 43.632 562.519 43.528 562.967 43.32C563.431 43.112 563.903 42.768 564.383 42.288L565.559 43.32C564.919 43.96 564.279 44.424 563.639 44.712C562.999 45 562.199 45.144 561.239 45.144C559.607 45.144 558.335 44.648 557.423 43.656C556.527 42.648 556.079 41.128 556.079 39.096C556.079 37.192 556.511 35.712 557.375 34.656C558.239 33.584 559.423 33.048 560.927 33.048C562.447 33.048 563.631 33.56 564.479 34.584C565.343 35.592 565.775 36.992 565.775 38.784V39.552ZM564.071 38.256C564.007 37.344 563.879 36.688 563.687 36.288C563.127 35.104 562.207 34.512 560.927 34.512C559.647 34.512 558.727 35.104 558.167 36.288C557.975 36.704 557.855 37.36 557.807 38.256H564.071ZM576.848 34.68H572.984V45H571.256V34.68H567.2V33.192H576.848V34.68ZM580.9 37.776H578.644V35.52H580.9V37.776ZM580.9 45H578.644V42.744H580.9V45Z" fill="black"/>
<path d="M539.448 64.632H537.144L536.592 68.016H538.728V69.552H536.352L535.488 75H533.712L534.576 69.552H530.736L529.896 75H528.12L528.984 69.552H526.848V68.016H529.248L529.8 64.632H527.592V63.048H530.016L530.832 57.888H532.632L531.792 63.048H535.608L536.424 57.888H538.176L537.36 63.048H539.448V64.632ZM535.368 64.632H531.552L531 68.016H534.816L535.368 64.632ZM551.744 70.296C551.744 71.72 551.264 72.888 550.304 73.8C549.344 74.696 548.144 75.144 546.704 75.144C545.264 75.144 544.064 74.696 543.104 73.8C542.144 72.888 541.664 71.72 541.664 70.296C541.664 68.504 542.52 67.12 544.232 66.144C542.744 65.296 542 64.032 542 62.352C542 61.024 542.44 59.928 543.32 59.064C544.216 58.2 545.344 57.768 546.704 57.768C548.064 57.768 549.184 58.2 550.064 59.064C550.96 59.928 551.408 61.024 551.408 62.352C551.408 64.032 550.672 65.296 549.2 66.144C550.896 67.104 551.744 68.488 551.744 70.296ZM549.056 72.648C549.696 72.008 550.016 71.216 550.016 70.272C550.016 69.328 549.696 68.536 549.056 67.896C548.432 67.256 547.648 66.936 546.704 66.936C545.76 66.936 544.968 67.256 544.328 67.896C543.704 68.536 543.392 69.328 543.392 70.272C543.392 71.216 543.704 72.008 544.328 72.648C544.968 73.288 545.76 73.608 546.704 73.608C547.648 73.608 548.432 73.288 549.056 72.648ZM548.84 64.584C549.4 64.008 549.68 63.272 549.68 62.376C549.68 61.48 549.4 60.744 548.84 60.168C548.296 59.592 547.584 59.304 546.704 59.304C545.824 59.304 545.104 59.592 544.544 60.168C544 60.744 543.728 61.48 543.728 62.376C543.728 63.272 544 64.008 544.544 64.584C545.104 65.144 545.824 65.424 546.704 65.424C547.584 65.424 548.296 65.144 548.84 64.584ZM567.019 63.816C567.051 64.424 567.067 65.304 567.067 66.456C567.067 67.608 567.051 68.488 567.019 69.096C566.987 69.704 566.851 70.416 566.611 71.232C566.371 72.032 566.019 72.688 565.555 73.2C564.451 74.4 562.955 75 561.067 75H555.211V57.912H561.067C562.955 57.912 564.451 58.512 565.555 59.712C566.019 60.224 566.371 60.888 566.611 61.704C566.851 62.504 566.987 63.208 567.019 63.816ZM565.195 68.784C565.227 68.24 565.243 67.464 565.243 66.456C565.243 65.448 565.227 64.672 565.195 64.128C565.163 63.584 565.059 62.984 564.883 62.328C564.723 61.672 564.467 61.16 564.115 60.792C563.363 59.96 562.243 59.544 560.755 59.544H557.035V73.368H560.755C562.243 73.368 563.363 72.952 564.115 72.12C564.467 71.752 564.723 71.24 564.883 70.584C565.059 69.928 565.163 69.328 565.195 68.784ZM579.711 75H570.279V73.464L577.023 64.896C577.663 64.064 577.983 63.224 577.983 62.376C577.983 61.448 577.719 60.704 577.191 60.144C576.663 59.584 575.935 59.304 575.007 59.304C574.143 59.304 573.431 59.56 572.871 60.072C572.311 60.584 572.031 61.36 572.031 62.4H570.303C570.303 61.04 570.735 59.928 571.599 59.064C572.463 58.2 573.599 57.768 575.007 57.768C576.415 57.768 577.551 58.192 578.415 59.04C579.279 59.872 579.711 60.984 579.711 62.376C579.711 63.032 579.607 63.616 579.399 64.128C579.191 64.64 578.839 65.208 578.343 65.832L572.367 73.464H579.711V75ZM594.674 70.056C594.37 71.64 593.69 72.888 592.634 73.8C591.578 74.696 590.282 75.144 588.746 75.144C587.018 75.144 585.594 74.584 584.474 73.464C583.722 72.712 583.25 71.888 583.058 70.992C582.866 70.096 582.77 68.584 582.77 66.456C582.77 64.328 582.866 62.816 583.058 61.92C583.25 61.024 583.722 60.2 584.474 59.448C585.594 58.328 587.018 57.768 588.746 57.768C590.298 57.768 591.594 58.216 592.634 59.112C593.69 60.008 594.37 61.256 594.674 62.856H592.802C592.578 61.784 592.106 60.944 591.386 60.336C590.682 59.712 589.802 59.4 588.746 59.4C587.578 59.4 586.594 59.8 585.794 60.6C585.282 61.128 584.954 61.776 584.81 62.544C584.666 63.296 584.594 64.6 584.594 66.456C584.594 68.312 584.666 69.624 584.81 70.392C584.954 71.144 585.282 71.784 585.794 72.312C586.594 73.112 587.578 73.512 588.746 73.512C589.802 73.512 590.69 73.208 591.41 72.6C592.146 71.976 592.626 71.128 592.85 70.056H594.674ZM607.292 70.296C607.292 71.72 606.812 72.888 605.852 73.8C604.892 74.696 603.692 75.144 602.252 75.144C600.812 75.144 599.612 74.696 598.652 73.8C597.692 72.888 597.212 71.72 597.212 70.296C597.212 68.504 598.068 67.12 599.78 66.144C598.292 65.296 597.548 64.032 597.548 62.352C597.548 61.024 597.988 59.928 598.868 59.064C599.764 58.2 600.892 57.768 602.252 57.768C603.612 57.768 604.732 58.2 605.612 59.064C606.508 59.928 606.956 61.024 606.956 62.352C606.956 64.032 606.22 65.296 604.748 66.144C606.444 67.104 607.292 68.488 607.292 70.296ZM604.604 72.648C605.244 72.008 605.564 71.216 605.564 70.272C605.564 69.328 605.244 68.536 604.604 67.896C603.98 67.256 603.196 66.936 602.252 66.936C601.308 66.936 600.516 67.256 599.876 67.896C599.252 68.536 598.94 69.328 598.94 70.272C598.94 71.216 599.252 72.008 599.876 72.648C600.516 73.288 601.308 73.608 602.252 73.608C603.196 73.608 603.98 73.288 604.604 72.648ZM604.388 64.584C604.948 64.008 605.228 63.272 605.228 62.376C605.228 61.48 604.948 60.744 604.388 60.168C603.844 59.592 603.132 59.304 602.252 59.304C601.372 59.304 600.652 59.592 600.092 60.168C599.548 60.744 599.276 61.48 599.276 62.376C599.276 63.272 599.548 64.008 600.092 64.584C600.652 65.144 601.372 65.424 602.252 65.424C603.132 65.424 603.844 65.144 604.388 64.584ZM619.231 70.44C619.231 71.832 618.783 72.968 617.887 73.848C617.007 74.712 615.895 75.144 614.551 75.144C613.191 75.144 612.071 74.712 611.191 73.848C610.311 72.984 609.871 71.848 609.871 70.44V62.472C609.871 61.064 610.311 59.928 611.191 59.064C612.071 58.2 613.191 57.768 614.551 57.768C615.895 57.768 617.007 58.208 617.887 59.088C618.783 59.952 619.231 61.08 619.231 62.472V70.44ZM617.503 70.344V62.568C617.503 61.608 617.239 60.824 616.711 60.216C616.199 59.608 615.479 59.304 614.551 59.304C613.623 59.304 612.895 59.608 612.367 60.216C611.855 60.824 611.599 61.608 611.599 62.568V70.344C611.599 71.304 611.855 72.088 612.367 72.696C612.895 73.304 613.623 73.608 614.551 73.608C615.479 73.608 616.199 73.304 616.711 72.696C617.239 72.088 617.503 71.304 617.503 70.344Z" fill="#8D2C80"/>
<rect width="50" height="2" transform="matrix(-1 0 0 1 501 50)" fill="#953385"/>
<path d="M541.248 141.128H539.448V137H527.472V119.912H529.296V135.368H537.384V119.912H539.208V135.368H541.248V141.128ZM553.315 133.736C553.315 134.744 553.003 135.544 552.379 136.136C551.755 136.712 550.891 137 549.787 137H544.171V125.192H549.643C550.683 125.192 551.523 125.48 552.163 126.056C552.803 126.616 553.123 127.36 553.123 128.288C553.123 129.568 552.499 130.432 551.251 130.88C552.627 131.392 553.315 132.344 553.315 133.736ZM551.419 128.432C551.419 127.264 550.723 126.68 549.331 126.68H545.875V130.208H549.331C550.723 130.208 551.419 129.616 551.419 128.432ZM551.035 134.984C551.419 134.632 551.611 134.16 551.611 133.568C551.611 132.976 551.419 132.504 551.035 132.152C550.667 131.8 550.147 131.624 549.475 131.624H545.875V135.512H549.475C550.147 135.512 550.667 135.336 551.035 134.984ZM565.775 131.552H557.807C557.807 132.864 558.103 133.872 558.695 134.576C559.287 135.28 560.151 135.632 561.287 135.632C561.959 135.632 562.519 135.528 562.967 135.32C563.431 135.112 563.903 134.768 564.383 134.288L565.559 135.32C564.919 135.96 564.279 136.424 563.639 136.712C562.999 137 562.199 137.144 561.239 137.144C559.607 137.144 558.335 136.648 557.423 135.656C556.527 134.648 556.079 133.128 556.079 131.096C556.079 129.192 556.511 127.712 557.375 126.656C558.239 125.584 559.423 125.048 560.927 125.048C562.447 125.048 563.631 125.56 564.479 126.584C565.343 127.592 565.775 128.992 565.775 130.784V131.552ZM564.071 130.256C564.007 129.344 563.879 128.688 563.687 128.288C563.127 127.104 562.207 126.512 560.927 126.512C559.647 126.512 558.727 127.104 558.167 128.288C557.975 128.704 557.855 129.36 557.807 130.256H564.071ZM576.848 126.68H572.984V137H571.256V126.68H567.2V125.192H576.848V126.68ZM580.9 129.776H578.644V127.52H580.9V129.776ZM580.9 137H578.644V134.744H580.9V137ZM596.223 159.32H586.191V157.712H596.223V159.32ZM596.223 163.376H586.191V161.792H596.223V163.376ZM617.426 156.632H615.122L614.57 160.016H616.706V161.552H614.33L613.466 167H611.69L612.554 161.552H608.714L607.874 167H606.098L606.962 161.552H604.826V160.016H607.226L607.778 156.632H605.57V155.048H607.994L608.81 149.888H610.61L609.77 155.048H613.586L614.402 149.888H616.154L615.338 155.048H617.426V156.632ZM613.346 156.632H609.53L608.978 160.016H612.794L613.346 156.632Z" fill="black"/>
<path d="M602.953 126.632H600.649L600.097 130.016H602.233V131.552H599.857L598.993 137H597.217L598.081 131.552H594.241L593.401 137H591.625L592.489 131.552H590.353V130.016H592.753L593.305 126.632H591.097V125.048H593.521L594.337 119.888H596.137L595.297 125.048H599.113L599.929 119.888H601.681L600.865 125.048H602.953V126.632ZM598.873 126.632H595.057L594.505 130.016H598.321L598.873 126.632ZM615.249 132.296C615.249 133.72 614.769 134.888 613.809 135.8C612.849 136.696 611.649 137.144 610.209 137.144C608.769 137.144 607.569 136.696 606.609 135.8C605.649 134.888 605.169 133.72 605.169 132.296C605.169 130.504 606.025 129.12 607.737 128.144C606.249 127.296 605.505 126.032 605.505 124.352C605.505 123.024 605.945 121.928 606.825 121.064C607.721 120.2 608.849 119.768 610.209 119.768C611.569 119.768 612.689 120.2 613.569 121.064C614.465 121.928 614.913 123.024 614.913 124.352C614.913 126.032 614.177 127.296 612.705 128.144C614.401 129.104 615.249 130.488 615.249 132.296ZM612.561 134.648C613.201 134.008 613.521 133.216 613.521 132.272C613.521 131.328 613.201 130.536 612.561 129.896C611.937 129.256 611.153 128.936 610.209 128.936C609.265 128.936 608.473 129.256 607.833 129.896C607.209 130.536 606.897 131.328 606.897 132.272C606.897 133.216 607.209 134.008 607.833 134.648C608.473 135.288 609.265 135.608 610.209 135.608C611.153 135.608 611.937 135.288 612.561 134.648ZM612.345 126.584C612.905 126.008 613.185 125.272 613.185 124.376C613.185 123.48 612.905 122.744 612.345 122.168C611.801 121.592 611.089 121.304 610.209 121.304C609.329 121.304 608.609 121.592 608.049 122.168C607.505 122.744 607.233 123.48 607.233 124.376C607.233 125.272 607.505 126.008 608.049 126.584C608.609 127.144 609.329 127.424 610.209 127.424C611.089 127.424 611.801 127.144 612.345 126.584ZM630.524 125.816C630.556 126.424 630.572 127.304 630.572 128.456C630.572 129.608 630.556 130.488 630.524 131.096C630.492 131.704 630.356 132.416 630.116 133.232C629.876 134.032 629.524 134.688 629.06 135.2C627.956 136.4 626.46 137 624.572 137H618.716V119.912H624.572C626.46 119.912 627.956 120.512 629.06 121.712C629.524 122.224 629.876 122.888 630.116 123.704C630.356 124.504 630.492 125.208 630.524 125.816ZM628.7 130.784C628.732 130.24 628.748 129.464 628.748 128.456C628.748 127.448 628.732 126.672 628.7 126.128C628.668 125.584 628.564 124.984 628.388 124.328C628.228 123.672 627.972 123.16 627.62 122.792C626.868 121.96 625.748 121.544 624.26 121.544H620.54V135.368H624.26C625.748 135.368 626.868 134.952 627.62 134.12C627.972 133.752 628.228 133.24 628.388 132.584C628.564 131.928 628.668 131.328 628.7 130.784ZM643.216 137H633.784V135.464L640.528 126.896C641.168 126.064 641.488 125.224 641.488 124.376C641.488 123.448 641.224 122.704 640.696 122.144C640.168 121.584 639.44 121.304 638.512 121.304C637.648 121.304 636.936 121.56 636.376 122.072C635.816 122.584 635.536 123.36 635.536 124.4H633.808C633.808 123.04 634.24 121.928 635.104 121.064C635.968 120.2 637.104 119.768 638.512 119.768C639.92 119.768 641.056 120.192 641.92 121.04C642.784 121.872 643.216 122.984 643.216 124.376C643.216 125.032 643.112 125.616 642.904 126.128C642.696 126.64 642.344 127.208 641.848 127.832L635.872 135.464H643.216V137ZM658.18 132.056C657.876 133.64 657.196 134.888 656.14 135.8C655.084 136.696 653.788 137.144 652.252 137.144C650.524 137.144 649.1 136.584 647.98 135.464C647.228 134.712 646.756 133.888 646.564 132.992C646.372 132.096 646.276 130.584 646.276 128.456C646.276 126.328 646.372 124.816 646.564 123.92C646.756 123.024 647.228 122.2 647.98 121.448C649.1 120.328 650.524 119.768 652.252 119.768C653.804 119.768 655.1 120.216 656.14 121.112C657.196 122.008 657.876 123.256 658.18 124.856H656.308C656.084 123.784 655.612 122.944 654.892 122.336C654.188 121.712 653.308 121.4 652.252 121.4C651.084 121.4 650.1 121.8 649.3 122.6C648.788 123.128 648.46 123.776 648.316 124.544C648.172 125.296 648.1 126.6 648.1 128.456C648.1 130.312 648.172 131.624 648.316 132.392C648.46 133.144 648.788 133.784 649.3 134.312C650.1 135.112 651.084 135.512 652.252 135.512C653.308 135.512 654.196 135.208 654.916 134.6C655.652 133.976 656.132 133.128 656.356 132.056H658.18ZM670.797 132.296C670.797 133.72 670.317 134.888 669.357 135.8C668.397 136.696 667.197 137.144 665.757 137.144C664.317 137.144 663.117 136.696 662.157 135.8C661.197 134.888 660.717 133.72 660.717 132.296C660.717 130.504 661.573 129.12 663.285 128.144C661.797 127.296 661.053 126.032 661.053 124.352C661.053 123.024 661.493 121.928 662.373 121.064C663.269 120.2 664.397 119.768 665.757 119.768C667.117 119.768 668.237 120.2 669.117 121.064C670.013 121.928 670.461 123.024 670.461 124.352C670.461 126.032 669.725 127.296 668.253 128.144C669.949 129.104 670.797 130.488 670.797 132.296ZM668.109 134.648C668.749 134.008 669.069 133.216 669.069 132.272C669.069 131.328 668.749 130.536 668.109 129.896C667.485 129.256 666.701 128.936 665.757 128.936C664.813 128.936 664.021 129.256 663.381 129.896C662.757 130.536 662.445 131.328 662.445 132.272C662.445 133.216 662.757 134.008 663.381 134.648C664.021 135.288 664.813 135.608 665.757 135.608C666.701 135.608 667.485 135.288 668.109 134.648ZM667.893 126.584C668.453 126.008 668.733 125.272 668.733 124.376C668.733 123.48 668.453 122.744 667.893 122.168C667.349 121.592 666.637 121.304 665.757 121.304C664.877 121.304 664.157 121.592 663.597 122.168C663.053 122.744 662.781 123.48 662.781 124.376C662.781 125.272 663.053 126.008 663.597 126.584C664.157 127.144 664.877 127.424 665.757 127.424C666.637 127.424 667.349 127.144 667.893 126.584ZM682.736 132.44C682.736 133.832 682.288 134.968 681.392 135.848C680.512 136.712 679.4 137.144 678.056 137.144C676.696 137.144 675.576 136.712 674.696 135.848C673.816 134.984 673.376 133.848 673.376 132.44V124.472C673.376 123.064 673.816 121.928 674.696 121.064C675.576 120.2 676.696 119.768 678.056 119.768C679.4 119.768 680.512 120.208 681.392 121.088C682.288 121.952 682.736 123.08 682.736 124.472V132.44ZM681.008 132.344V124.568C681.008 123.608 680.744 122.824 680.216 122.216C679.704 121.608 678.984 121.304 678.056 121.304C677.128 121.304 676.4 121.608 675.872 122.216C675.36 122.824 675.104 123.608 675.104 124.568V132.344C675.104 133.304 675.36 134.088 675.872 134.696C676.4 135.304 677.128 135.608 678.056 135.608C678.984 135.608 679.704 135.304 680.216 134.696C680.744 134.088 681.008 133.304 681.008 132.344ZM701.108 131.336H691.075V129.728H701.108V131.336ZM532.92 167H531.192V151.832L528 154.64V152.672L531.192 149.912H532.92V167ZM548.243 162.44C548.243 163.832 547.795 164.968 546.899 165.848C546.019 166.712 544.907 167.144 543.563 167.144C542.203 167.144 541.083 166.712 540.203 165.848C539.323 164.984 538.883 163.848 538.883 162.44V154.472C538.883 153.064 539.323 151.928 540.203 151.064C541.083 150.2 542.203 149.768 543.563 149.768C544.907 149.768 546.019 150.208 546.899 151.088C547.795 151.952 548.243 153.08 548.243 154.472V162.44ZM546.515 162.344V154.568C546.515 153.608 546.251 152.824 545.723 152.216C545.211 151.608 544.491 151.304 543.563 151.304C542.635 151.304 541.907 151.608 541.379 152.216C540.867 152.824 540.611 153.608 540.611 154.568V162.344C540.611 163.304 540.867 164.088 541.379 164.696C541.907 165.304 542.635 165.608 543.563 165.608C544.491 165.608 545.211 165.304 545.723 164.696C546.251 164.088 546.515 163.304 546.515 162.344ZM555.262 168.032L554.038 169.256C553.158 168.376 552.582 167.688 552.31 167.192C551.974 166.536 551.806 165.712 551.806 164.72V152.192C551.806 151.152 551.974 150.328 552.31 149.72C552.582 149.224 553.158 148.536 554.038 147.656L555.262 148.88C554.59 149.504 554.15 150.024 553.942 150.44C553.718 150.84 553.606 151.472 553.606 152.336V164.576C553.606 165.392 553.718 166.024 553.942 166.472C554.134 166.84 554.574 167.36 555.262 168.032ZM570.715 162.272C570.715 163.792 570.251 164.96 569.323 165.776C568.411 166.592 567.179 167 565.627 167H558.979V149.912H565.411C566.915 149.912 568.131 150.32 569.059 151.136C569.987 151.952 570.451 153.064 570.451 154.472C570.451 155.352 570.211 156.128 569.731 156.8C569.267 157.472 568.667 157.944 567.931 158.216C568.779 158.52 569.451 159.024 569.947 159.728C570.459 160.432 570.715 161.28 570.715 162.272ZM567.955 164.528C568.579 163.952 568.891 163.184 568.891 162.224C568.891 161.264 568.579 160.504 567.955 159.944C567.347 159.384 566.515 159.104 565.459 159.104H560.803V165.368H565.459C566.515 165.368 567.347 165.088 567.955 164.528ZM567.691 156.728C568.315 156.216 568.627 155.472 568.627 154.496C568.627 153.52 568.315 152.784 567.691 152.288C567.083 151.792 566.275 151.544 565.267 151.544H560.803V157.472H565.267C566.259 157.472 567.067 157.224 567.691 156.728ZM574.986 169.256L573.762 168.032C574.45 167.36 574.89 166.84 575.082 166.472C575.306 166.024 575.418 165.392 575.418 164.576V152.336C575.418 151.472 575.306 150.84 575.082 150.44C574.874 150.024 574.434 149.504 573.762 148.88L574.986 147.656C575.866 148.536 576.442 149.224 576.714 149.72C577.05 150.328 577.218 151.152 577.218 152.192V164.72C577.218 165.712 577.05 166.536 576.714 167.192C576.442 167.688 575.866 168.376 574.986 169.256ZM629.722 151.448L623.794 167H621.97L627.898 151.448H621.946V154.136H620.242V149.912H629.722V151.448ZM641.757 162.344C641.757 163.864 641.285 165.048 640.341 165.896C639.397 166.744 638.197 167.168 636.741 167.168C635.317 167.168 634.141 166.792 633.213 166.04C632.285 165.272 631.789 164.144 631.725 162.656H633.453C633.517 163.664 633.853 164.416 634.461 164.912C635.085 165.392 635.845 165.632 636.741 165.632C637.685 165.632 638.469 165.336 639.093 164.744C639.717 164.152 640.029 163.344 640.029 162.32C640.029 160.112 638.909 159.008 636.669 159.008H636.309V157.496H636.669C637.693 157.496 638.453 157.232 638.949 156.704C639.461 156.16 639.717 155.392 639.717 154.4C639.717 153.408 639.437 152.64 638.877 152.096C638.317 151.552 637.605 151.28 636.741 151.28C635.845 151.28 635.125 151.536 634.581 152.048C634.053 152.56 633.749 153.256 633.669 154.136H631.941C632.037 152.776 632.525 151.704 633.405 150.92C634.301 150.136 635.413 149.744 636.741 149.744C638.133 149.744 639.261 150.168 640.125 151.016C641.005 151.864 641.445 152.984 641.445 154.376C641.445 156.2 640.677 157.464 639.141 158.168C640.885 158.824 641.757 160.216 641.757 162.344ZM654.08 167H644.648V165.464L651.392 156.896C652.032 156.064 652.352 155.224 652.352 154.376C652.352 153.448 652.088 152.704 651.56 152.144C651.032 151.584 650.304 151.304 649.376 151.304C648.512 151.304 647.8 151.56 647.24 152.072C646.68 152.584 646.4 153.36 646.4 154.4H644.672C644.672 153.04 645.104 151.928 645.968 151.064C646.832 150.2 647.968 149.768 649.376 149.768C650.784 149.768 651.92 150.192 652.784 151.04C653.648 151.872 654.08 152.984 654.08 154.376C654.08 155.032 653.976 155.616 653.768 156.128C653.56 156.64 653.208 157.208 652.712 157.832L646.736 165.464H654.08V167ZM666.883 164.288H664.795V167H663.091V164.288H656.275V162.728L662.443 149.912H664.291L658.123 162.728H663.091V157.88H664.795V162.728H666.883V164.288ZM678.654 162.08C678.654 163.552 678.222 164.768 677.358 165.728C676.494 166.672 675.35 167.144 673.926 167.144C672.486 167.144 671.334 166.696 670.47 165.8C669.606 164.904 669.174 163.712 669.174 162.224C669.174 161.104 669.534 159.824 670.254 158.384L674.454 149.912H676.23L672.414 157.592C672.942 157.352 673.542 157.232 674.214 157.232C675.542 157.232 676.614 157.688 677.43 158.6C678.246 159.496 678.654 160.656 678.654 162.08ZM676.926 162.152C676.926 161.16 676.654 160.336 676.11 159.68C675.582 159.024 674.846 158.696 673.902 158.696C672.99 158.696 672.262 159.008 671.718 159.632C671.174 160.256 670.902 161.096 670.902 162.152C670.902 163.192 671.174 164.032 671.718 164.672C672.262 165.296 672.99 165.608 673.902 165.608C674.814 165.608 675.542 165.296 676.086 164.672C676.646 164.032 676.926 163.192 676.926 162.152ZM691.217 162.296C691.217 163.72 690.737 164.888 689.777 165.8C688.817 166.696 687.617 167.144 686.177 167.144C684.737 167.144 683.537 166.696 682.577 165.8C681.617 164.888 681.137 163.72 681.137 162.296C681.137 160.504 681.993 159.12 683.705 158.144C682.217 157.296 681.473 156.032 681.473 154.352C681.473 153.024 681.913 151.928 682.793 151.064C683.689 150.2 684.817 149.768 686.177 149.768C687.537 149.768 688.657 150.2 689.537 151.064C690.433 151.928 690.881 153.024 690.881 154.352C690.881 156.032 690.145 157.296 688.673 158.144C690.369 159.104 691.217 160.488 691.217 162.296ZM688.529 164.648C689.169 164.008 689.489 163.216 689.489 162.272C689.489 161.328 689.169 160.536 688.529 159.896C687.905 159.256 687.121 158.936 686.177 158.936C685.233 158.936 684.441 159.256 683.801 159.896C683.177 160.536 682.865 161.328 682.865 162.272C682.865 163.216 683.177 164.008 683.801 164.648C684.441 165.288 685.233 165.608 686.177 165.608C687.121 165.608 687.905 165.288 688.529 164.648ZM688.313 156.584C688.873 156.008 689.153 155.272 689.153 154.376C689.153 153.48 688.873 152.744 688.313 152.168C687.769 151.592 687.057 151.304 686.177 151.304C685.297 151.304 684.577 151.592 684.017 152.168C683.473 152.744 683.201 153.48 683.201 154.376C683.201 155.272 683.473 156.008 684.017 156.584C684.577 157.144 685.297 157.424 686.177 157.424C687.057 157.424 687.769 157.144 688.313 156.584Z" fill="#732468"/>
<rect width="50" height="2" transform="matrix(-1 0 0 1 501 142)" fill="#7A2A6D"/>
<path d="M541.248 231.128H539.448V227H527.472V209.912H529.296V225.368H537.384V209.912H539.208V225.368H541.248V231.128ZM553.315 223.736C553.315 224.744 553.003 225.544 552.379 226.136C551.755 226.712 550.891 227 549.787 227H544.171V215.192H549.643C550.683 215.192 551.523 215.48 552.163 216.056C552.803 216.616 553.123 217.36 553.123 218.288C553.123 219.568 552.499 220.432 551.251 220.88C552.627 221.392 553.315 222.344 553.315 223.736ZM551.419 218.432C551.419 217.264 550.723 216.68 549.331 216.68H545.875V220.208H549.331C550.723 220.208 551.419 219.616 551.419 218.432ZM551.035 224.984C551.419 224.632 551.611 224.16 551.611 223.568C551.611 222.976 551.419 222.504 551.035 222.152C550.667 221.8 550.147 221.624 549.475 221.624H545.875V225.512H549.475C550.147 225.512 550.667 225.336 551.035 224.984ZM565.775 221.552H557.807C557.807 222.864 558.103 223.872 558.695 224.576C559.287 225.28 560.151 225.632 561.287 225.632C561.959 225.632 562.519 225.528 562.967 225.32C563.431 225.112 563.903 224.768 564.383 224.288L565.559 225.32C564.919 225.96 564.279 226.424 563.639 226.712C562.999 227 562.199 227.144 561.239 227.144C559.607 227.144 558.335 226.648 557.423 225.656C556.527 224.648 556.079 223.128 556.079 221.096C556.079 219.192 556.511 217.712 557.375 216.656C558.239 215.584 559.423 215.048 560.927 215.048C562.447 215.048 563.631 215.56 564.479 216.584C565.343 217.592 565.775 218.992 565.775 220.784V221.552ZM564.071 220.256C564.007 219.344 563.879 218.688 563.687 218.288C563.127 217.104 562.207 216.512 560.927 216.512C559.647 216.512 558.727 217.104 558.167 218.288C557.975 218.704 557.855 219.36 557.807 220.256H564.071ZM576.848 216.68H572.984V227H571.256V216.68H567.2V215.192H576.848V216.68ZM580.9 219.776H578.644V217.52H580.9V219.776ZM580.9 227H578.644V224.744H580.9V227ZM596.223 249.32H586.191V247.712H596.223V249.32ZM596.223 253.376H586.191V251.792H596.223V253.376Z" fill="black"/>
<path d="M602.953 216.632H600.649L600.097 220.016H602.233V221.552H599.857L598.993 227H597.217L598.081 221.552H594.241L593.401 227H591.625L592.489 221.552H590.353V220.016H592.753L593.305 216.632H591.097V215.048H593.521L594.337 209.888H596.137L595.297 215.048H599.113L599.929 209.888H601.681L600.865 215.048H602.953V216.632ZM598.873 216.632H595.057L594.505 220.016H598.321L598.873 216.632ZM615.249 222.296C615.249 223.72 614.769 224.888 613.809 225.8C612.849 226.696 611.649 227.144 610.209 227.144C608.769 227.144 607.569 226.696 606.609 225.8C605.649 224.888 605.169 223.72 605.169 222.296C605.169 220.504 606.025 219.12 607.737 218.144C606.249 217.296 605.505 216.032 605.505 214.352C605.505 213.024 605.945 211.928 606.825 211.064C607.721 210.2 608.849 209.768 610.209 209.768C611.569 209.768 612.689 210.2 613.569 211.064C614.465 211.928 614.913 213.024 614.913 214.352C614.913 216.032 614.177 217.296 612.705 218.144C614.401 219.104 615.249 220.488 615.249 222.296ZM612.561 224.648C613.201 224.008 613.521 223.216 613.521 222.272C613.521 221.328 613.201 220.536 612.561 219.896C611.937 219.256 611.153 218.936 610.209 218.936C609.265 218.936 608.473 219.256 607.833 219.896C607.209 220.536 606.897 221.328 606.897 222.272C606.897 223.216 607.209 224.008 607.833 224.648C608.473 225.288 609.265 225.608 610.209 225.608C611.153 225.608 611.937 225.288 612.561 224.648ZM612.345 216.584C612.905 216.008 613.185 215.272 613.185 214.376C613.185 213.48 612.905 212.744 612.345 212.168C611.801 211.592 611.089 211.304 610.209 211.304C609.329 211.304 608.609 211.592 608.049 212.168C607.505 212.744 607.233 213.48 607.233 214.376C607.233 215.272 607.505 216.008 608.049 216.584C608.609 217.144 609.329 217.424 610.209 217.424C611.089 217.424 611.801 217.144 612.345 216.584ZM630.524 215.816C630.556 216.424 630.572 217.304 630.572 218.456C630.572 219.608 630.556 220.488 630.524 221.096C630.492 221.704 630.356 222.416 630.116 223.232C629.876 224.032 629.524 224.688 629.06 225.2C627.956 226.4 626.46 227 624.572 227H618.716V209.912H624.572C626.46 209.912 627.956 210.512 629.06 211.712C629.524 212.224 629.876 212.888 630.116 213.704C630.356 214.504 630.492 215.208 630.524 215.816ZM628.7 220.784C628.732 220.24 628.748 219.464 628.748 218.456C628.748 217.448 628.732 216.672 628.7 216.128C628.668 215.584 628.564 214.984 628.388 214.328C628.228 213.672 627.972 213.16 627.62 212.792C626.868 211.96 625.748 211.544 624.26 211.544H620.54V225.368H624.26C625.748 225.368 626.868 224.952 627.62 224.12C627.972 223.752 628.228 223.24 628.388 222.584C628.564 221.928 628.668 221.328 628.7 220.784ZM643.216 227H633.784V225.464L640.528 216.896C641.168 216.064 641.488 215.224 641.488 214.376C641.488 213.448 641.224 212.704 640.696 212.144C640.168 211.584 639.44 211.304 638.512 211.304C637.648 211.304 636.936 211.56 636.376 212.072C635.816 212.584 635.536 213.36 635.536 214.4H633.808C633.808 213.04 634.24 211.928 635.104 211.064C635.968 210.2 637.104 209.768 638.512 209.768C639.92 209.768 641.056 210.192 641.92 211.04C642.784 211.872 643.216 212.984 643.216 214.376C643.216 215.032 643.112 215.616 642.904 216.128C642.696 216.64 642.344 217.208 641.848 217.832L635.872 225.464H643.216V227ZM658.18 222.056C657.876 223.64 657.196 224.888 656.14 225.8C655.084 226.696 653.788 227.144 652.252 227.144C650.524 227.144 649.1 226.584 647.98 225.464C647.228 224.712 646.756 223.888 646.564 222.992C646.372 222.096 646.276 220.584 646.276 218.456C646.276 216.328 646.372 214.816 646.564 213.92C646.756 213.024 647.228 212.2 647.98 211.448C649.1 210.328 650.524 209.768 652.252 209.768C653.804 209.768 655.1 210.216 656.14 211.112C657.196 212.008 657.876 213.256 658.18 214.856H656.308C656.084 213.784 655.612 212.944 654.892 212.336C654.188 211.712 653.308 211.4 652.252 211.4C651.084 211.4 650.1 211.8 649.3 212.6C648.788 213.128 648.46 213.776 648.316 214.544C648.172 215.296 648.1 216.6 648.1 218.456C648.1 220.312 648.172 221.624 648.316 222.392C648.46 223.144 648.788 223.784 649.3 224.312C650.1 225.112 651.084 225.512 652.252 225.512C653.308 225.512 654.196 225.208 654.916 224.6C655.652 223.976 656.132 223.128 656.356 222.056H658.18ZM670.797 222.296C670.797 223.72 670.317 224.888 669.357 225.8C668.397 226.696 667.197 227.144 665.757 227.144C664.317 227.144 663.117 226.696 662.157 225.8C661.197 224.888 660.717 223.72 660.717 222.296C660.717 220.504 661.573 219.12 663.285 218.144C661.797 217.296 661.053 216.032 661.053 214.352C661.053 213.024 661.493 211.928 662.373 211.064C663.269 210.2 664.397 209.768 665.757 209.768C667.117 209.768 668.237 210.2 669.117 211.064C670.013 211.928 670.461 213.024 670.461 214.352C670.461 216.032 669.725 217.296 668.253 218.144C669.949 219.104 670.797 220.488 670.797 222.296ZM668.109 224.648C668.749 224.008 669.069 223.216 669.069 222.272C669.069 221.328 668.749 220.536 668.109 219.896C667.485 219.256 666.701 218.936 665.757 218.936C664.813 218.936 664.021 219.256 663.381 219.896C662.757 220.536 662.445 221.328 662.445 222.272C662.445 223.216 662.757 224.008 663.381 224.648C664.021 225.288 664.813 225.608 665.757 225.608C666.701 225.608 667.485 225.288 668.109 224.648ZM667.893 216.584C668.453 216.008 668.733 215.272 668.733 214.376C668.733 213.48 668.453 212.744 667.893 212.168C667.349 211.592 666.637 211.304 665.757 211.304C664.877 211.304 664.157 211.592 663.597 212.168C663.053 212.744 662.781 213.48 662.781 214.376C662.781 215.272 663.053 216.008 663.597 216.584C664.157 217.144 664.877 217.424 665.757 217.424C666.637 217.424 667.349 217.144 667.893 216.584ZM682.736 222.44C682.736 223.832 682.288 224.968 681.392 225.848C680.512 226.712 679.4 227.144 678.056 227.144C676.696 227.144 675.576 226.712 674.696 225.848C673.816 224.984 673.376 223.848 673.376 222.44V214.472C673.376 213.064 673.816 211.928 674.696 211.064C675.576 210.2 676.696 209.768 678.056 209.768C679.4 209.768 680.512 210.208 681.392 211.088C682.288 211.952 682.736 213.08 682.736 214.472V222.44ZM681.008 222.344V214.568C681.008 213.608 680.744 212.824 680.216 212.216C679.704 211.608 678.984 211.304 678.056 211.304C677.128 211.304 676.4 211.608 675.872 212.216C675.36 212.824 675.104 213.608 675.104 214.568V222.344C675.104 223.304 675.36 224.088 675.872 224.696C676.4 225.304 677.128 225.608 678.056 225.608C678.984 225.608 679.704 225.304 680.216 224.696C680.744 224.088 681.008 223.304 681.008 222.344ZM701.108 221.336H691.075V219.728H701.108V221.336ZM536.064 257H526.632V255.464L533.376 246.896C534.016 246.064 534.336 245.224 534.336 244.376C534.336 243.448 534.072 242.704 533.544 242.144C533.016 241.584 532.288 241.304 531.36 241.304C530.496 241.304 529.784 241.56 529.224 242.072C528.664 242.584 528.384 243.36 528.384 244.4H526.656C526.656 243.04 527.088 241.928 527.952 241.064C528.816 240.2 529.952 239.768 531.36 239.768C532.768 239.768 533.904 240.192 534.768 241.04C535.632 241.872 536.064 242.984 536.064 244.376C536.064 245.032 535.96 245.616 535.752 246.128C535.544 246.64 535.192 247.208 534.696 247.832L528.72 255.464H536.064V257ZM548.243 252.44C548.243 253.832 547.795 254.968 546.899 255.848C546.019 256.712 544.907 257.144 543.563 257.144C542.203 257.144 541.083 256.712 540.203 255.848C539.323 254.984 538.883 253.848 538.883 252.44V244.472C538.883 243.064 539.323 241.928 540.203 241.064C541.083 240.2 542.203 239.768 543.563 239.768C544.907 239.768 546.019 240.208 546.899 241.088C547.795 241.952 548.243 243.08 548.243 244.472V252.44ZM546.515 252.344V244.568C546.515 243.608 546.251 242.824 545.723 242.216C545.211 241.608 544.491 241.304 543.563 241.304C542.635 241.304 541.907 241.608 541.379 242.216C540.867 242.824 540.611 243.608 540.611 244.568V252.344C540.611 253.304 540.867 254.088 541.379 254.696C541.907 255.304 542.635 255.608 543.563 255.608C544.491 255.608 545.211 255.304 545.723 254.696C546.251 254.088 546.515 253.304 546.515 252.344ZM555.262 258.032L554.038 259.256C553.158 258.376 552.582 257.688 552.31 257.192C551.974 256.536 551.806 255.712 551.806 254.72V242.192C551.806 241.152 551.974 240.328 552.31 239.72C552.582 239.224 553.158 238.536 554.038 237.656L555.262 238.88C554.59 239.504 554.15 240.024 553.942 240.44C553.718 240.84 553.606 241.472 553.606 242.336V254.576C553.606 255.392 553.718 256.024 553.942 256.472C554.134 256.84 554.574 257.36 555.262 258.032ZM570.715 252.272C570.715 253.792 570.251 254.96 569.323 255.776C568.411 256.592 567.179 257 565.627 257H558.979V239.912H565.411C566.915 239.912 568.131 240.32 569.059 241.136C569.987 241.952 570.451 243.064 570.451 244.472C570.451 245.352 570.211 246.128 569.731 246.8C569.267 247.472 568.667 247.944 567.931 248.216C568.779 248.52 569.451 249.024 569.947 249.728C570.459 250.432 570.715 251.28 570.715 252.272ZM567.955 254.528C568.579 253.952 568.891 253.184 568.891 252.224C568.891 251.264 568.579 250.504 567.955 249.944C567.347 249.384 566.515 249.104 565.459 249.104H560.803V255.368H565.459C566.515 255.368 567.347 255.088 567.955 254.528ZM567.691 246.728C568.315 246.216 568.627 245.472 568.627 244.496C568.627 243.52 568.315 242.784 567.691 242.288C567.083 241.792 566.275 241.544 565.267 241.544H560.803V247.472H565.267C566.259 247.472 567.067 247.224 567.691 246.728ZM574.986 259.256L573.762 258.032C574.45 257.36 574.89 256.84 575.082 256.472C575.306 256.024 575.418 255.392 575.418 254.576V242.336C575.418 241.472 575.306 240.84 575.082 240.44C574.874 240.024 574.434 239.504 573.762 238.88L574.986 237.656C575.866 238.536 576.442 239.224 576.714 239.72C577.05 240.328 577.218 241.152 577.218 242.192V254.72C577.218 255.712 577.05 256.536 576.714 257.192C576.442 257.688 575.866 258.376 574.986 259.256Z" fill="#8D2C80"/>
<path d="M617.426 246.632H615.122L614.57 250.016H616.706V251.552H614.33L613.466 257H611.69L612.554 251.552H608.714L607.874 257H606.098L606.962 251.552H604.826V250.016H607.226L607.778 246.632H605.57V245.048H607.994L608.81 239.888H610.61L609.77 245.048H613.586L614.402 239.888H616.154L615.338 245.048H617.426V246.632ZM613.346 246.632H609.53L608.978 250.016H612.794L613.346 246.632ZM629.506 251.36C629.506 252.384 629.418 253.256 629.242 253.976C629.066 254.696 628.698 255.336 628.138 255.896C627.29 256.744 626.154 257.168 624.73 257.168C623.258 257.168 622.114 256.76 621.298 255.944C620.594 255.224 620.194 254.232 620.098 252.968H621.826C622.05 254.744 623.018 255.632 624.73 255.632C625.61 255.632 626.314 255.368 626.842 254.84C627.466 254.216 627.778 253.056 627.778 251.36C627.778 250.768 627.738 250.256 627.658 249.824C627.594 249.376 627.466 248.944 627.274 248.528C627.082 248.096 626.786 247.768 626.386 247.544C625.986 247.32 625.49 247.208 624.898 247.208C624.162 247.208 623.546 247.36 623.05 247.664C622.57 247.968 622.242 248.376 622.066 248.888H620.506V239.912H629.146V241.448H622.066V246.872C622.77 246.088 623.794 245.696 625.138 245.696C626.386 245.696 627.37 246.056 628.09 246.776C629.034 247.72 629.506 249.248 629.506 251.36ZM641.685 244.688C641.685 245.808 641.325 247.088 640.605 248.528L636.405 257H634.605L638.445 249.32C637.917 249.56 637.309 249.68 636.621 249.68C635.309 249.68 634.245 249.232 633.429 248.336C632.613 247.424 632.205 246.256 632.205 244.832C632.205 243.36 632.637 242.152 633.501 241.208C634.365 240.248 635.509 239.768 636.933 239.768C638.373 239.768 639.525 240.216 640.389 241.112C641.253 242.008 641.685 243.2 641.685 244.688ZM639.957 244.76C639.957 243.72 639.677 242.888 639.117 242.264C638.573 241.624 637.845 241.304 636.933 241.304C636.021 241.304 635.293 241.624 634.749 242.264C634.205 242.888 633.933 243.72 633.933 244.76C633.933 245.752 634.197 246.576 634.725 247.232C635.253 247.888 635.989 248.216 636.933 248.216C637.845 248.216 638.573 247.904 639.117 247.28C639.677 246.656 639.957 245.816 639.957 244.76ZM650.936 257H649.208V241.832L646.016 244.64V242.672L649.208 239.912H650.936V257ZM669.043 252.056C668.739 253.64 668.059 254.888 667.003 255.8C665.947 256.696 664.651 257.144 663.115 257.144C661.387 257.144 659.963 256.584 658.843 255.464C658.091 254.712 657.619 253.888 657.427 252.992C657.235 252.096 657.139 250.584 657.139 248.456C657.139 246.328 657.235 244.816 657.427 243.92C657.619 243.024 658.091 242.2 658.843 241.448C659.963 240.328 661.387 239.768 663.115 239.768C664.667 239.768 665.963 240.216 667.003 241.112C668.059 242.008 668.739 243.256 669.043 244.856H667.171C666.947 243.784 666.475 242.944 665.755 242.336C665.051 241.712 664.171 241.4 663.115 241.4C661.947 241.4 660.963 241.8 660.163 242.6C659.651 243.128 659.323 243.776 659.179 244.544C659.035 245.296 658.963 246.6 658.963 248.456C658.963 250.312 659.035 251.624 659.179 252.392C659.323 253.144 659.651 253.784 660.163 254.312C660.963 255.112 661.947 255.512 663.115 255.512C664.171 255.512 665.059 255.208 665.779 254.6C666.515 253.976 666.995 253.128 667.219 252.056H669.043ZM681.445 251.36C681.445 252.384 681.357 253.256 681.181 253.976C681.005 254.696 680.637 255.336 680.077 255.896C679.229 256.744 678.093 257.168 676.669 257.168C675.197 257.168 674.053 256.76 673.237 255.944C672.533 255.224 672.133 254.232 672.037 252.968H673.765C673.989 254.744 674.957 255.632 676.669 255.632C677.549 255.632 678.253 255.368 678.781 254.84C679.405 254.216 679.717 253.056 679.717 251.36C679.717 250.768 679.677 250.256 679.597 249.824C679.533 249.376 679.405 248.944 679.213 248.528C679.021 248.096 678.725 247.768 678.325 247.544C677.925 247.32 677.429 247.208 676.837 247.208C676.101 247.208 675.485 247.36 674.989 247.664C674.509 247.968 674.181 248.376 674.005 248.888H672.445V239.912H681.085V241.448H674.005V246.872C674.709 246.088 675.733 245.696 677.077 245.696C678.325 245.696 679.309 246.056 680.029 246.776C680.973 247.72 681.445 249.248 681.445 251.36ZM690.576 257H688.848V241.832L685.656 244.64V242.672L688.848 239.912H690.576V257Z" fill="#591C51"/>
<rect width="50" height="2" transform="matrix(-1 0 0 1 501 232)" fill="#612156"/>
<path d="M541.248 325.128H539.448V321H527.472V303.912H529.296V319.368H537.384V303.912H539.208V319.368H541.248V325.128ZM553.315 317.736C553.315 318.744 553.003 319.544 552.379 320.136C551.755 320.712 550.891 321 549.787 321H544.171V309.192H549.643C550.683 309.192 551.523 309.48 552.163 310.056C552.803 310.616 553.123 311.36 553.123 312.288C553.123 313.568 552.499 314.432 551.251 314.88C552.627 315.392 553.315 316.344 553.315 317.736ZM551.419 312.432C551.419 311.264 550.723 310.68 549.331 310.68H545.875V314.208H549.331C550.723 314.208 551.419 313.616 551.419 312.432ZM551.035 318.984C551.419 318.632 551.611 318.16 551.611 317.568C551.611 316.976 551.419 316.504 551.035 316.152C550.667 315.8 550.147 315.624 549.475 315.624H545.875V319.512H549.475C550.147 319.512 550.667 319.336 551.035 318.984ZM565.775 315.552H557.807C557.807 316.864 558.103 317.872 558.695 318.576C559.287 319.28 560.151 319.632 561.287 319.632C561.959 319.632 562.519 319.528 562.967 319.32C563.431 319.112 563.903 318.768 564.383 318.288L565.559 319.32C564.919 319.96 564.279 320.424 563.639 320.712C562.999 321 562.199 321.144 561.239 321.144C559.607 321.144 558.335 320.648 557.423 319.656C556.527 318.648 556.079 317.128 556.079 315.096C556.079 313.192 556.511 311.712 557.375 310.656C558.239 309.584 559.423 309.048 560.927 309.048C562.447 309.048 563.631 309.56 564.479 310.584C565.343 311.592 565.775 312.992 565.775 314.784V315.552ZM564.071 314.256C564.007 313.344 563.879 312.688 563.687 312.288C563.127 311.104 562.207 310.512 560.927 310.512C559.647 310.512 558.727 311.104 558.167 312.288C557.975 312.704 557.855 313.36 557.807 314.256H564.071ZM576.848 310.68H572.984V321H571.256V310.68H567.2V309.192H576.848V310.68ZM580.9 313.776H578.644V311.52H580.9V313.776ZM580.9 321H578.644V318.744H580.9V321ZM701.108 315.336H691.075V313.728H701.108V315.336ZM536.04 346.344C536.04 347.864 535.568 349.048 534.624 349.896C533.68 350.744 532.48 351.168 531.024 351.168C529.6 351.168 528.424 350.792 527.496 350.04C526.568 349.272 526.072 348.144 526.008 346.656H527.736C527.8 347.664 528.136 348.416 528.744 348.912C529.368 349.392 530.128 349.632 531.024 349.632C531.968 349.632 532.752 349.336 533.376 348.744C534 348.152 534.312 347.344 534.312 346.32C534.312 344.112 533.192 343.008 530.952 343.008H530.592V341.496H530.952C531.976 341.496 532.736 341.232 533.232 340.704C533.744 340.16 534 339.392 534 338.4C534 337.408 533.72 336.64 533.16 336.096C532.6 335.552 531.888 335.28 531.024 335.28C530.128 335.28 529.408 335.536 528.864 336.048C528.336 336.56 528.032 337.256 527.952 338.136H526.224C526.32 336.776 526.808 335.704 527.688 334.92C528.584 334.136 529.696 333.744 531.024 333.744C532.416 333.744 533.544 334.168 534.408 335.016C535.288 335.864 535.728 336.984 535.728 338.376C535.728 340.2 534.96 341.464 533.424 342.168C535.168 342.824 536.04 344.216 536.04 346.344ZM548.243 346.44C548.243 347.832 547.795 348.968 546.899 349.848C546.019 350.712 544.907 351.144 543.563 351.144C542.203 351.144 541.083 350.712 540.203 349.848C539.323 348.984 538.883 347.848 538.883 346.44V338.472C538.883 337.064 539.323 335.928 540.203 335.064C541.083 334.2 542.203 333.768 543.563 333.768C544.907 333.768 546.019 334.208 546.899 335.088C547.795 335.952 548.243 337.08 548.243 338.472V346.44ZM546.515 346.344V338.568C546.515 337.608 546.251 336.824 545.723 336.216C545.211 335.608 544.491 335.304 543.563 335.304C542.635 335.304 541.907 335.608 541.379 336.216C540.867 336.824 540.611 337.608 540.611 338.568V346.344C540.611 347.304 540.867 348.088 541.379 348.696C541.907 349.304 542.635 349.608 543.563 349.608C544.491 349.608 545.211 349.304 545.723 348.696C546.251 348.088 546.515 347.304 546.515 346.344ZM555.262 352.032L554.038 353.256C553.158 352.376 552.582 351.688 552.31 351.192C551.974 350.536 551.806 349.712 551.806 348.72V336.192C551.806 335.152 551.974 334.328 552.31 333.72C552.582 333.224 553.158 332.536 554.038 331.656L555.262 332.88C554.59 333.504 554.15 334.024 553.942 334.44C553.718 334.84 553.606 335.472 553.606 336.336V348.576C553.606 349.392 553.718 350.024 553.942 350.472C554.134 350.84 554.574 351.36 555.262 352.032ZM570.715 346.272C570.715 347.792 570.251 348.96 569.323 349.776C568.411 350.592 567.179 351 565.627 351H558.979V333.912H565.411C566.915 333.912 568.131 334.32 569.059 335.136C569.987 335.952 570.451 337.064 570.451 338.472C570.451 339.352 570.211 340.128 569.731 340.8C569.267 341.472 568.667 341.944 567.931 342.216C568.779 342.52 569.451 343.024 569.947 343.728C570.459 344.432 570.715 345.28 570.715 346.272ZM567.955 348.528C568.579 347.952 568.891 347.184 568.891 346.224C568.891 345.264 568.579 344.504 567.955 343.944C567.347 343.384 566.515 343.104 565.459 343.104H560.803V349.368H565.459C566.515 349.368 567.347 349.088 567.955 348.528ZM567.691 340.728C568.315 340.216 568.627 339.472 568.627 338.496C568.627 337.52 568.315 336.784 567.691 336.288C567.083 335.792 566.275 335.544 565.267 335.544H560.803V341.472H565.267C566.259 341.472 567.067 341.224 567.691 340.728ZM574.986 353.256L573.762 352.032C574.45 351.36 574.89 350.84 575.082 350.472C575.306 350.024 575.418 349.392 575.418 348.576V336.336C575.418 335.472 575.306 334.84 575.082 334.44C574.874 334.024 574.434 333.504 573.762 332.88L574.986 331.656C575.866 332.536 576.442 333.224 576.714 333.72C577.05 334.328 577.218 335.152 577.218 336.192V348.72C577.218 349.712 577.05 350.536 576.714 351.192C576.442 351.688 575.866 352.376 574.986 353.256ZM596.223 343.32H586.191V341.712H596.223V343.32ZM596.223 347.376H586.191V345.792H596.223V347.376Z" fill="black"/>
<path d="M602.953 310.632H600.649L600.097 314.016H602.233V315.552H599.857L598.993 321H597.217L598.081 315.552H594.241L593.401 321H591.625L592.489 315.552H590.353V314.016H592.753L593.305 310.632H591.097V309.048H593.521L594.337 303.888H596.137L595.297 309.048H599.113L599.929 303.888H601.681L600.865 309.048H602.953V310.632ZM598.873 310.632H595.057L594.505 314.016H598.321L598.873 310.632ZM615.249 316.296C615.249 317.72 614.769 318.888 613.809 319.8C612.849 320.696 611.649 321.144 610.209 321.144C608.769 321.144 607.569 320.696 606.609 319.8C605.649 318.888 605.169 317.72 605.169 316.296C605.169 314.504 606.025 313.12 607.737 312.144C606.249 311.296 605.505 310.032 605.505 308.352C605.505 307.024 605.945 305.928 606.825 305.064C607.721 304.2 608.849 303.768 610.209 303.768C611.569 303.768 612.689 304.2 613.569 305.064C614.465 305.928 614.913 307.024 614.913 308.352C614.913 310.032 614.177 311.296 612.705 312.144C614.401 313.104 615.249 314.488 615.249 316.296ZM612.561 318.648C613.201 318.008 613.521 317.216 613.521 316.272C613.521 315.328 613.201 314.536 612.561 313.896C611.937 313.256 611.153 312.936 610.209 312.936C609.265 312.936 608.473 313.256 607.833 313.896C607.209 314.536 606.897 315.328 606.897 316.272C606.897 317.216 607.209 318.008 607.833 318.648C608.473 319.288 609.265 319.608 610.209 319.608C611.153 319.608 611.937 319.288 612.561 318.648ZM612.345 310.584C612.905 310.008 613.185 309.272 613.185 308.376C613.185 307.48 612.905 306.744 612.345 306.168C611.801 305.592 611.089 305.304 610.209 305.304C609.329 305.304 608.609 305.592 608.049 306.168C607.505 306.744 607.233 307.48 607.233 308.376C607.233 309.272 607.505 310.008 608.049 310.584C608.609 311.144 609.329 311.424 610.209 311.424C611.089 311.424 611.801 311.144 612.345 310.584ZM630.524 309.816C630.556 310.424 630.572 311.304 630.572 312.456C630.572 313.608 630.556 314.488 630.524 315.096C630.492 315.704 630.356 316.416 630.116 317.232C629.876 318.032 629.524 318.688 629.06 319.2C627.956 320.4 626.46 321 624.572 321H618.716V303.912H624.572C626.46 303.912 627.956 304.512 629.06 305.712C629.524 306.224 629.876 306.888 630.116 307.704C630.356 308.504 630.492 309.208 630.524 309.816ZM628.7 314.784C628.732 314.24 628.748 313.464 628.748 312.456C628.748 311.448 628.732 310.672 628.7 310.128C628.668 309.584 628.564 308.984 628.388 308.328C628.228 307.672 627.972 307.16 627.62 306.792C626.868 305.96 625.748 305.544 624.26 305.544H620.54V319.368H624.26C625.748 319.368 626.868 318.952 627.62 318.12C627.972 317.752 628.228 317.24 628.388 316.584C628.564 315.928 628.668 315.328 628.7 314.784ZM643.216 321H633.784V319.464L640.528 310.896C641.168 310.064 641.488 309.224 641.488 308.376C641.488 307.448 641.224 306.704 640.696 306.144C640.168 305.584 639.44 305.304 638.512 305.304C637.648 305.304 636.936 305.56 636.376 306.072C635.816 306.584 635.536 307.36 635.536 308.4H633.808C633.808 307.04 634.24 305.928 635.104 305.064C635.968 304.2 637.104 303.768 638.512 303.768C639.92 303.768 641.056 304.192 641.92 305.04C642.784 305.872 643.216 306.984 643.216 308.376C643.216 309.032 643.112 309.616 642.904 310.128C642.696 310.64 642.344 311.208 641.848 311.832L635.872 319.464H643.216V321ZM658.18 316.056C657.876 317.64 657.196 318.888 656.14 319.8C655.084 320.696 653.788 321.144 652.252 321.144C650.524 321.144 649.1 320.584 647.98 319.464C647.228 318.712 646.756 317.888 646.564 316.992C646.372 316.096 646.276 314.584 646.276 312.456C646.276 310.328 646.372 308.816 646.564 307.92C646.756 307.024 647.228 306.2 647.98 305.448C649.1 304.328 650.524 303.768 652.252 303.768C653.804 303.768 655.1 304.216 656.14 305.112C657.196 306.008 657.876 307.256 658.18 308.856H656.308C656.084 307.784 655.612 306.944 654.892 306.336C654.188 305.712 653.308 305.4 652.252 305.4C651.084 305.4 650.1 305.8 649.3 306.6C648.788 307.128 648.46 307.776 648.316 308.544C648.172 309.296 648.1 310.6 648.1 312.456C648.1 314.312 648.172 315.624 648.316 316.392C648.46 317.144 648.788 317.784 649.3 318.312C650.1 319.112 651.084 319.512 652.252 319.512C653.308 319.512 654.196 319.208 654.916 318.6C655.652 317.976 656.132 317.128 656.356 316.056H658.18ZM670.797 316.296C670.797 317.72 670.317 318.888 669.357 319.8C668.397 320.696 667.197 321.144 665.757 321.144C664.317 321.144 663.117 320.696 662.157 319.8C661.197 318.888 660.717 317.72 660.717 316.296C660.717 314.504 661.573 313.12 663.285 312.144C661.797 311.296 661.053 310.032 661.053 308.352C661.053 307.024 661.493 305.928 662.373 305.064C663.269 304.2 664.397 303.768 665.757 303.768C667.117 303.768 668.237 304.2 669.117 305.064C670.013 305.928 670.461 307.024 670.461 308.352C670.461 310.032 669.725 311.296 668.253 312.144C669.949 313.104 670.797 314.488 670.797 316.296ZM668.109 318.648C668.749 318.008 669.069 317.216 669.069 316.272C669.069 315.328 668.749 314.536 668.109 313.896C667.485 313.256 666.701 312.936 665.757 312.936C664.813 312.936 664.021 313.256 663.381 313.896C662.757 314.536 662.445 315.328 662.445 316.272C662.445 317.216 662.757 318.008 663.381 318.648C664.021 319.288 664.813 319.608 665.757 319.608C666.701 319.608 667.485 319.288 668.109 318.648ZM667.893 310.584C668.453 310.008 668.733 309.272 668.733 308.376C668.733 307.48 668.453 306.744 667.893 306.168C667.349 305.592 666.637 305.304 665.757 305.304C664.877 305.304 664.157 305.592 663.597 306.168C663.053 306.744 662.781 307.48 662.781 308.376C662.781 309.272 663.053 310.008 663.597 310.584C664.157 311.144 664.877 311.424 665.757 311.424C666.637 311.424 667.349 311.144 667.893 310.584ZM682.736 316.44C682.736 317.832 682.288 318.968 681.392 319.848C680.512 320.712 679.4 321.144 678.056 321.144C676.696 321.144 675.576 320.712 674.696 319.848C673.816 318.984 673.376 317.848 673.376 316.44V308.472C673.376 307.064 673.816 305.928 674.696 305.064C675.576 304.2 676.696 303.768 678.056 303.768C679.4 303.768 680.512 304.208 681.392 305.088C682.288 305.952 682.736 307.08 682.736 308.472V316.44ZM681.008 316.344V308.568C681.008 307.608 680.744 306.824 680.216 306.216C679.704 305.608 678.984 305.304 678.056 305.304C677.128 305.304 676.4 305.608 675.872 306.216C675.36 306.824 675.104 307.608 675.104 308.568V316.344C675.104 317.304 675.36 318.088 675.872 318.696C676.4 319.304 677.128 319.608 678.056 319.608C678.984 319.608 679.704 319.304 680.216 318.696C680.744 318.088 681.008 317.304 681.008 316.344Z" fill="#8D2C80"/>
<path d="M617.426 340.632H615.122L614.57 344.016H616.706V345.552H614.33L613.466 351H611.69L612.554 345.552H608.714L607.874 351H606.098L606.962 345.552H604.826V344.016H607.226L607.778 340.632H605.57V339.048H607.994L608.81 333.888H610.61L609.77 339.048H613.586L614.402 333.888H616.154L615.338 339.048H617.426V340.632ZM613.346 340.632H609.53L608.978 344.016H612.794L613.346 340.632ZM629.986 348.288H627.898V351H626.194V348.288H619.378V346.728L625.546 333.912H627.394L621.226 346.728H626.194V341.88H627.898V346.728H629.986V348.288ZM641.661 346.44C641.661 347.832 641.213 348.968 640.317 349.848C639.437 350.712 638.325 351.144 636.981 351.144C635.621 351.144 634.501 350.712 633.621 349.848C632.741 348.984 632.301 347.848 632.301 346.44V338.472C632.301 337.064 632.741 335.928 633.621 335.064C634.501 334.2 635.621 333.768 636.981 333.768C638.325 333.768 639.437 334.208 640.317 335.088C641.213 335.952 641.661 337.08 641.661 338.472V346.44ZM639.933 346.344V338.568C639.933 337.608 639.669 336.824 639.141 336.216C638.629 335.608 637.909 335.304 636.981 335.304C636.053 335.304 635.325 335.608 634.797 336.216C634.285 336.824 634.029 337.608 634.029 338.568V346.344C634.029 347.304 634.285 348.088 634.797 348.696C635.325 349.304 636.053 349.608 636.981 349.608C637.909 349.608 638.629 349.304 639.141 348.696C639.669 348.088 639.933 347.304 639.933 346.344ZM650.936 351H649.208V335.832L646.016 338.64V336.672L649.208 333.912H650.936V351ZM666.883 348.288H664.795V351H663.091V348.288H656.275V346.728L662.443 333.912H664.291L658.123 346.728H663.091V341.88H664.795V346.728H666.883V348.288ZM678.654 346.344C678.654 347.864 678.182 349.048 677.238 349.896C676.294 350.744 675.094 351.168 673.638 351.168C672.214 351.168 671.038 350.792 670.11 350.04C669.182 349.272 668.686 348.144 668.622 346.656H670.35C670.414 347.664 670.75 348.416 671.358 348.912C671.982 349.392 672.742 349.632 673.638 349.632C674.582 349.632 675.366 349.336 675.99 348.744C676.614 348.152 676.926 347.344 676.926 346.32C676.926 344.112 675.806 343.008 673.566 343.008H673.206V341.496H673.566C674.59 341.496 675.35 341.232 675.846 340.704C676.358 340.16 676.614 339.392 676.614 338.4C676.614 337.408 676.334 336.64 675.774 336.096C675.214 335.552 674.502 335.28 673.638 335.28C672.742 335.28 672.022 335.536 671.478 336.048C670.95 336.56 670.646 337.256 670.566 338.136H668.838C668.934 336.776 669.422 335.704 670.302 334.92C671.198 334.136 672.31 333.744 673.638 333.744C675.03 333.744 676.158 334.168 677.022 335.016C677.902 335.864 678.342 336.984 678.342 338.376C678.342 340.2 677.574 341.464 676.038 342.168C677.782 342.824 678.654 344.216 678.654 346.344ZM694.289 351H692.345L690.977 347.136H683.513L682.145 351H680.201L686.489 333.912H688.025L694.289 351ZM690.449 345.552L687.281 336.528L684.065 345.552H690.449Z" fill="#40143A"/>
<rect width="50" height="2" transform="matrix(-1 0 0 1 501 326)" fill="#471840"/>
<path d="M541.248 417.128H539.448V413H527.472V395.912H529.296V411.368H537.384V395.912H539.208V411.368H541.248V417.128ZM553.315 409.736C553.315 410.744 553.003 411.544 552.379 412.136C551.755 412.712 550.891 413 549.787 413H544.171V401.192H549.643C550.683 401.192 551.523 401.48 552.163 402.056C552.803 402.616 553.123 403.36 553.123 404.288C553.123 405.568 552.499 406.432 551.251 406.88C552.627 407.392 553.315 408.344 553.315 409.736ZM551.419 404.432C551.419 403.264 550.723 402.68 549.331 402.68H545.875V406.208H549.331C550.723 406.208 551.419 405.616 551.419 404.432ZM551.035 410.984C551.419 410.632 551.611 410.16 551.611 409.568C551.611 408.976 551.419 408.504 551.035 408.152C550.667 407.8 550.147 407.624 549.475 407.624H545.875V411.512H549.475C550.147 411.512 550.667 411.336 551.035 410.984ZM565.775 407.552H557.807C557.807 408.864 558.103 409.872 558.695 410.576C559.287 411.28 560.151 411.632 561.287 411.632C561.959 411.632 562.519 411.528 562.967 411.32C563.431 411.112 563.903 410.768 564.383 410.288L565.559 411.32C564.919 411.96 564.279 412.424 563.639 412.712C562.999 413 562.199 413.144 561.239 413.144C559.607 413.144 558.335 412.648 557.423 411.656C556.527 410.648 556.079 409.128 556.079 407.096C556.079 405.192 556.511 403.712 557.375 402.656C558.239 401.584 559.423 401.048 560.927 401.048C562.447 401.048 563.631 401.56 564.479 402.584C565.343 403.592 565.775 404.992 565.775 406.784V407.552ZM564.071 406.256C564.007 405.344 563.879 404.688 563.687 404.288C563.127 403.104 562.207 402.512 560.927 402.512C559.647 402.512 558.727 403.104 558.167 404.288C557.975 404.704 557.855 405.36 557.807 406.256H564.071ZM576.848 402.68H572.984V413H571.256V402.68H567.2V401.192H576.848V402.68ZM580.9 405.776H578.644V403.52H580.9V405.776ZM580.9 413H578.644V410.744H580.9V413ZM701.108 407.336H691.075V405.728H701.108V407.336ZM536.04 438.344C536.04 439.864 535.568 441.048 534.624 441.896C533.68 442.744 532.48 443.168 531.024 443.168C529.6 443.168 528.424 442.792 527.496 442.04C526.568 441.272 526.072 440.144 526.008 438.656H527.736C527.8 439.664 528.136 440.416 528.744 440.912C529.368 441.392 530.128 441.632 531.024 441.632C531.968 441.632 532.752 441.336 533.376 440.744C534 440.152 534.312 439.344 534.312 438.32C534.312 436.112 533.192 435.008 530.952 435.008H530.592V433.496H530.952C531.976 433.496 532.736 433.232 533.232 432.704C533.744 432.16 534 431.392 534 430.4C534 429.408 533.72 428.64 533.16 428.096C532.6 427.552 531.888 427.28 531.024 427.28C530.128 427.28 529.408 427.536 528.864 428.048C528.336 428.56 528.032 429.256 527.952 430.136H526.224C526.32 428.776 526.808 427.704 527.688 426.92C528.584 426.136 529.696 425.744 531.024 425.744C532.416 425.744 533.544 426.168 534.408 427.016C535.288 427.864 535.728 428.984 535.728 430.376C535.728 432.2 534.96 433.464 533.424 434.168C535.168 434.824 536.04 436.216 536.04 438.344ZM548.243 438.44C548.243 439.832 547.795 440.968 546.899 441.848C546.019 442.712 544.907 443.144 543.563 443.144C542.203 443.144 541.083 442.712 540.203 441.848C539.323 440.984 538.883 439.848 538.883 438.44V430.472C538.883 429.064 539.323 427.928 540.203 427.064C541.083 426.2 542.203 425.768 543.563 425.768C544.907 425.768 546.019 426.208 546.899 427.088C547.795 427.952 548.243 429.08 548.243 430.472V438.44ZM546.515 438.344V430.568C546.515 429.608 546.251 428.824 545.723 428.216C545.211 427.608 544.491 427.304 543.563 427.304C542.635 427.304 541.907 427.608 541.379 428.216C540.867 428.824 540.611 429.608 540.611 430.568V438.344C540.611 439.304 540.867 440.088 541.379 440.696C541.907 441.304 542.635 441.608 543.563 441.608C544.491 441.608 545.211 441.304 545.723 440.696C546.251 440.088 546.515 439.304 546.515 438.344ZM555.262 444.032L554.038 445.256C553.158 444.376 552.582 443.688 552.31 443.192C551.974 442.536 551.806 441.712 551.806 440.72V428.192C551.806 427.152 551.974 426.328 552.31 425.72C552.582 425.224 553.158 424.536 554.038 423.656L555.262 424.88C554.59 425.504 554.15 426.024 553.942 426.44C553.718 426.84 553.606 427.472 553.606 428.336V440.576C553.606 441.392 553.718 442.024 553.942 442.472C554.134 442.84 554.574 443.36 555.262 444.032ZM570.715 438.272C570.715 439.792 570.251 440.96 569.323 441.776C568.411 442.592 567.179 443 565.627 443H558.979V425.912H565.411C566.915 425.912 568.131 426.32 569.059 427.136C569.987 427.952 570.451 429.064 570.451 430.472C570.451 431.352 570.211 432.128 569.731 432.8C569.267 433.472 568.667 433.944 567.931 434.216C568.779 434.52 569.451 435.024 569.947 435.728C570.459 436.432 570.715 437.28 570.715 438.272ZM567.955 440.528C568.579 439.952 568.891 439.184 568.891 438.224C568.891 437.264 568.579 436.504 567.955 435.944C567.347 435.384 566.515 435.104 565.459 435.104H560.803V441.368H565.459C566.515 441.368 567.347 441.088 567.955 440.528ZM567.691 432.728C568.315 432.216 568.627 431.472 568.627 430.496C568.627 429.52 568.315 428.784 567.691 428.288C567.083 427.792 566.275 427.544 565.267 427.544H560.803V433.472H565.267C566.259 433.472 567.067 433.224 567.691 432.728ZM574.986 445.256L573.762 444.032C574.45 443.36 574.89 442.84 575.082 442.472C575.306 442.024 575.418 441.392 575.418 440.576V428.336C575.418 427.472 575.306 426.84 575.082 426.44C574.874 426.024 574.434 425.504 573.762 424.88L574.986 423.656C575.866 424.536 576.442 425.224 576.714 425.72C577.05 426.328 577.218 427.152 577.218 428.192V440.72C577.218 441.712 577.05 442.536 576.714 443.192C576.442 443.688 575.866 444.376 574.986 445.256ZM596.223 435.32H586.191V433.712H596.223V435.32ZM596.223 439.376H586.191V437.792H596.223V439.376Z" fill="black"/>
<path d="M602.953 402.632H600.649L600.097 406.016H602.233V407.552H599.857L598.993 413H597.217L598.081 407.552H594.241L593.401 413H591.625L592.489 407.552H590.353V406.016H592.753L593.305 402.632H591.097V401.048H593.521L594.337 395.888H596.137L595.297 401.048H599.113L599.929 395.888H601.681L600.865 401.048H602.953V402.632ZM598.873 402.632H595.057L594.505 406.016H598.321L598.873 402.632ZM615.249 408.296C615.249 409.72 614.769 410.888 613.809 411.8C612.849 412.696 611.649 413.144 610.209 413.144C608.769 413.144 607.569 412.696 606.609 411.8C605.649 410.888 605.169 409.72 605.169 408.296C605.169 406.504 606.025 405.12 607.737 404.144C606.249 403.296 605.505 402.032 605.505 400.352C605.505 399.024 605.945 397.928 606.825 397.064C607.721 396.2 608.849 395.768 610.209 395.768C611.569 395.768 612.689 396.2 613.569 397.064C614.465 397.928 614.913 399.024 614.913 400.352C614.913 402.032 614.177 403.296 612.705 404.144C614.401 405.104 615.249 406.488 615.249 408.296ZM612.561 410.648C613.201 410.008 613.521 409.216 613.521 408.272C613.521 407.328 613.201 406.536 612.561 405.896C611.937 405.256 611.153 404.936 610.209 404.936C609.265 404.936 608.473 405.256 607.833 405.896C607.209 406.536 606.897 407.328 606.897 408.272C606.897 409.216 607.209 410.008 607.833 410.648C608.473 411.288 609.265 411.608 610.209 411.608C611.153 411.608 611.937 411.288 612.561 410.648ZM612.345 402.584C612.905 402.008 613.185 401.272 613.185 400.376C613.185 399.48 612.905 398.744 612.345 398.168C611.801 397.592 611.089 397.304 610.209 397.304C609.329 397.304 608.609 397.592 608.049 398.168C607.505 398.744 607.233 399.48 607.233 400.376C607.233 401.272 607.505 402.008 608.049 402.584C608.609 403.144 609.329 403.424 610.209 403.424C611.089 403.424 611.801 403.144 612.345 402.584ZM630.524 401.816C630.556 402.424 630.572 403.304 630.572 404.456C630.572 405.608 630.556 406.488 630.524 407.096C630.492 407.704 630.356 408.416 630.116 409.232C629.876 410.032 629.524 410.688 629.06 411.2C627.956 412.4 626.46 413 624.572 413H618.716V395.912H624.572C626.46 395.912 627.956 396.512 629.06 397.712C629.524 398.224 629.876 398.888 630.116 399.704C630.356 400.504 630.492 401.208 630.524 401.816ZM628.7 406.784C628.732 406.24 628.748 405.464 628.748 404.456C628.748 403.448 628.732 402.672 628.7 402.128C628.668 401.584 628.564 400.984 628.388 400.328C628.228 399.672 627.972 399.16 627.62 398.792C626.868 397.96 625.748 397.544 624.26 397.544H620.54V411.368H624.26C625.748 411.368 626.868 410.952 627.62 410.12C627.972 409.752 628.228 409.24 628.388 408.584C628.564 407.928 628.668 407.328 628.7 406.784ZM643.216 413H633.784V411.464L640.528 402.896C641.168 402.064 641.488 401.224 641.488 400.376C641.488 399.448 641.224 398.704 640.696 398.144C640.168 397.584 639.44 397.304 638.512 397.304C637.648 397.304 636.936 397.56 636.376 398.072C635.816 398.584 635.536 399.36 635.536 400.4H633.808C633.808 399.04 634.24 397.928 635.104 397.064C635.968 396.2 637.104 395.768 638.512 395.768C639.92 395.768 641.056 396.192 641.92 397.04C642.784 397.872 643.216 398.984 643.216 400.376C643.216 401.032 643.112 401.616 642.904 402.128C642.696 402.64 642.344 403.208 641.848 403.832L635.872 411.464H643.216V413ZM658.18 408.056C657.876 409.64 657.196 410.888 656.14 411.8C655.084 412.696 653.788 413.144 652.252 413.144C650.524 413.144 649.1 412.584 647.98 411.464C647.228 410.712 646.756 409.888 646.564 408.992C646.372 408.096 646.276 406.584 646.276 404.456C646.276 402.328 646.372 400.816 646.564 399.92C646.756 399.024 647.228 398.2 647.98 397.448C649.1 396.328 650.524 395.768 652.252 395.768C653.804 395.768 655.1 396.216 656.14 397.112C657.196 398.008 657.876 399.256 658.18 400.856H656.308C656.084 399.784 655.612 398.944 654.892 398.336C654.188 397.712 653.308 397.4 652.252 397.4C651.084 397.4 650.1 397.8 649.3 398.6C648.788 399.128 648.46 399.776 648.316 400.544C648.172 401.296 648.1 402.6 648.1 404.456C648.1 406.312 648.172 407.624 648.316 408.392C648.46 409.144 648.788 409.784 649.3 410.312C650.1 411.112 651.084 411.512 652.252 411.512C653.308 411.512 654.196 411.208 654.916 410.6C655.652 409.976 656.132 409.128 656.356 408.056H658.18ZM670.797 408.296C670.797 409.72 670.317 410.888 669.357 411.8C668.397 412.696 667.197 413.144 665.757 413.144C664.317 413.144 663.117 412.696 662.157 411.8C661.197 410.888 660.717 409.72 660.717 408.296C660.717 406.504 661.573 405.12 663.285 404.144C661.797 403.296 661.053 402.032 661.053 400.352C661.053 399.024 661.493 397.928 662.373 397.064C663.269 396.2 664.397 395.768 665.757 395.768C667.117 395.768 668.237 396.2 669.117 397.064C670.013 397.928 670.461 399.024 670.461 400.352C670.461 402.032 669.725 403.296 668.253 404.144C669.949 405.104 670.797 406.488 670.797 408.296ZM668.109 410.648C668.749 410.008 669.069 409.216 669.069 408.272C669.069 407.328 668.749 406.536 668.109 405.896C667.485 405.256 666.701 404.936 665.757 404.936C664.813 404.936 664.021 405.256 663.381 405.896C662.757 406.536 662.445 407.328 662.445 408.272C662.445 409.216 662.757 410.008 663.381 410.648C664.021 411.288 664.813 411.608 665.757 411.608C666.701 411.608 667.485 411.288 668.109 410.648ZM667.893 402.584C668.453 402.008 668.733 401.272 668.733 400.376C668.733 399.48 668.453 398.744 667.893 398.168C667.349 397.592 666.637 397.304 665.757 397.304C664.877 397.304 664.157 397.592 663.597 398.168C663.053 398.744 662.781 399.48 662.781 400.376C662.781 401.272 663.053 402.008 663.597 402.584C664.157 403.144 664.877 403.424 665.757 403.424C666.637 403.424 667.349 403.144 667.893 402.584ZM682.736 408.44C682.736 409.832 682.288 410.968 681.392 411.848C680.512 412.712 679.4 413.144 678.056 413.144C676.696 413.144 675.576 412.712 674.696 411.848C673.816 410.984 673.376 409.848 673.376 408.44V400.472C673.376 399.064 673.816 397.928 674.696 397.064C675.576 396.2 676.696 395.768 678.056 395.768C679.4 395.768 680.512 396.208 681.392 397.088C682.288 397.952 682.736 399.08 682.736 400.472V408.44ZM681.008 408.344V400.568C681.008 399.608 680.744 398.824 680.216 398.216C679.704 397.608 678.984 397.304 678.056 397.304C677.128 397.304 676.4 397.608 675.872 398.216C675.36 398.824 675.104 399.608 675.104 400.568V408.344C675.104 409.304 675.36 410.088 675.872 410.696C676.4 411.304 677.128 411.608 678.056 411.608C678.984 411.608 679.704 411.304 680.216 410.696C680.744 410.088 681.008 409.304 681.008 408.344Z" fill="#8D2C80"/>
<path d="M611.69 432.632H609.386L608.834 436.016H610.97V437.552H608.594L607.73 443H605.954L606.818 437.552H602.978L602.138 443H600.362L601.226 437.552H599.09V436.016H601.49L602.042 432.632H599.834V431.048H602.258L603.074 425.888H604.874L604.034 431.048H607.85L608.666 425.888H610.418L609.602 431.048H611.69V432.632ZM607.61 432.632H603.794L603.242 436.016H607.058L607.61 432.632ZM623.746 443H614.314V441.464L621.058 432.896C621.698 432.064 622.018 431.224 622.018 430.376C622.018 429.448 621.754 428.704 621.226 428.144C620.698 427.584 619.97 427.304 619.042 427.304C618.178 427.304 617.466 427.56 616.906 428.072C616.346 428.584 616.066 429.36 616.066 430.4H614.338C614.338 429.04 614.77 427.928 615.634 427.064C616.498 426.2 617.634 425.768 619.042 425.768C620.45 425.768 621.586 426.192 622.45 427.04C623.314 427.872 623.746 428.984 623.746 430.376C623.746 431.032 623.642 431.616 623.434 432.128C623.226 432.64 622.874 433.208 622.378 433.832L616.402 441.464H623.746V443ZM636.021 438.08C636.021 439.552 635.589 440.768 634.725 441.728C633.861 442.672 632.717 443.144 631.293 443.144C629.853 443.144 628.701 442.696 627.837 441.8C626.973 440.904 626.541 439.712 626.541 438.224C626.541 437.104 626.901 435.824 627.621 434.384L631.821 425.912H633.597L629.781 433.592C630.309 433.352 630.909 433.232 631.581 433.232C632.909 433.232 633.981 433.688 634.797 434.6C635.613 435.496 636.021 436.656 636.021 438.08ZM634.293 438.152C634.293 437.16 634.021 436.336 633.477 435.68C632.949 435.024 632.213 434.696 631.269 434.696C630.357 434.696 629.629 435.008 629.085 435.632C628.541 436.256 628.269 437.096 628.269 438.152C628.269 439.192 628.541 440.032 629.085 440.672C629.629 441.296 630.357 441.608 631.269 441.608C632.181 441.608 632.909 441.296 633.453 440.672C634.013 440.032 634.293 439.192 634.293 438.152ZM648.224 438.44C648.224 439.832 647.776 440.968 646.88 441.848C646 442.712 644.888 443.144 643.544 443.144C642.184 443.144 641.064 442.712 640.184 441.848C639.304 440.984 638.864 439.848 638.864 438.44V430.472C638.864 429.064 639.304 427.928 640.184 427.064C641.064 426.2 642.184 425.768 643.544 425.768C644.888 425.768 646 426.208 646.88 427.088C647.776 427.952 648.224 429.08 648.224 430.472V438.44ZM646.496 438.344V430.568C646.496 429.608 646.232 428.824 645.704 428.216C645.192 427.608 644.472 427.304 643.544 427.304C642.616 427.304 641.888 427.608 641.36 428.216C640.848 428.824 640.592 429.608 640.592 430.568V438.344C640.592 439.304 640.848 440.088 641.36 440.696C641.888 441.304 642.616 441.608 643.544 441.608C644.472 441.608 645.192 441.304 645.704 440.696C646.232 440.088 646.496 439.304 646.496 438.344ZM663.307 438.056C663.003 439.64 662.323 440.888 661.267 441.8C660.211 442.696 658.915 443.144 657.379 443.144C655.651 443.144 654.227 442.584 653.107 441.464C652.355 440.712 651.883 439.888 651.691 438.992C651.499 438.096 651.403 436.584 651.403 434.456C651.403 432.328 651.499 430.816 651.691 429.92C651.883 429.024 652.355 428.2 653.107 427.448C654.227 426.328 655.651 425.768 657.379 425.768C658.931 425.768 660.227 426.216 661.267 427.112C662.323 428.008 663.003 429.256 663.307 430.856H661.435C661.211 429.784 660.739 428.944 660.019 428.336C659.315 427.712 658.435 427.4 657.379 427.4C656.211 427.4 655.227 427.8 654.427 428.6C653.915 429.128 653.587 429.776 653.443 430.544C653.299 431.296 653.227 432.6 653.227 434.456C653.227 436.312 653.299 437.624 653.443 438.392C653.587 439.144 653.915 439.784 654.427 440.312C655.227 441.112 656.211 441.512 657.379 441.512C658.435 441.512 659.323 441.208 660.043 440.6C660.779 439.976 661.259 439.128 661.483 438.056H663.307ZM675.684 443H666.252V441.464L672.996 432.896C673.636 432.064 673.956 431.224 673.956 430.376C673.956 429.448 673.692 428.704 673.164 428.144C672.636 427.584 671.908 427.304 670.98 427.304C670.116 427.304 669.404 427.56 668.844 428.072C668.284 428.584 668.004 429.36 668.004 430.4H666.276C666.276 429.04 666.708 427.928 667.572 427.064C668.436 426.2 669.572 425.768 670.98 425.768C672.388 425.768 673.524 426.192 674.388 427.04C675.252 427.872 675.684 428.984 675.684 430.376C675.684 431.032 675.58 431.616 675.372 432.128C675.164 432.64 674.812 433.208 674.316 433.832L668.34 441.464H675.684V443ZM687.959 438.344C687.959 439.864 687.487 441.048 686.543 441.896C685.599 442.744 684.399 443.168 682.943 443.168C681.519 443.168 680.343 442.792 679.415 442.04C678.487 441.272 677.991 440.144 677.927 438.656H679.655C679.719 439.664 680.055 440.416 680.663 440.912C681.287 441.392 682.047 441.632 682.943 441.632C683.887 441.632 684.671 441.336 685.295 440.744C685.919 440.152 686.231 439.344 686.231 438.32C686.231 436.112 685.111 435.008 682.871 435.008H682.511V433.496H682.871C683.895 433.496 684.655 433.232 685.151 432.704C685.663 432.16 685.919 431.392 685.919 430.4C685.919 429.408 685.639 428.64 685.079 428.096C684.519 427.552 683.807 427.28 682.943 427.28C682.047 427.28 681.327 427.536 680.783 428.048C680.255 428.56 679.951 429.256 679.871 430.136H678.143C678.239 428.776 678.727 427.704 679.607 426.92C680.503 426.136 681.615 425.744 682.943 425.744C684.335 425.744 685.463 426.168 686.327 427.016C687.207 427.864 687.647 428.984 687.647 430.376C687.647 432.2 686.879 433.464 685.343 434.168C687.087 434.824 687.959 436.216 687.959 438.344Z" fill="#260C23"/>
<rect width="50" height="2" transform="matrix(-1 0 0 1 501 418)" fill="#2E1029"/>
</svg>
