<svg width="1735" height="900" viewBox="0 0 1735 900" fill="none" xmlns="http://www.w3.org/2000/svg">
  <path d="M1292 450a450 450 0 1 1-900 0 450 450 0 0 1 900 0Zm-690.8 0a240.8 240.8 0 1 0 481.6 0 240.8 240.8 0 0 0-481.6 0Z" fill="#732468"/>
  <path d="M842 0a450 450 0 0 0 0 900V690.8a240.8 240.8 0 0 1 0-481.6V0Z" fill="#953385"/>
  <path d="M19.3 387.2V410h-4.5v-18.8H7.1V410H2.7v-22.8h16.6Zm20.8 0-8 19c-1.2 2.5-3 3.8-5.2 3.8h-2.7v-4H26c.8 0 1.3-.2 1.7-.5.4-.4.7-1 1-1.7l.3-.8-7.3-15.8h4.7l4.8 11 4.3-11h4.6Zm19 0V410h-4.4v-9.5H47v9.5h-4.5v-22.8H47v9.3h7.7v-9.3h4.5Zm22.2 0-8 10.7 8.8 12.1h-5.4l-8-12 7.4-10.8h5.2Zm-12.7 0V410h-4.4v-22.8h4.4Zm30.3 0v4h-6V410h-4.4v-18.8h-6v-4H99Zm5 18.3v6.3l-4.5 3.5v-9.8h4.5Zm10.9 4.5v-3.7l8.5-10c.8-.9 1.2-1.8 1.2-2.7 0-.8-.2-1.5-.7-2-.5-.6-1.1-.8-2-.8a3 3 0 0 0-2 .7c-.6.4-.8 1.2-.8 2.2h-4.2c0-2 .7-3.7 2-4.9a7 7 0 0 1 5-1.8c2 0 3.7.6 5 1.8 1.3 1.2 1.9 2.8 1.9 4.8 0 1-.2 2-.6 2.6-.3.7-1 1.6-1.9 2.7l-6.3 7.4h8.8v3.7h-13.9Zm23.8.2a8 8 0 0 1-5.2-1.7c-1.4-1.1-2-2.8-2-5h4c.1 1 .4 1.7 1 2.2.6.5 1.3.7 2.2.7a3 3 0 0 0 2.2-.8 3 3 0 0 0 .9-2.3 3 3 0 0 0-1-2.3 3 3 0 0 0-2.2-.9h-.7v-3.6h.7c1 0 1.7-.2 2.1-.7a3 3 0 0 0 .7-2.1c0-1-.2-1.7-.8-2.2-.5-.5-1.2-.7-2-.7-.7 0-1.4.2-2 .7-.4.5-.7 1.2-.8 2h-4.1c0-2 .7-3.6 2-4.7 1.3-1.2 3-1.8 5-1.8s3.6.6 5 1.8c1.2 1.3 1.9 2.8 1.9 4.8 0 2.1-.9 3.7-2.6 4.6 2 1 3 2.8 3 5.2 0 2.2-.8 3.9-2.2 5a7.6 7.6 0 0 1-5.1 1.8Zm22.1-.2 10.8-22.8h3.3L164 410h-3.3Zm3-12.2c-.8.8-2 1.2-3.3 1.2a5 5 0 0 1-3.3-1.2 4 4 0 0 1-1.3-3.2v-3.2a4 4 0 0 1 1.3-3.2 5 5 0 0 1 3.3-1.2c1.4 0 2.5.4 3.3 1.2a4 4 0 0 1 1.4 3.2v3.2a4 4 0 0 1-1.4 3.2Zm-3.3-1.5c1.1 0 1.7-.6 1.7-1.9v-2.8c0-1.2-.6-1.9-1.7-1.9-1 0-1.6.7-1.6 1.9v2.8c0 1.3.6 1.9 1.6 1.9Zm17.9 12.7c-.9.8-2 1.2-3.3 1.2a5 5 0 0 1-3.4-1.2 4 4 0 0 1-1.3-3.2v-3.2a4 4 0 0 1 1.3-3.2 5 5 0 0 1 3.4-1.1c1.3 0 2.4.3 3.3 1.1a4 4 0 0 1 1.3 3.2v3.2a4 4 0 0 1-1.3 3.2Zm-5-3.4c0 1.3.6 1.9 1.7 1.9 1 0 1.6-.6 1.6-1.9v-2.8c0-1.2-.5-1.9-1.6-1.9-.5 0-1 .2-1.2.5-.3.3-.5.8-.5 1.4v2.8Z" fill="#000"/>
  <path fill="#953385" d="M206 396.5h170v2H206z"/>
  <path d="M10.4 452a7.7 7.7 0 0 1 7.6 5.6c.2 1.2.4 3.2.4 6s-.2 4.8-.4 6a7.7 7.7 0 0 1-7.6 5.6c-2.3 0-4.2-.8-5.7-2.2-1-1-1.6-2.1-1.9-3.3-.2-1.2-.4-3.3-.4-6 0-3 .2-5 .4-6.1.3-1.2.9-2.3 1.9-3.3a7.7 7.7 0 0 1 5.7-2.3Zm4 3.8c-1.1-1-2.4-1.6-4-1.6s-2.9.5-4 1.6a5 5 0 0 0-1.2 2.6 32 32 0 0 0-.3 5.2c0 2.5 0 4.2.3 5.3a5 5 0 0 0 1.3 2.5c1 1 2.3 1.6 3.9 1.6s2.9-.5 4-1.6a5 5 0 0 0 1.2-2.5c.2-1 .3-2.8.3-5.3a32 32 0 0 0-.3-5.2 5 5 0 0 0-1.3-2.6Zm21.2 3.5V475h-2.3v-13.7h-7.6V475h-2.3v-15.7h12.2Zm18.1 0V475h-2.3v-12.3l-8 12.3H41v-15.7h2.3v12.2l8.1-12.2h2.3Zm11.6-.2a7 7 0 0 1 2.8.5c.8.3 1.6 1 2.4 1.8l-1.6 1.5a5.8 5.8 0 0 0-1.7-1.4c-.5-.3-1.1-.4-1.9-.4-1.6 0-2.8.6-3.6 1.8-.7 1-1 2.4-1 4.2 0 1.9.3 3.3 1 4.3.8 1.1 2 1.7 3.6 1.7.8 0 1.4 0 2-.3.5-.3 1-.8 1.6-1.4l1.6 1.5c-.8.8-1.6 1.4-2.4 1.8a7 7 0 0 1-2.8.5c-2 0-3.7-.7-5-2-1.3-1.5-2-3.5-2-6 0-2.7.7-4.7 2-6 1.3-1.4 3-2.1 5-2.1Zm14.2 0c4.2 0 6.3 1.7 6.3 5.2V475h-2.3v-1.5c-.6.6-1.3 1-2 1.3-.6.3-1.5.4-2.5.4-2 0-3.5-.5-4.5-1.4a4.3 4.3 0 0 1-1.2-3.2c0-1.5.5-2.6 1.4-3.4 1-.8 2.3-1.2 4-1.2h4.8v-1.5c0-1.2-.3-2-1-2.6-.6-.6-1.6-.9-3-.9-1 0-1.8.2-2.4.5-.6.2-1.1.7-1.6 1.4l-1.6-1.5c.7-.9 1.4-1.5 2.3-1.8a9 9 0 0 1 3.3-.5Zm4 8.6h-4.4c-2.4 0-3.5 1-3.5 2.8 0 1.8 1.2 2.7 3.6 2.7 1.6 0 2.7-.3 3.5-1 .5-.6.8-1.5.8-2.8v-1.7Zm19.8-8.4V475H101v-7.1h-7.6v7.1h-2.3v-15.7h2.3v6.6h7.6v-6.6h2.3Zm18.1 0V475h-2.3v-12.3l-8 12.3h-2.4v-15.7h2.3v12.2l8.1-12.2h2.3Zm11-.2c2.1 0 3.7.6 4.8 2a8.3 8.3 0 0 1 1.8 5.6v1h-10.7c0 1.8.4 3.1 1.2 4 .8 1 2 1.5 3.5 1.5.9 0 1.6-.2 2.2-.4.6-.3 1.3-.8 1.9-1.4l1.6 1.4c-.9.8-1.7 1.4-2.6 1.8-.8.4-2 .6-3.2.6-2.2 0-3.9-.7-5-2-1.3-1.3-1.9-3.4-1.9-6s.6-4.6 1.8-6a5.8 5.8 0 0 1 4.7-2.1Zm3.8 4.3c-.8-1.6-2-2.4-3.7-2.4-1.7 0-3 .8-3.7 2.4-.2.5-.4 1.4-.5 2.6h8.4c-.1-1.2-.3-2-.5-2.6Zm15-4.1h7.3c1.4 0 2.5.3 3.3 1.1.9.8 1.3 1.7 1.3 3 0 1.7-.8 2.8-2.5 3.4 1.9.7 2.8 2 2.8 3.8 0 1.4-.4 2.5-1.3 3.2-.8.8-2 1.2-3.4 1.2h-7.5v-15.7Zm7 8.5h-4.7v5.2h4.8a3 3 0 0 0 2-.7c.5-.5.8-1 .8-1.9 0-.8-.3-1.4-.8-1.9-.5-.4-1.1-.7-2-.7Zm-.1-6.5h-4.6v4.6h4.6c1.8 0 2.7-.7 2.7-2.3 0-1.5-.9-2.3-2.7-2.3Zm-143 39V516h-2.3v-7.1H5.2v7.1H2.9v-15.7h2.3v6.6h7.6v-6.6h2.3Zm11-.2c2 0 3.6.6 4.8 2a8.3 8.3 0 0 1 1.7 5.6v1H22c0 1.8.4 3.1 1.2 4 .7 1 1.9 1.5 3.4 1.5.9 0 1.7-.2 2.2-.4.7-.3 1.3-.8 2-1.4l1.5 1.4c-.8.8-1.7 1.4-2.6 1.8-.8.4-1.9.6-3.2.6-2.1 0-3.8-.7-5-2-1.2-1.3-1.8-3.4-1.8-6s.5-4.6 1.7-6a5.8 5.8 0 0 1 4.7-2.1Zm3.7 4.3c-.7-1.6-2-2.4-3.7-2.4-1.7 0-2.9.8-3.7 2.4-.2.5-.4 1.4-.4 2.6h8.3c0-1.2-.2-2-.5-2.6Zm13.5-4.3a7 7 0 0 1 2.8.5c.8.3 1.6 1 2.4 1.8l-1.6 1.5a5.8 5.8 0 0 0-1.7-1.4c-.5-.3-1.1-.4-1.9-.4-1.6 0-2.8.6-3.6 1.8-.7 1-1 2.4-1 4.2 0 1.9.3 3.3 1 4.3.8 1.1 2 1.7 3.6 1.7.8 0 1.4 0 2-.3.5-.3 1-.8 1.6-1.4l1.6 1.5c-.8.8-1.6 1.4-2.4 1.8a7 7 0 0 1-2.8.5c-2 0-3.7-.7-5-2-1.3-1.5-2-3.5-2-6 0-2.7.7-4.7 2-6 1.3-1.4 3-2.1 5-2.1Zm21.4.2-7 7.4 7.6 8.3h-3l-7.4-8.2 7-7.5h2.8Zm-9.8 0V516h-2.3v-15.7h2.3Zm14 1.6a6 6 0 0 1 4.5-1.8 6 6 0 0 1 4.5 1.8c1.3 1.2 2 3.3 2 6.2 0 3-.7 5-2 6.3a6 6 0 0 1-4.5 1.8 6 6 0 0 1-4.5-1.8c-1.3-1.3-2-3.4-2-6.3s.7-5 2-6.2Zm4.5.2c-1.1 0-2 .4-2.9 1.2-.8.8-1.2 2.4-1.2 4.8s.4 4 1.2 4.9c.8.8 1.8 1.1 2.9 1.1a4 4 0 0 0 2.9-1.1c.8-.9 1.2-2.5 1.2-4.9 0-2.4-.4-4-1.2-4.8a4 4 0 0 0-3-1.2Zm22-1.8V516H93v-13.7h-5.6v5.4c0 3-.4 5.2-1.3 6.5a4.3 4.3 0 0 1-3.7 1.8h-1v-2h1.4l.8-.6c.4-.2.6-.6.8-1l.6-2.1.2-3.3v-6.7h10Zm7.7 0v6.2h4.8a5 5 0 0 1 3.7 1.3c.9.9 1.3 2 1.3 3.4 0 1.5-.4 2.6-1.3 3.5a5 5 0 0 1-3.7 1.3h-7.1v-15.7h2.3Zm4.5 8.1H103v5.7h4.5c2 0 3-1 3-2.9 0-.9-.2-1.6-.8-2-.5-.5-1.2-.8-2.2-.8Zm21.5-8.1-7 7.4 7.7 8.3h-3l-7.4-8.2 6.9-7.5h2.8Zm-9.8 0V516H117v-15.7h2.3Zm14 1.6a6 6 0 0 1 4.5-1.8 6 6 0 0 1 4.5 1.8c1.3 1.2 2 3.3 2 6.2 0 3-.7 5-2 6.3a6 6 0 0 1-4.5 1.8 6 6 0 0 1-4.5-1.8c-1.3-1.3-2-3.4-2-6.3s.7-5 2-6.2Zm4.5.2c-1.1 0-2 .4-2.8 1.2-.9.8-1.3 2.4-1.3 4.8s.4 4 1.3 4.9c.7.8 1.7 1.1 2.8 1.1a4 4 0 0 0 3-1.1c.7-.9 1.2-2.5 1.2-4.9 0-2.4-.5-4-1.3-4.8a4 4 0 0 0-2.9-1.2Zm24.9-2a7 7 0 0 1 2.8.5c.8.3 1.5 1 2.4 1.8l-1.6 1.5a5.8 5.8 0 0 0-1.7-1.4c-.5-.3-1.2-.4-2-.4-1.5 0-2.7.6-3.6 1.8-.7 1-1 2.4-1 4.2 0 1.9.3 3.3 1 4.3.9 1.1 2 1.7 3.7 1.7.7 0 1.4 0 1.9-.3l1.7-1.4 1.6 1.5c-.9.8-1.6 1.4-2.4 1.8a7 7 0 0 1-2.8.5c-2.1 0-3.8-.7-5-2-1.4-1.5-2-3.5-2-6 0-2.7.6-4.7 2-6 1.2-1.4 2.9-2.1 5-2.1Zm19.6.2v2h-5.2V516h-2.3v-13.7h-5.5v-2h13Zm9.6-.2c1.7 0 3 .4 3.9 1.3 1.3 1.3 2 3.5 2 6.7s-.7 5.4-2 6.7c-1 1-2.2 1.4-3.9 1.4-1.8 0-3.3-.7-4.4-2v8.8h-2.3v-22.7h2.3v1.8c1-1.4 2.6-2 4.4-2Zm-.4 2a4 4 0 0 0-1.8.4l-1.1.8-.7 1.4a11.7 11.7 0 0 0-.4 3.4v1.9l.4 1.6a3.4 3.4 0 0 0 1.9 2.3l1.7.2a4 4 0 0 0 2-.4c.6-.4 1-.8 1.2-1.4a14 14 0 0 0 0-8.3c-.2-.6-.6-1-1.2-1.4a4 4 0 0 0-2-.5Zm11.9-.2a6 6 0 0 1 4.5-1.8 6 6 0 0 1 4.5 1.8c1.3 1.2 2 3.3 2 6.2 0 3-.7 5-2 6.3a6 6 0 0 1-4.5 1.8 6 6 0 0 1-4.5-1.8c-1.3-1.3-2-3.4-2-6.3s.7-5 2-6.2Zm4.5.2c-1.1 0-2 .4-2.8 1.2-.9.8-1.3 2.4-1.3 4.8s.4 4 1.3 4.9c.7.8 1.7 1.1 2.8 1.1a4 4 0 0 0 2.9-1.1c.8-.9 1.2-2.5 1.2-4.9 0-2.4-.4-4-1.2-4.8a4 4 0 0 0-2.9-1.2Zm23.2-1.8-7 7.4 7.6 8.3h-3l-7.4-8.2 7-7.5h2.8Zm-9.8 0V516H219v-15.7h2.3ZM1501.3 387.2V410h-4.5v-18.8h-7.7V410h-4.4v-22.8h16.6Zm20.8 0-8 19c-1.2 2.5-3 3.8-5.2 3.8h-2.7v-4h1.8c.8 0 1.3-.2 1.7-.5.4-.4.7-1 1-1.7l.3-.8-7.3-15.8h4.7l4.8 11 4.3-11h4.6Zm19 0V410h-4.4v-9.5h-7.7v9.5h-4.5v-22.8h4.5v9.3h7.7v-9.3h4.5Zm22.2 0-8 10.7 8.8 12.1h-5.4l-8-12 7.4-10.8h5.2Zm-12.7 0V410h-4.4v-22.8h4.4Zm30.3 0v4h-6V410h-4.4v-18.8h-6v-4h16.4Zm5 18.3v6.3l-4.5 3.5v-9.8h4.5Zm10.9 4.5v-3.7l8.5-10c.8-.9 1.2-1.8 1.2-2.7 0-.8-.2-1.5-.7-2-.5-.6-1.1-.8-2-.8a3 3 0 0 0-2 .7c-.6.4-.8 1.2-.8 2.2h-4.2c0-2 .7-3.7 2-4.9a7 7 0 0 1 5-1.8c2 0 3.7.6 5 1.8 1.3 1.2 1.9 2.8 1.9 4.8 0 1-.2 2-.6 2.6-.3.7-1 1.6-1.9 2.7l-6.3 7.4h8.8v3.7h-13.9Zm23.8.2a8 8 0 0 1-5.2-1.7c-1.4-1.1-2-2.8-2-5h4c.1 1 .4 1.7 1 2.2.6.5 1.3.7 2.2.7a3 3 0 0 0 2.2-.8c.6-.5.9-1.3.9-2.3a3 3 0 0 0-1-2.3c-.5-.6-1.3-.9-2.3-.9h-.6v-3.6h.7c1 0 1.7-.2 2.1-.7a3 3 0 0 0 .7-2.1c0-1-.2-1.7-.8-2.2-.5-.5-1.2-.7-2-.7-.7 0-1.4.2-2 .7-.5.5-.7 1.2-.8 2h-4.1c0-2 .7-3.6 2-4.7 1.3-1.2 3-1.8 5-1.8s3.6.6 5 1.8c1.2 1.3 1.9 2.8 1.9 4.8 0 2.1-.9 3.7-2.6 4.6 2 1 3 2.8 3 5.2 0 2.2-.8 3.9-2.2 5a7.6 7.6 0 0 1-5.1 1.8Zm22.1-.2 10.8-22.8h3.3L1646 410h-3.3Zm3-12.2c-.8.8-2 1.2-3.3 1.2a5 5 0 0 1-3.3-1.2 4 4 0 0 1-1.3-3.2v-3.2a4 4 0 0 1 1.3-3.2 5 5 0 0 1 3.4-1.2c1.3 0 2.4.4 3.2 1.2a4 4 0 0 1 1.4 3.2v3.2a4 4 0 0 1-1.4 3.2Zm-3.3-1.5c1.1 0 1.7-.6 1.7-1.9v-2.8c0-1.2-.6-1.9-1.6-1.9-1.1 0-1.7.7-1.7 1.9v2.8c0 1.3.6 1.9 1.7 1.9Zm17.9 12.7c-.9.8-2 1.2-3.3 1.2a5 5 0 0 1-3.3-1.2 4 4 0 0 1-1.4-3.2v-3.2a4 4 0 0 1 1.4-3.2 5 5 0 0 1 3.3-1.1c1.3 0 2.4.3 3.3 1.1a4 4 0 0 1 1.3 3.2v3.2a4 4 0 0 1-1.3 3.2Zm-5-3.4c0 1.3.6 1.9 1.7 1.9 1 0 1.6-.6 1.6-1.9v-2.8c0-1.2-.5-1.9-1.6-1.9-.5 0-1 .2-1.2.5-.3.3-.5.8-.5 1.4v2.8Z" fill="#000"/>
  <path fill="#953385" d="M1458 396.5h-170v2h170z"/>
  <path d="M1493.4 452a7.7 7.7 0 0 1 7.6 5.6c.2 1.2.4 3.2.4 6a32 32 0 0 1-.4 6 7.7 7.7 0 0 1-7.6 5.6c-2.3 0-4.2-.8-5.7-2.2-1-1-1.6-2.1-1.9-3.3-.2-1.2-.4-3.3-.4-6 0-3 .2-5 .4-6.1.3-1.2.9-2.3 1.9-3.3a7.7 7.7 0 0 1 5.7-2.3Zm4 3.8c-1.1-1-2.4-1.6-4-1.6s-2.9.5-4 1.6a5 5 0 0 0-1.3 2.6l-.2 5.2c0 2.5 0 4.2.3 5.3a5 5 0 0 0 1.3 2.5c1 1 2.3 1.6 3.9 1.6s2.9-.5 4-1.6a5 5 0 0 0 1.3-2.5l.2-5.3c0-2.5 0-4.2-.3-5.2a5 5 0 0 0-1.3-2.6Zm21.2 3.5V475h-2.3v-13.7h-7.6V475h-2.3v-15.7h12.2Zm18.1 0V475h-2.3v-12.3l-8 12.3h-2.4v-15.7h2.3v12.2l8.1-12.2h2.3Zm11.6-.2a7 7 0 0 1 2.8.5c.8.3 1.6 1 2.4 1.8l-1.6 1.5a5.7 5.7 0 0 0-1.7-1.4c-.5-.3-1.1-.4-1.9-.4-1.6 0-2.8.6-3.6 1.8-.7 1-1 2.4-1 4.2 0 1.9.3 3.3 1 4.3.8 1.1 2 1.7 3.6 1.7.8 0 1.4 0 2-.3.5-.3 1-.8 1.6-1.4l1.6 1.5c-.8.8-1.6 1.4-2.4 1.8a7 7 0 0 1-2.8.5c-2 0-3.7-.7-5-2-1.3-1.5-2-3.5-2-6 0-2.7.7-4.7 2-6 1.3-1.4 3-2.1 5-2.1Zm14.2 0c4.2 0 6.3 1.7 6.3 5.2V475h-2.3v-1.5c-.6.6-1.3 1-2 1.3-.6.3-1.5.4-2.5.4-2 0-3.5-.5-4.5-1.4a4.3 4.3 0 0 1-1.2-3.2c0-1.5.5-2.6 1.4-3.4 1-.8 2.3-1.2 4-1.2h4.8v-1.5c0-1.2-.3-2-1-2.6-.6-.6-1.6-.9-3-.9-1 0-1.8.2-2.4.5-.6.2-1.1.7-1.6 1.4l-1.6-1.5c.7-.9 1.4-1.5 2.3-1.8a9 9 0 0 1 3.3-.5Zm4 8.6h-4.4c-2.4 0-3.5 1-3.5 2.8 0 1.8 1.2 2.7 3.6 2.7 1.6 0 2.7-.3 3.5-1 .5-.6.8-1.5.8-2.8v-1.7Zm19.8-8.4V475h-2.3v-7.1h-7.6v7.1h-2.3v-15.7h2.3v6.6h7.6v-6.6h2.3Zm18.2 0V475h-2.4v-12.3l-8 12.3h-2.4v-15.7h2.3v12.2l8.1-12.2h2.4Zm11-.2c2 0 3.6.6 4.7 2a8.3 8.3 0 0 1 1.8 5.6v1h-10.7c0 1.8.4 3.1 1.2 4 .8 1 2 1.5 3.5 1.5.9 0 1.6-.2 2.2-.4.6-.3 1.3-.8 1.9-1.4l1.6 1.4a9 9 0 0 1-2.6 1.8c-.8.4-2 .6-3.2.6-2.2 0-3.9-.7-5-2-1.3-1.3-1.9-3.4-1.9-6s.6-4.6 1.8-6a5.8 5.8 0 0 1 4.7-2.1Zm3.7 4.3c-.8-1.6-2-2.4-3.7-2.4-1.7 0-3 .8-3.7 2.4-.3.5-.4 1.4-.5 2.6h8.4c-.1-1.2-.3-2-.5-2.6Zm15-4.1h7.3c1.4 0 2.5.3 3.3 1.1.9.8 1.3 1.7 1.3 3 0 1.7-.8 2.8-2.5 3.4 1.9.7 2.8 2 2.8 3.8 0 1.4-.4 2.5-1.3 3.2-.8.8-2 1.2-3.4 1.2h-7.5v-15.7Zm7 8.5h-4.7v5.2h4.8a3 3 0 0 0 2-.7c.5-.5.8-1 .8-1.9 0-.8-.3-1.4-.8-1.9-.5-.4-1.1-.7-2-.7Zm-.1-6.5h-4.6v4.6h4.6c1.8 0 2.7-.7 2.7-2.3 0-1.5-.9-2.3-2.7-2.3Zm-143 39V516h-2.3v-7.1h-7.6v7.1h-2.3v-15.7h2.3v6.6h7.6v-6.6h2.3Zm11-.2c2 0 3.6.6 4.8 2a8.3 8.3 0 0 1 1.7 5.6v1H1505c0 1.8.4 3.1 1.2 4 .7 1 1.9 1.5 3.4 1.5.9 0 1.7-.2 2.3-.4.6-.3 1.2-.8 1.8-1.4l1.6 1.4c-.8.8-1.7 1.4-2.6 1.8-.8.4-1.9.6-3.2.6-2.1 0-3.8-.7-5-2-1.2-1.3-1.8-3.4-1.8-6s.5-4.6 1.7-6a5.8 5.8 0 0 1 4.7-2.1Zm3.7 4.3c-.7-1.6-2-2.4-3.7-2.4-1.7 0-2.9.8-3.6 2.4-.3.5-.5 1.4-.5 2.6h8.3c0-1.2-.2-2-.5-2.6Zm13.5-4.3a7 7 0 0 1 2.8.5c.8.3 1.6 1 2.4 1.8l-1.6 1.5a5.9 5.9 0 0 0-1.7-1.4c-.5-.3-1.1-.4-1.9-.4-1.6 0-2.8.6-3.6 1.8-.7 1-1 2.4-1 4.2 0 1.9.3 3.3 1 4.3.8 1.1 2 1.7 3.6 1.7.8 0 1.4 0 2-.3.5-.3 1-.8 1.6-1.4l1.6 1.5c-.8.8-1.6 1.4-2.4 1.8a7 7 0 0 1-2.8.5c-2 0-3.7-.7-5-2-1.3-1.5-2-3.5-2-6 0-2.7.7-4.7 2-6 1.3-1.4 3-2.1 5-2.1Zm21.4.2-7 7.4 7.6 8.3h-3l-7.4-8.2 7-7.5h2.8Zm-9.8 0V516h-2.3v-15.7h2.3Zm14 1.6a6 6 0 0 1 4.5-1.8 6 6 0 0 1 4.5 1.8c1.3 1.2 2 3.3 2 6.2 0 3-.7 5-2 6.3a6 6 0 0 1-4.5 1.8 6 6 0 0 1-4.5-1.8c-1.3-1.3-2-3.4-2-6.3s.7-5 2-6.2Zm4.5.2c-1.1 0-2 .4-2.9 1.2-.8.8-1.2 2.4-1.2 4.8s.4 4 1.2 4.9c.8.8 1.8 1.1 2.9 1.1a4 4 0 0 0 2.9-1.1c.8-.9 1.2-2.5 1.2-4.9 0-2.4-.4-4-1.2-4.8a4 4 0 0 0-3-1.2Zm22-1.8V516h-2.3v-13.7h-5.6v5.4c0 3-.4 5.2-1.3 6.5a4.3 4.3 0 0 1-3.7 1.8h-1v-2h1.3l1-.6c.3-.2.5-.6.7-1l.6-2.1.2-3.3v-6.7h10Zm7.7 0v6.2h4.8a5 5 0 0 1 3.7 1.3c.9.9 1.3 2 1.3 3.4 0 1.5-.4 2.6-1.3 3.5a5 5 0 0 1-3.7 1.3h-7.1v-15.7h2.3Zm4.5 8.1h-4.5v5.7h4.5c2 0 3-1 3-2.9 0-.9-.2-1.6-.8-2-.5-.5-1.2-.8-2.2-.8Zm21.5-8.1-7 7.4 7.7 8.3h-3l-7.5-8.2 7-7.5h2.8Zm-9.8 0V516h-2.3v-15.7h2.3Zm14 1.6a6 6 0 0 1 4.5-1.8 6 6 0 0 1 4.5 1.8c1.3 1.2 2 3.3 2 6.2 0 3-.7 5-2 6.3a6 6 0 0 1-4.5 1.8 6 6 0 0 1-4.5-1.8c-1.3-1.3-2-3.4-2-6.3s.7-5 2-6.2Zm4.5.2c-1.1 0-2 .4-2.8 1.2-.9.8-1.3 2.4-1.3 4.8s.4 4 1.3 4.9c.8.8 1.7 1.1 2.8 1.1a4 4 0 0 0 3-1.1c.7-.9 1.2-2.5 1.2-4.9 0-2.4-.5-4-1.3-4.8a4 4 0 0 0-2.9-1.2Zm24.9-2c1 0 2 .1 2.8.5.8.3 1.5 1 2.3 1.8l-1.5 1.5a5.7 5.7 0 0 0-1.7-1.4c-.5-.3-1.2-.4-2-.4-1.5 0-2.8.6-3.6 1.8-.7 1-1 2.4-1 4.2 0 1.9.3 3.3 1 4.3.8 1.1 2 1.7 3.7 1.7.7 0 1.3 0 1.9-.3l1.7-1.4 1.5 1.5c-.8.8-1.5 1.4-2.3 1.8-.8.3-1.7.5-2.8.5-2.1 0-3.8-.7-5-2-1.4-1.5-2-3.5-2-6 0-2.7.6-4.7 2-6 1.2-1.4 2.9-2.1 5-2.1Zm19.6.2v2h-5.2V516h-2.3v-13.7h-5.5v-2h13Zm9.7-.2c1.6 0 2.9.4 3.8 1.3 1.3 1.3 2 3.5 2 6.7s-.7 5.4-2 6.7c-1 1-2.2 1.4-3.8 1.4-2 0-3.4-.7-4.5-2v8.8h-2.3v-22.7h2.3v1.8c1-1.4 2.6-2 4.5-2Zm-.5 2a4 4 0 0 0-1.8.4 3 3 0 0 0-1.1.8l-.7 1.4a12.4 12.4 0 0 0-.4 3.4v1.9l.4 1.6c.1.5.4 1 .7 1.3l1.1 1 1.8.2a4 4 0 0 0 2-.4c.6-.4 1-.8 1.2-1.4a13.6 13.6 0 0 0 .5-6.4c0-.7-.2-1.3-.5-1.9-.2-.6-.6-1-1.2-1.4a4 4 0 0 0-2-.5Zm11.9-.2a6 6 0 0 1 4.5-1.8 6 6 0 0 1 4.5 1.8c1.3 1.2 2 3.3 2 6.2 0 3-.7 5-2 6.3a6 6 0 0 1-4.5 1.8 6 6 0 0 1-4.5-1.8c-1.3-1.3-2-3.4-2-6.3s.7-5 2-6.2Zm4.5.2c-1.1 0-2 .4-2.8 1.2-.9.8-1.3 2.4-1.3 4.8s.4 4 1.3 4.9c.7.8 1.7 1.1 2.8 1.1 1.2 0 2.1-.3 2.9-1.1.8-.9 1.2-2.5 1.2-4.9 0-2.4-.4-4-1.2-4.8a3.9 3.9 0 0 0-2.9-1.2Zm23.2-1.8-7 7.4 7.6 8.3h-3l-7.4-8.2 7-7.5h2.8Zm-9.8 0V516h-2.3v-15.7h2.3Z" fill="#000"/>
</svg>
