<svg width="152" height="28" viewBox="0 0 152 28" fill="none" xmlns="http://www.w3.org/2000/svg">
<path d="M2.418 4.488L9.62 4.488C11.336 4.488 12.6967 4.94733 13.702 5.866C14.7073 6.76733 15.21 7.998 15.21 9.558C15.21 10.494 14.9587 11.3173 14.456 12.028C13.9707 12.7213 13.39 13.2067 12.714 13.484C13.5113 13.796 14.17 14.316 14.69 15.044C15.2273 15.772 15.496 16.682 15.496 17.774C15.496 19.438 14.9847 20.7293 13.962 21.648C12.9393 22.5493 11.5873 23 9.906 23H2.418L2.418 4.488ZM9.646 14.836L5.226 14.836L5.226 20.478H9.646C10.5993 20.478 11.3447 20.218 11.882 19.698C12.4193 19.178 12.688 18.4933 12.688 17.644C12.688 16.812 12.4193 16.136 11.882 15.616C11.3447 15.096 10.5993 14.836 9.646 14.836ZM9.386 7.01L5.226 7.01L5.226 12.314L9.386 12.314C10.3047 12.314 11.0327 12.0887 11.57 11.638C12.1247 11.17 12.402 10.5113 12.402 9.662C12.402 8.81267 12.1247 8.16267 11.57 7.712C11.0327 7.244 10.3047 7.01 9.386 7.01ZM32.5542 4.488L32.5542 23H29.7462L29.7462 7.01L22.2062 7.01L22.2062 23H19.3982L19.3982 4.488L32.5542 4.488ZM48.9702 4.488V7.01L39.9482 7.01V12.418H47.6442V14.94H39.9482V20.478H48.9702L48.9702 23H37.1402L37.1402 4.488L48.9702 4.488ZM52.5462 4.488L59.5662 4.488C61.3515 4.488 62.7815 5.01667 63.8562 6.074C64.9482 7.13133 65.4942 8.47467 65.4942 10.104C65.4942 11.7333 64.9482 13.0767 63.8562 14.134C62.7815 15.174 61.3515 15.694 59.5662 15.694H55.3542L55.3542 23L52.5462 23L52.5462 4.488ZM59.4102 7.01L55.3542 7.01V13.172H59.4102C60.4155 13.172 61.2129 12.9033 61.8022 12.366C62.3915 11.8287 62.6862 11.0747 62.6862 10.104C62.6862 9.13333 62.3915 8.37933 61.8022 7.842C61.2129 7.28733 60.4155 7.01 59.4102 7.01ZM80.4678 4.488V7.01L71.4458 7.01V12.418L79.1418 12.418V14.94L71.4458 14.94V20.478L80.4678 20.478V23L68.6378 23V4.488L80.4678 4.488ZM96.6798 4.488V20.504H98.8378V27.264H96.1078V23H84.7458V27.264H82.0418V20.504H83.7838C84.5464 18.9613 85.0924 17.2713 85.4218 15.434C85.7684 13.5967 85.9418 11.3087 85.9418 8.57V4.488L96.6798 4.488ZM93.8718 6.984L88.6458 6.984V10.962C88.6458 14.6713 87.9958 17.852 86.6958 20.504H93.8718V6.984Z" fill="black"/>
<path d="M140.127 3.12695L150 12.9999L140.127 22.8728" stroke="black" stroke-width="2" stroke-linecap="square"/>
<path d="M149.524 12.9995L125 13.0001" stroke="black" stroke-width="2" stroke-linecap="square"/>
</svg>
