<svg width="135" height="28" viewBox="0 0 135 28" fill="none" xmlns="http://www.w3.org/2000/svg">
<path d="M66.548 4.488V23H63.74V14.914L56.226 14.914V23H53.418V4.488L56.226 4.488V12.392L63.74 12.392V4.488L66.548 4.488ZM77.9726 4.488L84.7586 23L81.7686 23L80.4946 19.282H73.1886L71.9146 23H68.9246L75.7106 4.488L77.9726 4.488ZM76.8286 8.674L73.9946 16.89H79.6886L76.8286 8.674ZM92.4316 4.332C94.1823 4.332 95.6209 4.79133 96.7476 5.71C97.8743 6.62867 98.4376 7.842 98.4376 9.35C98.4376 11.2567 97.5883 12.6173 95.8896 13.432C97.7789 14.1947 98.7236 15.642 98.7236 17.774C98.7236 19.386 98.1169 20.686 96.9036 21.674C95.7076 22.662 94.1823 23.156 92.3276 23.156C90.6463 23.156 89.2163 22.662 88.0376 21.674C86.8763 20.686 86.1396 19.2993 85.8276 17.514H88.6616C88.8869 18.4847 89.3203 19.256 89.9616 19.828C90.6029 20.4 91.4089 20.686 92.3796 20.686C93.4196 20.686 94.2603 20.4173 94.9016 19.88C95.5603 19.3253 95.8896 18.5887 95.8896 17.67C95.8896 16.6993 95.6036 15.9627 95.0316 15.46C94.4769 14.9573 93.6709 14.706 92.6136 14.706H90.2476V12.366H92.6656C93.6016 12.366 94.3209 12.1233 94.8236 11.638C95.3436 11.1353 95.6036 10.4333 95.6036 9.532C95.6036 8.66533 95.3176 7.98933 94.7456 7.504C94.1736 7.01867 93.3936 6.776 92.4056 6.776C91.4176 6.776 90.6029 7.07067 89.9616 7.66C89.3203 8.232 88.8869 9.00333 88.6616 9.974H85.8276C86.1396 8.18867 86.8849 6.802 88.0636 5.814C89.2596 4.826 90.7156 4.332 92.4316 4.332ZM109.216 4.488L116.002 23H113.012L111.738 19.282L104.432 19.282L103.158 23H100.168L106.954 4.488L109.216 4.488ZM108.072 8.674L105.238 16.89L110.932 16.89L108.072 8.674ZM131.588 4.488V20.504H133.746V27.264H131.016V23L119.654 23V27.264H116.95V20.504H118.692C119.455 18.9613 120.001 17.2713 120.33 15.434C120.677 13.5967 120.85 11.3087 120.85 8.57V4.488L131.588 4.488ZM128.78 6.984L123.554 6.984V10.962C123.554 14.6713 122.904 17.852 121.604 20.504L128.78 20.504V6.984Z" fill="black"/>
<path d="M11.873 2.38867L2.00015 12.2616L11.873 22.1345" stroke="black" stroke-width="2" stroke-linecap="square"/>
<path d="M2.47604 12.2613L26.9997 12.2619" stroke="black" stroke-width="2" stroke-linecap="square"/>
</svg>
