<svg width="103" height="110" viewBox="0 0 103 110" fill="none" xmlns="http://www.w3.org/2000/svg">
<path d="M31.8485 36.9874C28.5246 33.6635 24.0164 31.7962 19.3157 31.7962C14.6151 31.7962 10.1069 33.6635 6.78302 36.9874C3.45914 40.3113 1.5918 44.8195 1.5918 49.5201V90.876C1.5918 95.5767 3.45914 100.085 6.78302 103.409C10.1069 106.733 14.6151 108.6 19.3157 108.6C24.0164 108.6 28.5246 106.733 31.8485 103.409C32.5468 102.71 33.1809 101.96 33.7468 101.166" stroke="black" stroke-width="2"/>
<path d="M32.059 34.5303L32.072 34.6101V34.691V94.1844C32.072 97.7424 33.4855 101.155 36.0013 103.671C38.5172 106.186 41.9295 107.6 45.4875 107.6L87.5523 107.6L87.5564 107.6C89.3228 107.607 91.0732 107.265 92.7072 106.594C94.3412 105.924 95.8266 104.937 97.0782 103.69C98.3298 102.444 99.3229 100.962 100 99.331L100.924 99.7146L100 99.331C100.678 97.6998 101.027 95.9508 101.027 94.1844V46.1525C101.027 44.3939 100.68 42.6525 100.005 41.0285C99.3303 39.4044 98.3416 37.9296 97.0955 36.6886C95.8494 35.4476 94.3705 34.4649 92.7437 33.797C91.1169 33.129 89.3742 32.7888 87.6155 32.7961H87.6114H60.671H59.671V31.7961V10.9454C59.6538 9.0704 59.0503 7.24773 57.9451 5.73286C56.8391 4.21687 55.2861 3.08523 53.5042 2.49678L53.4666 2.48436L53.4301 2.46901C52.5007 2.07812 51.5065 1.86423 50.4987 1.8383C49.1814 1.84437 47.883 2.15189 46.7029 2.73737C45.5278 3.32037 44.5012 4.16351 43.7009 5.20261C37.8202 13.9852 33.8533 23.9072 32.0585 34.3235C32.0477 34.392 32.0479 34.4618 32.059 34.5303Z" stroke="black" stroke-width="2"/>
</svg>
