<svg width="72" height="102" viewBox="0 0 72 102" fill="none" xmlns="http://www.w3.org/2000/svg">
<path fill-rule="evenodd" clip-rule="evenodd" d="M70.2453 93.6414V13.3842C70.2711 10.2774 69.083 7.28738 66.9422 5.072C64.8015 2.85661 61.8835 1.59736 58.8303 1.57129H13.1701C10.1169 1.59736 7.19891 2.85661 5.05816 5.072C2.9174 7.28738 1.72924 10.2774 1.75508 13.3842V93.6414C1.48373 95.9587 2.60185 98.2162 4.59379 99.3728C6.58573 100.529 9.06456 100.36 10.8871 98.9439L32.5757 79.8887C34.5308 78.0931 37.5038 78.0931 39.4589 79.8887L61.1133 98.9497C62.9366 100.367 65.4171 100.536 67.4097 99.3779C69.4022 98.2196 70.5193 95.9597 70.2453 93.6414Z" stroke="black" stroke-width="2" stroke-linecap="round" stroke-linejoin="round"/>
</svg>
