<svg width="130" height="138" viewBox="30 40 105 70" fill="none" xmlns="http://www.w3.org/2000/svg">
<path fill-rule="evenodd" clip-rule="evenodd" d="M121.587 33.4852C121.587 33.4852 127.653 38.5876 129.214 42.1359C131.468 47.2635 126.46 56.2124 126.46 56.2124L114.031 69.5409L68.6027 117.962C67.8178 118.769 66.7895 119.315 65.6645 119.521L43.2275 123.312C40.2786 123.276 37.8514 121.036 37.6641 118.178L39.8147 96.9916C39.9485 95.9112 40.4447 94.9045 41.2269 94.127L84.6921 47.8549L100 31.5384C100 31.5384 108.581 26.1018 113.915 27.8701C117.99 29.2208 121.587 33.4852 121.587 33.4852Z" stroke="black" stroke-width="2" stroke-linecap="round" stroke-linejoin="round"/>
<path d="M91.2734 40.9321C91.2734 40.9321 91.5874 45.1809 92.869 49.8528C93.8709 53.505 95.1465 56.3205 98.2059 59.2059C101.106 61.9413 103.78 63.1642 107.281 63.8823C113.125 65.0808 118.92 64.8006 118.92 64.8006" stroke="black" stroke-width="2"/>
</svg>
