<svg width="95" height="133" viewBox="0 0 95 133" fill="none" xmlns="http://www.w3.org/2000/svg">
<path d="M46.4462 92.1939C46.4462 92.7462 46.8939 93.1939 47.4462 93.1939C47.9985 93.1939 48.4462 92.7462 48.4462 92.1939H46.4462ZM48.4462 79.1946C48.4462 78.6424 47.9985 78.1946 47.4462 78.1946C46.8939 78.1946 46.4462 78.6424 46.4462 79.1946H48.4462ZM72.9717 48.3593C72.9717 48.9116 73.4194 49.3593 73.9717 49.3593C74.524 49.3593 74.9717 48.9116 74.9717 48.3593H72.9717ZM73.9717 28.4983L72.9717 28.4844V28.4983H73.9717ZM47.444 1.19995L47.4587 0.20006C47.4489 0.199915 47.4391 0.199915 47.4293 0.20006L47.444 1.19995ZM20.9163 28.4983H21.9164L21.9162 28.4844L20.9163 28.4983ZM19.9163 48.3593C19.9163 48.9116 20.364 49.3593 20.9163 49.3593C21.4686 49.3593 21.9163 48.9116 21.9163 48.3593H19.9163ZM73.4093 49.1834C73.8659 49.4941 74.4879 49.3759 74.7986 48.9193C75.1093 48.4627 74.9911 47.8407 74.5345 47.53L73.4093 49.1834ZM20.3539 47.53C19.8973 47.8407 19.779 48.4627 20.0898 48.9193C20.4005 49.3759 21.0225 49.4941 21.4791 49.1834L20.3539 47.53ZM74.5353 47.5339C74.079 47.2227 73.4569 47.3402 73.1457 47.7965C72.8344 48.2527 72.952 48.8749 73.4082 49.1861L74.5353 47.5339ZM80.2671 53.5226L79.5673 54.2369L79.5674 54.237L80.2671 53.5226ZM92.9413 76.819L93.9214 76.6204L93.9213 76.6197L92.9413 76.819ZM90.2951 103.105L91.2156 103.496L91.2159 103.495L90.2951 103.105ZM73.1918 123.533L72.6454 122.695L72.6452 122.695L73.1918 123.533ZM14.5746 117.878L13.8775 118.595L13.878 118.595L14.5746 117.878ZM8.84564 60.4214L9.67057 60.9867L9.6718 60.9849L8.84564 60.4214ZM21.4798 49.1769C21.9361 48.8657 22.0537 48.2436 21.7425 47.7873C21.4313 47.331 20.8092 47.2134 20.3529 47.5246L21.4798 49.1769ZM48.4462 92.1939V79.1946H46.4462V92.1939H48.4462ZM74.9717 48.3593V28.4983H72.9717V48.3593H74.9717ZM74.9716 28.5122C75.1859 13.0991 62.8717 0.427131 47.4587 0.20006L47.4293 2.19984C61.7384 2.41065 73.1707 14.1751 72.9718 28.4844L74.9716 28.5122ZM47.4293 0.20006C32.0163 0.427131 19.7021 13.0991 19.9164 28.5122L21.9162 28.4844C21.7173 14.1751 33.1496 2.41065 47.4587 2.19984L47.4293 0.20006ZM19.9163 28.4983V48.3593H21.9163V28.4983H19.9163ZM74.5345 47.53C58.1875 36.4049 36.7008 36.4049 20.3539 47.53L21.4791 49.1834C37.1471 38.5205 57.7413 38.5205 73.4093 49.1834L74.5345 47.53ZM73.4082 49.1861C75.6059 50.6852 77.6669 52.3754 79.5673 54.2369L80.9669 52.8082C78.9823 50.8643 76.8301 49.0994 74.5353 47.5339L73.4082 49.1861ZM79.5674 54.237C85.8828 60.4214 90.1999 68.3565 91.9614 77.0183L93.9213 76.6197C92.0801 67.5661 87.5678 59.2721 80.9668 52.8081L79.5674 54.237ZM91.9613 77.0177C93.7107 85.6484 92.8089 94.6065 89.3743 102.715L91.2159 103.495C94.8079 95.015 95.751 85.6465 93.9214 76.6204L91.9613 77.0177ZM89.3745 102.715C85.9058 110.888 80.082 117.844 72.6454 122.695L73.7382 124.37C81.5074 119.302 87.5917 112.035 91.2156 103.496L89.3745 102.715ZM72.6452 122.695C54.578 134.489 30.7508 132.19 15.2712 117.161L13.878 118.595C30.0285 134.276 54.8882 136.675 73.7384 124.37L72.6452 122.695ZM15.2717 117.161C-0.0186785 102.295 -2.3834 78.579 9.67057 60.9867L8.0207 59.8562C-4.58355 78.2516 -2.11087 103.051 13.8775 118.595L15.2717 117.161ZM9.6718 60.9849C12.8356 56.3458 16.8407 52.3407 21.4798 49.1769L20.3529 47.5246C15.5074 50.8291 11.324 55.0125 8.01947 59.858L9.6718 60.9849Z" fill="black"/>
</svg>
