<svg width="95" height="132" viewBox="0 0 95 132" fill="none" xmlns="http://www.w3.org/2000/svg">
<circle cx="46.9334" cy="85.0667" r="45.9334" fill="#ED7A33"/>
<path d="M46.3096 91.6768C46.3096 92.2291 46.7573 92.6768 47.3096 92.6768C47.8619 92.6768 48.3096 92.2291 48.3096 91.6768H46.3096ZM48.3096 78.7229C48.3096 78.1706 47.8619 77.7229 47.3096 77.7229C46.7573 77.7229 46.3096 78.1706 46.3096 78.7229H48.3096ZM72.7449 47.9948C72.7449 48.5471 73.1926 48.9948 73.7449 48.9948C74.2971 48.9948 74.7449 48.5471 74.7449 47.9948H72.7449ZM73.7449 28.2032L72.7449 28.1893V28.2032H73.7449ZM47.3097 1L47.3244 0.00010848C47.3146 -3.61204e-05 47.3048 -3.61204e-05 47.295 0.00010848L47.3097 1ZM20.8745 28.2032H21.8746L21.8744 28.1893L20.8745 28.2032ZM19.8745 47.9948C19.8745 48.5471 20.3222 48.9948 20.8745 48.9948C21.4268 48.9948 21.8745 48.5471 21.8745 47.9948H19.8745ZM73.1834 48.8204C73.64 49.1311 74.262 49.0129 74.5727 48.5563C74.8835 48.0997 74.7652 47.4777 74.3086 47.167L73.1834 48.8204ZM20.313 47.167C19.8564 47.4777 19.7382 48.0997 20.0489 48.5563C20.3597 49.0129 20.9817 49.1311 21.4383 48.8204L20.313 47.167ZM74.3081 47.1682C73.8519 46.857 73.2297 46.9745 72.9185 47.4308C72.6073 47.887 72.7248 48.5092 73.1811 48.8204L74.3081 47.1682ZM80.018 53.1389L79.3182 53.8532L79.3183 53.8533L80.018 53.1389ZM92.648 76.3541L93.6281 76.1554L93.6279 76.1548L92.648 76.3541ZM90.011 102.549L90.9315 102.939L90.9318 102.939L90.011 102.549ZM72.9673 122.905L72.421 122.067L72.4207 122.067L72.9673 122.905ZM14.5546 117.27L13.8575 117.987L13.858 117.987L14.5546 117.27ZM8.84562 60.0137L9.67055 60.5789L9.67178 60.5771L8.84562 60.0137ZM21.4377 48.8112C21.8939 48.5 22.0116 47.8779 21.7004 47.4216C21.3892 46.9654 20.7671 46.8477 20.3108 47.1589L21.4377 48.8112ZM48.3096 91.6768V78.7229H46.3096V91.6768H48.3096ZM74.7449 47.9948V28.2032H72.7449V47.9948H74.7449ZM74.7448 28.2171C74.9583 12.8558 62.6855 0.226416 47.3244 0.00010848L47.295 1.99989C61.5522 2.20994 72.9432 13.9318 72.745 28.1893L74.7448 28.2171ZM47.295 0.00010848C31.9339 0.226416 19.661 12.8558 19.8746 28.2171L21.8744 28.1893C21.6762 13.9318 33.0671 2.20994 47.3244 1.99989L47.295 0.00010848ZM19.8745 28.2032V47.9948H21.8745V28.2032H19.8745ZM74.3086 47.167C58.0175 36.08 36.6042 36.08 20.313 47.167L21.4383 48.8204C37.0504 38.1955 57.5712 38.1955 73.1834 48.8204L74.3086 47.167ZM73.1811 48.8204C75.3708 50.3142 77.4245 51.9983 79.3182 53.8532L80.7177 52.4245C78.74 50.4872 76.5951 48.7283 74.3081 47.1682L73.1811 48.8204ZM79.3183 53.8533C85.6112 60.0156 89.9128 67.9224 91.6681 76.5534L93.6279 76.1548C91.793 67.1321 87.2961 58.8664 80.7176 52.4244L79.3183 53.8533ZM91.6679 76.5527C93.4112 85.1527 92.5126 94.0787 89.0902 102.159L90.9318 102.939C94.5115 94.4873 95.4515 85.1508 93.6281 76.1554L91.6679 76.5527ZM89.0904 102.158C85.6341 110.302 79.8311 117.233 72.421 122.067L73.5137 123.742C81.2565 118.691 87.32 111.449 90.9315 102.939L89.0904 102.158ZM72.4207 122.067C54.4179 133.819 30.6757 131.528 15.2512 116.552L13.858 117.987C29.9533 133.615 54.7282 136.005 73.514 123.742L72.4207 122.067ZM15.2517 116.553C0.0158666 101.74 -2.34042 78.1084 9.67055 60.5789L8.02068 59.4484C-4.54057 77.7811 -2.07633 102.495 13.8575 117.987L15.2517 116.553ZM9.67178 60.5771C12.8243 55.9546 16.8151 51.9637 21.4377 48.8112L20.3108 47.1589C15.4818 50.4522 11.3127 54.6213 8.01945 59.4502L9.67178 60.5771Z" fill="black"/>
</svg>
