<svg width="106" height="23" viewBox="0 0 106 23" fill="none" xmlns="http://www.w3.org/2000/svg">
<path d="M13.639 4.624L13.639 21H11.891L11.891 13.525L4.117 13.525L4.117 21H2.369L2.369 4.624L4.117 4.624L4.117 11.961L11.891 11.961L11.891 4.624H13.639ZM23.5586 4.624L29.5616 21H27.6986L26.3876 17.297H19.2346L17.9236 21H16.0606L22.0866 4.624H23.5586ZM22.8226 7.108L19.7636 15.779H25.8586L22.8226 7.108ZM31.9842 4.624L38.1482 4.624C39.5895 4.624 40.7549 5.015 41.6442 5.797C42.5335 6.579 42.9782 7.64467 42.9782 8.994C42.9782 9.83733 42.7482 10.581 42.2882 11.225C41.8435 11.869 41.2685 12.3213 40.5632 12.582C41.3759 12.8733 42.0199 13.3563 42.4952 14.031C42.9859 14.7057 43.2312 15.5183 43.2312 16.469C43.2312 17.9257 42.7865 19.045 41.8972 19.827C41.0232 20.609 39.8425 21 38.3552 21L31.9842 21L31.9842 4.624ZM38.1942 13.433H33.7322V19.436H38.1942C39.2062 19.436 40.0035 19.1677 40.5862 18.631C41.1842 18.079 41.4832 17.343 41.4832 16.423C41.4832 15.503 41.1842 14.7747 40.5862 14.238C40.0035 13.7013 39.2062 13.433 38.1942 13.433ZM38.0102 6.188L33.7322 6.188V11.869H38.0102C38.9609 11.869 39.7352 11.6313 40.3332 11.156C40.9312 10.6653 41.2302 9.95233 41.2302 9.017C41.2302 8.08167 40.9312 7.37633 40.3332 6.901C39.7505 6.42567 38.9762 6.188 38.0102 6.188ZM57.2835 4.624V6.188L48.8655 6.188V11.961L56.0415 11.961V13.525L48.8655 13.525V19.436L57.2835 19.436V21L47.1175 21V4.624L57.2835 4.624ZM60.6785 4.624L66.7735 4.624C68.2762 4.624 69.4952 5.06867 70.4305 5.958C71.3658 6.832 71.8335 7.98967 71.8335 9.431C71.8335 10.8877 71.3582 12.0607 70.4075 12.95C69.4722 13.824 68.2608 14.261 66.7735 14.261H62.4265V21H60.6785V4.624ZM66.6355 6.188L62.4265 6.188V12.697H66.6355C67.6935 12.697 68.5292 12.421 69.1425 11.869C69.7712 11.3017 70.0855 10.489 70.0855 9.431C70.0855 8.373 69.7712 7.568 69.1425 7.016C68.5292 6.464 67.6935 6.188 66.6355 6.188ZM84.2803 4.624L79.5653 12.605L84.6253 21H82.6013L78.6223 14.123L74.6203 21H72.6423L77.6563 12.605L72.9643 4.624L74.9883 4.624L78.6223 11.087L82.2563 4.624H84.2803Z" fill="#242121"/>
<path d="M91.0616 10.6353L97.5 4.19691L103.938 10.6353" stroke="black" stroke-width="1.5" stroke-linecap="square"/>
<path d="M97.4997 4.50757L97.5001 20.5" stroke="black" stroke-width="1.5" stroke-linecap="square"/>
</svg>
