<svg width="1480" height="567" viewBox="0 0 1480 567" fill="none" xmlns="http://www.w3.org/2000/svg">
<path d="M172 0L172 490" stroke="black" stroke-width="2"/>
<path d="M12.46 77.64C13.7933 77.64 14.9067 78.0267 15.8 78.8C16.7067 79.56 17.2867 80.6333 17.54 82.02H15.34C15.18 81.2733 14.8533 80.68 14.36 80.24C13.8667 79.8 13.2333 79.58 12.46 79.58C11.5933 79.58 10.8933 79.8667 10.36 80.44C10 80.8133 9.76667 81.2933 9.66 81.88C9.55333 82.4533 9.5 83.4533 9.5 84.88C9.5 86.3067 9.55333 87.3133 9.66 87.9C9.76667 88.4733 10 88.9467 10.36 89.32C10.8933 89.8933 11.5933 90.18 12.46 90.18C13.2333 90.18 13.8667 89.96 14.36 89.52C14.8533 89.08 15.18 88.4867 15.34 87.74H17.54C17.3 89.1267 16.72 90.2067 15.8 90.98C14.8933 91.74 13.78 92.12 12.46 92.12C10.9667 92.12 9.74 91.64 8.78 90.68C8.14 90.0267 7.74 89.32 7.58 88.56C7.42 87.7867 7.34 86.56 7.34 84.88C7.34 83.2 7.42 81.98 7.58 81.22C7.74 80.4467 8.14 79.7333 8.78 79.08C9.74 78.12 10.9667 77.64 12.46 77.64ZM30.3786 77.76L24.7586 84.48L30.8786 92H28.1986L22.3986 84.56L27.7786 77.76H30.3786ZM22.3786 77.76V92H20.2186V77.76H22.3786ZM32.46 77.76H37.86C39.2333 77.76 40.3333 78.1667 41.16 78.98C42 79.7933 42.42 80.8267 42.42 82.08C42.42 83.3333 42 84.3667 41.16 85.18C40.3333 85.98 39.2333 86.38 37.86 86.38H34.62V92H32.46V77.76ZM37.74 79.7H34.62V84.44H37.74C38.5133 84.44 39.1267 84.2333 39.58 83.82C40.0333 83.4067 40.26 82.8267 40.26 82.08C40.26 81.3333 40.0333 80.7533 39.58 80.34C39.1267 79.9133 38.5133 79.7 37.74 79.7ZM55.3381 77.76V92H53.1781V81.66L46.7981 92H44.8381V77.76H46.9981V88.08L53.3581 77.76H55.3381ZM68.9569 77.76V92H66.7969V85.78H61.0169V92H58.8569V77.76H61.0169V83.84H66.7969V77.76H68.9569ZM82.985 77.76V92H80.825V81.66L74.445 92H72.485V77.76H74.645V88.08L81.005 77.76H82.985ZM96.6038 77.76V92H94.4438V85.78H88.6638V92H86.5038V77.76H88.6638V83.84H94.4438V77.76H96.6038ZM108.892 77.76V79.7H102.292V92H100.132V77.76H108.892Z" fill="black"/>
<path d="M162 85L172 89.7735V78.2265L162 83V85ZM110 85H163V83H110V85Z" fill="black"/>
<rect x="173" y="24" width="1238" height="120" fill="#335CED"/>
<path d="M5.2 236.14C3.97333 236.14 2.94667 235.807 2.12 235.14C1.30667 234.46 0.88 233.46 0.84 232.14H2.88C2.92 232.86 3.15333 233.4 3.58 233.76C4.02 234.12 4.56 234.3 5.2 234.3C5.88 234.3 6.43333 234.093 6.86 233.68C7.3 233.253 7.52 232.673 7.52 231.94C7.52 231.207 7.32 230.633 6.92 230.22C6.52 229.807 5.92667 229.6 5.14 229.6H4.8V227.82H5.14C5.86 227.82 6.4 227.633 6.76 227.26C7.12 226.873 7.3 226.347 7.3 225.68C7.3 224.987 7.1 224.447 6.7 224.06C6.3 223.673 5.8 223.48 5.2 223.48C4.58667 223.48 4.08667 223.667 3.7 224.04C3.32667 224.4 3.11333 224.893 3.06 225.52H1.02C1.07333 224.333 1.49333 223.393 2.28 222.7C3.06667 221.993 4.04 221.64 5.2 221.64C6.41333 221.64 7.40667 222.013 8.18 222.76C8.95333 223.493 9.34 224.447 9.34 225.62C9.34 227.047 8.74667 228.053 7.56 228.64C8.89333 229.227 9.56 230.347 9.56 232C9.56 233.32 9.14667 234.34 8.32 235.06C7.49333 235.78 6.45333 236.14 5.2 236.14ZM15.7841 236.12C14.6241 236.12 13.6507 235.753 12.8641 235.02C12.0774 234.273 11.6841 233.28 11.6841 232.04V225.72C11.6841 224.48 12.0774 223.493 12.8641 222.76C13.6507 222.013 14.6241 221.64 15.7841 221.64C16.9574 221.64 17.9374 222.013 18.7241 222.76C19.5107 223.493 19.9041 224.48 19.9041 225.72V232.04C19.9041 233.28 19.5107 234.273 18.7241 235.02C17.9374 235.753 16.9574 236.12 15.7841 236.12ZM15.7841 234.3C16.4241 234.3 16.9307 234.087 17.3041 233.66C17.6774 233.233 17.8641 232.673 17.8641 231.98V225.78C17.8641 225.087 17.6774 224.527 17.3041 224.1C16.9307 223.673 16.4241 223.46 15.7841 223.46C15.1574 223.46 14.6574 223.673 14.2841 224.1C13.9107 224.527 13.7241 225.087 13.7241 225.78V231.98C13.7241 232.673 13.9107 233.233 14.2841 233.66C14.6574 234.087 15.1574 234.3 15.7841 234.3ZM37.4881 221.76V236H35.3281V221.76H37.4881ZM24.9481 221.76V227.36H28.2481C29.5948 227.36 30.6815 227.76 31.5081 228.56C32.3348 229.36 32.7481 230.4 32.7481 231.68C32.7481 232.96 32.3281 234 31.4881 234.8C30.6615 235.6 29.5815 236 28.2481 236H22.7881V221.76H24.9481ZM28.0681 229.3H24.9481V234.06H28.0681C28.8548 234.06 29.4681 233.853 29.9081 233.44C30.3615 233.013 30.5881 232.427 30.5881 231.68C30.5881 230.947 30.3615 230.367 29.9081 229.94C29.4681 229.513 28.8548 229.3 28.0681 229.3ZM51.5061 221.76V236H49.3461V225.66L42.9661 236H41.0061V221.76H43.1661V232.08L49.5261 221.76H51.5061ZM48.1261 217.42H49.5661C49.5128 218.393 49.1928 219.12 48.6061 219.6C48.0328 220.08 47.2594 220.32 46.2861 220.32C45.2994 220.32 44.5128 220.08 43.9261 219.6C43.3528 219.12 43.0394 218.393 42.9861 217.42H44.4261C44.4794 217.873 44.6728 218.22 45.0061 218.46C45.3394 218.7 45.7661 218.82 46.2861 218.82C46.7261 218.82 47.1261 218.707 47.4861 218.48C47.8594 218.24 48.0728 217.887 48.1261 217.42ZM69.3495 221.76V234.08H71.0095V239.28H68.9095V236H60.1695V239.28H58.0895V234.08H59.4295C60.0162 232.893 60.4362 231.593 60.6895 230.18C60.9562 228.767 61.0895 227.007 61.0895 224.9V221.76H69.3495ZM67.1895 223.68H63.1695V226.74C63.1695 229.593 62.6695 232.04 61.6695 234.08H67.1895V223.68ZM82.6702 221.76V223.7H75.7302V227.86H81.6502V229.8H75.7302V234.06H82.6702V236H73.5702V221.76H82.6702ZM95.5209 221.76V236H93.3609V229.78H87.5809V236H85.4209V221.76H87.5809V227.84H93.3609V221.76H95.5209ZM101.209 221.76V227.36H104.509C105.856 227.36 106.942 227.76 107.769 228.56C108.596 229.36 109.009 230.4 109.009 231.68C109.009 232.96 108.589 234 107.749 234.8C106.922 235.6 105.842 236 104.509 236H99.0491V221.76H101.209ZM104.329 229.3H101.209V234.06H104.329C105.116 234.06 105.729 233.853 106.169 233.44C106.622 233.013 106.849 232.427 106.849 231.68C106.849 230.947 106.622 230.367 106.169 229.94C105.729 229.513 105.116 229.3 104.329 229.3Z" fill="black"/>
<path d="M162 229L172 233.774V222.226L162 227V229ZM110 229H163V227H110V229Z" fill="black"/>
<rect x="173" y="168" width="849" height="120" fill="#2848BA"/>
<path d="M5.2 380.14C3.97333 380.14 2.94667 379.807 2.12 379.14C1.30667 378.46 0.88 377.46 0.84 376.14H2.88C2.92 376.86 3.15333 377.4 3.58 377.76C4.02 378.12 4.56 378.3 5.2 378.3C5.88 378.3 6.43333 378.093 6.86 377.68C7.3 377.253 7.52 376.673 7.52 375.94C7.52 375.207 7.32 374.633 6.92 374.22C6.52 373.807 5.92667 373.6 5.14 373.6H4.8V371.82H5.14C5.86 371.82 6.4 371.633 6.76 371.26C7.12 370.873 7.3 370.347 7.3 369.68C7.3 368.987 7.1 368.447 6.7 368.06C6.3 367.673 5.8 367.48 5.2 367.48C4.58667 367.48 4.08667 367.667 3.7 368.04C3.32667 368.4 3.11333 368.893 3.06 369.52H1.02C1.07333 368.333 1.49333 367.393 2.28 366.7C3.06667 365.993 4.04 365.64 5.2 365.64C6.41333 365.64 7.40667 366.013 8.18 366.76C8.95333 367.493 9.34 368.447 9.34 369.62C9.34 371.047 8.74667 372.053 7.56 372.64C8.89333 373.227 9.56 374.347 9.56 376C9.56 377.32 9.14667 378.34 8.32 379.06C7.49333 379.78 6.45333 380.14 5.2 380.14ZM15.7841 380.12C14.6241 380.12 13.6507 379.753 12.8641 379.02C12.0774 378.273 11.6841 377.28 11.6841 376.04V369.72C11.6841 368.48 12.0774 367.493 12.8641 366.76C13.6507 366.013 14.6241 365.64 15.7841 365.64C16.9574 365.64 17.9374 366.013 18.7241 366.76C19.5107 367.493 19.9041 368.48 19.9041 369.72V376.04C19.9041 377.28 19.5107 378.273 18.7241 379.02C17.9374 379.753 16.9574 380.12 15.7841 380.12ZM15.7841 378.3C16.4241 378.3 16.9307 378.087 17.3041 377.66C17.6774 377.233 17.8641 376.673 17.8641 375.98V369.78C17.8641 369.087 17.6774 368.527 17.3041 368.1C16.9307 367.673 16.4241 367.46 15.7841 367.46C15.1574 367.46 14.6574 367.673 14.2841 368.1C13.9107 368.527 13.7241 369.087 13.7241 369.78V375.98C13.7241 376.673 13.9107 377.233 14.2841 377.66C14.6574 378.087 15.1574 378.3 15.7841 378.3ZM37.4881 365.76V380H35.3281V365.76H37.4881ZM24.9481 365.76V371.36H28.2481C29.5948 371.36 30.6815 371.76 31.5081 372.56C32.3348 373.36 32.7481 374.4 32.7481 375.68C32.7481 376.96 32.3281 378 31.4881 378.8C30.6615 379.6 29.5815 380 28.2481 380H22.7881V365.76H24.9481ZM28.0681 373.3H24.9481V378.06H28.0681C28.8548 378.06 29.4681 377.853 29.9081 377.44C30.3615 377.013 30.5881 376.427 30.5881 375.68C30.5881 374.947 30.3615 374.367 29.9081 373.94C29.4681 373.513 28.8548 373.3 28.0681 373.3ZM51.5061 365.76V380H49.3461V369.66L42.9661 380H41.0061V365.76H43.1661V376.08L49.5261 365.76H51.5061ZM48.1261 361.42H49.5661C49.5128 362.393 49.1928 363.12 48.6061 363.6C48.0328 364.08 47.2594 364.32 46.2861 364.32C45.2994 364.32 44.5128 364.08 43.9261 363.6C43.3528 363.12 43.0394 362.393 42.9861 361.42H44.4261C44.4794 361.873 44.6728 362.22 45.0061 362.46C45.3394 362.7 45.7661 362.82 46.2861 362.82C46.7261 362.82 47.1261 362.707 47.4861 362.48C47.8594 362.24 48.0728 361.887 48.1261 361.42ZM69.3495 365.76V378.08H71.0095V383.28H68.9095V380H60.1695V383.28H58.0895V378.08H59.4295C60.0162 376.893 60.4362 375.593 60.6895 374.18C60.9562 372.767 61.0895 371.007 61.0895 368.9V365.76H69.3495ZM67.1895 367.68H63.1695V370.74C63.1695 373.593 62.6695 376.04 61.6695 378.08H67.1895V367.68ZM82.6702 365.76V367.7H75.7302V371.86H81.6502V373.8H75.7302V378.06H82.6702V380H73.5702V365.76H82.6702ZM95.5209 365.76V380H93.3609V373.78H87.5809V380H85.4209V365.76H87.5809V371.84H93.3609V365.76H95.5209ZM101.209 365.76V371.36H104.509C105.856 371.36 106.942 371.76 107.769 372.56C108.596 373.36 109.009 374.4 109.009 375.68C109.009 376.96 108.589 378 107.749 378.8C106.922 379.6 105.842 380 104.509 380H99.0491V365.76H101.209ZM104.329 373.3H101.209V378.06H104.329C105.116 378.06 105.729 377.853 106.169 377.44C106.622 377.013 106.849 376.427 106.849 375.68C106.849 374.947 106.622 374.367 106.169 373.94C105.729 373.513 105.116 373.3 104.329 373.3Z" fill="black"/>
<path d="M162 373L172 377.774V366.226L162 371V373ZM110 373H163V371H110V373Z" fill="black"/>
<rect x="173" y="312" width="598" height="120" fill="#1D3487"/>
<path d="M171 490L1480 490" stroke="black" stroke-width="2"/>
<path d="M183 501L187.774 491L176.226 491L181 501L183 501ZM183 515L183 500L181 500L181 515L183 515Z" fill="black"/>
<path d="M172.26 536V534.18L177.74 527.52C178.247 526.907 178.5 526.273 178.5 525.62C178.5 524.967 178.313 524.447 177.94 524.06C177.58 523.66 177.073 523.46 176.42 523.46C175.82 523.46 175.32 523.64 174.92 524C174.52 524.36 174.32 524.913 174.32 525.66H172.28C172.28 524.46 172.667 523.493 173.44 522.76C174.213 522.013 175.207 521.64 176.42 521.64C177.647 521.64 178.64 522.007 179.4 522.74C180.16 523.46 180.54 524.427 180.54 525.64C180.54 526.227 180.433 526.74 180.22 527.18C180.02 527.607 179.68 528.12 179.2 528.72L174.74 534.18H180.54V536H172.26ZM186.784 536.12C185.624 536.12 184.651 535.753 183.864 535.02C183.077 534.273 182.684 533.28 182.684 532.04V525.72C182.684 524.48 183.077 523.493 183.864 522.76C184.651 522.013 185.624 521.64 186.784 521.64C187.957 521.64 188.937 522.013 189.724 522.76C190.511 523.493 190.904 524.48 190.904 525.72V532.04C190.904 533.28 190.511 534.273 189.724 535.02C188.937 535.753 187.957 536.12 186.784 536.12ZM186.784 534.3C187.424 534.3 187.931 534.087 188.304 533.66C188.677 533.233 188.864 532.673 188.864 531.98V525.78C188.864 525.087 188.677 524.527 188.304 524.1C187.931 523.673 187.424 523.46 186.784 523.46C186.157 523.46 185.657 523.673 185.284 524.1C184.911 524.527 184.724 525.087 184.724 525.78V531.98C184.724 532.673 184.911 533.233 185.284 533.66C185.657 534.087 186.157 534.3 186.784 534.3Z" fill="black"/>
<path d="M490 501L494.774 491L483.226 491L488 501L490 501ZM490 515L490 500L488 500L488 515L490 515Z" fill="#57B85F"/>
<path d="M479.26 536V534.18L484.74 527.52C485.247 526.907 485.5 526.273 485.5 525.62C485.5 524.967 485.313 524.447 484.94 524.06C484.58 523.66 484.073 523.46 483.42 523.46C482.82 523.46 482.32 523.64 481.92 524C481.52 524.36 481.32 524.913 481.32 525.66H479.28C479.28 524.46 479.667 523.493 480.44 522.76C481.213 522.013 482.207 521.64 483.42 521.64C484.647 521.64 485.64 522.007 486.4 522.74C487.16 523.46 487.54 524.427 487.54 525.64C487.54 526.227 487.433 526.74 487.22 527.18C487.02 527.607 486.68 528.12 486.2 528.72L481.74 534.18H487.54V536H479.26ZM493.784 536.12C492.624 536.12 491.651 535.753 490.864 535.02C490.077 534.273 489.684 533.28 489.684 532.04V525.72C489.684 524.48 490.077 523.493 490.864 522.76C491.651 522.013 492.624 521.64 493.784 521.64C494.957 521.64 495.937 522.013 496.724 522.76C497.511 523.493 497.904 524.48 497.904 525.72V532.04C497.904 533.28 497.511 534.273 496.724 535.02C495.937 535.753 494.957 536.12 493.784 536.12ZM493.784 534.3C494.424 534.3 494.931 534.087 495.304 533.66C495.677 533.233 495.864 532.673 495.864 531.98V525.78C495.864 525.087 495.677 524.527 495.304 524.1C494.931 523.673 494.424 523.46 493.784 523.46C493.157 523.46 492.657 523.673 492.284 524.1C491.911 524.527 491.724 525.087 491.724 525.78V531.98C491.724 532.673 491.911 533.233 492.284 533.66C492.657 534.087 493.157 534.3 493.784 534.3Z" fill="#57B85F"/>
<path d="M466.96 547.76V562H464.8V555.78H459.02V562H456.86V547.76H459.02V553.84H464.8V547.76H466.96ZM471.408 549.08C472.368 548.12 473.595 547.64 475.088 547.64C476.581 547.64 477.808 548.12 478.768 549.08C479.421 549.733 479.821 550.44 479.968 551.2C480.128 551.96 480.208 553.187 480.208 554.88C480.208 556.573 480.128 557.8 479.968 558.56C479.821 559.32 479.421 560.027 478.768 560.68C477.808 561.64 476.581 562.12 475.088 562.12C473.595 562.12 472.368 561.64 471.408 560.68C470.755 560.027 470.348 559.32 470.188 558.56C470.041 557.8 469.968 556.573 469.968 554.88C469.968 553.187 470.041 551.96 470.188 551.2C470.348 550.44 470.755 549.733 471.408 549.08ZM477.208 550.44C476.661 549.867 475.955 549.58 475.088 549.58C474.221 549.58 473.515 549.867 472.968 550.44C472.621 550.813 472.395 551.293 472.288 551.88C472.181 552.453 472.128 553.453 472.128 554.88C472.128 556.307 472.181 557.307 472.288 557.88C472.395 558.453 472.621 558.927 472.968 559.3C473.528 559.887 474.235 560.18 475.088 560.18C475.941 560.18 476.648 559.887 477.208 559.3C477.555 558.94 477.781 558.473 477.888 557.9C477.995 557.327 478.048 556.32 478.048 554.88C478.048 553.44 477.995 552.433 477.888 551.86C477.781 551.273 477.555 550.8 477.208 550.44ZM483.218 547.76H488.618C489.991 547.76 491.091 548.167 491.918 548.98C492.758 549.793 493.178 550.827 493.178 552.08C493.178 553.333 492.758 554.367 491.918 555.18C491.091 555.98 489.991 556.38 488.618 556.38H485.378V562H483.218V547.76ZM488.498 549.7H485.378V554.44H488.498C489.271 554.44 489.884 554.233 490.338 553.82C490.791 553.407 491.018 552.827 491.018 552.08C491.018 551.333 490.791 550.753 490.338 550.34C489.884 549.913 489.271 549.7 488.498 549.7ZM508.156 547.76V562H505.996V552.48L502.716 559.42H501.116L497.756 552.48V562H495.596V547.76H497.756L501.916 556.62L505.996 547.76H508.156ZM516.945 547.76L522.165 562H519.865L518.885 559.14H513.265L512.285 562H509.985L515.205 547.76H516.945ZM516.065 550.98L513.885 557.3H518.265L516.065 550.98Z" fill="#57B85F"/>
<path d="M797 501L801.774 491L790.226 491L795 501L797 501ZM797 515L797 500L795 500L795 515L797 515Z" fill="black"/>
<path d="M786.26 536V534.18L791.74 527.52C792.247 526.907 792.5 526.273 792.5 525.62C792.5 524.967 792.313 524.447 791.94 524.06C791.58 523.66 791.073 523.46 790.42 523.46C789.82 523.46 789.32 523.64 788.92 524C788.52 524.36 788.32 524.913 788.32 525.66H786.28C786.28 524.46 786.667 523.493 787.44 522.76C788.213 522.013 789.207 521.64 790.42 521.64C791.647 521.64 792.64 522.007 793.4 522.74C794.16 523.46 794.54 524.427 794.54 525.64C794.54 526.227 794.433 526.74 794.22 527.18C794.02 527.607 793.68 528.12 793.2 528.72L788.74 534.18H794.54V536H786.26ZM800.784 536.12C799.624 536.12 798.651 535.753 797.864 535.02C797.077 534.273 796.684 533.28 796.684 532.04V525.72C796.684 524.48 797.077 523.493 797.864 522.76C798.651 522.013 799.624 521.64 800.784 521.64C801.957 521.64 802.937 522.013 803.724 522.76C804.511 523.493 804.904 524.48 804.904 525.72V532.04C804.904 533.28 804.511 534.273 803.724 535.02C802.937 535.753 801.957 536.12 800.784 536.12ZM800.784 534.3C801.424 534.3 801.931 534.087 802.304 533.66C802.677 533.233 802.864 532.673 802.864 531.98V525.78C802.864 525.087 802.677 524.527 802.304 524.1C801.931 523.673 801.424 523.46 800.784 523.46C800.157 523.46 799.657 523.673 799.284 524.1C798.911 524.527 798.724 525.087 798.724 525.78V531.98C798.724 532.673 798.911 533.233 799.284 533.66C799.657 534.087 800.157 534.3 800.784 534.3Z" fill="black"/>
<path d="M1081 501L1085.77 491L1074.23 491L1079 501L1081 501ZM1081 515L1081 500L1079 500L1079 515L1081 515Z" fill="black"/>
<path d="M1070.26 536V534.18L1075.74 527.52C1076.25 526.907 1076.5 526.273 1076.5 525.62C1076.5 524.967 1076.31 524.447 1075.94 524.06C1075.58 523.66 1075.07 523.46 1074.42 523.46C1073.82 523.46 1073.32 523.64 1072.92 524C1072.52 524.36 1072.32 524.913 1072.32 525.66H1070.28C1070.28 524.46 1070.67 523.493 1071.44 522.76C1072.21 522.013 1073.21 521.64 1074.42 521.64C1075.65 521.64 1076.64 522.007 1077.4 522.74C1078.16 523.46 1078.54 524.427 1078.54 525.64C1078.54 526.227 1078.43 526.74 1078.22 527.18C1078.02 527.607 1077.68 528.12 1077.2 528.72L1072.74 534.18H1078.54V536H1070.26ZM1084.78 536.12C1083.62 536.12 1082.65 535.753 1081.86 535.02C1081.08 534.273 1080.68 533.28 1080.68 532.04V525.72C1080.68 524.48 1081.08 523.493 1081.86 522.76C1082.65 522.013 1083.62 521.64 1084.78 521.64C1085.96 521.64 1086.94 522.013 1087.72 522.76C1088.51 523.493 1088.9 524.48 1088.9 525.72V532.04C1088.9 533.28 1088.51 534.273 1087.72 535.02C1086.94 535.753 1085.96 536.12 1084.78 536.12ZM1084.78 534.3C1085.42 534.3 1085.93 534.087 1086.3 533.66C1086.68 533.233 1086.86 532.673 1086.86 531.98V525.78C1086.86 525.087 1086.68 524.527 1086.3 524.1C1085.93 523.673 1085.42 523.46 1084.78 523.46C1084.16 523.46 1083.66 523.673 1083.28 524.1C1082.91 524.527 1082.72 525.087 1082.72 525.78V531.98C1082.72 532.673 1082.91 533.233 1083.28 533.66C1083.66 534.087 1084.16 534.3 1084.78 534.3Z" fill="black"/>
<path d="M1417.5 501L1422.27 491L1410.73 491L1415.5 501L1417.5 501ZM1417.5 515L1417.5 500L1415.5 500L1415.5 515L1417.5 515Z" fill="#DA4A4A"/>
<path d="M1406.76 536V534.18L1412.24 527.52C1412.75 526.907 1413 526.273 1413 525.62C1413 524.967 1412.81 524.447 1412.44 524.06C1412.08 523.66 1411.57 523.46 1410.92 523.46C1410.32 523.46 1409.82 523.64 1409.42 524C1409.02 524.36 1408.82 524.913 1408.82 525.66H1406.78C1406.78 524.46 1407.17 523.493 1407.94 522.76C1408.71 522.013 1409.71 521.64 1410.92 521.64C1412.15 521.64 1413.14 522.007 1413.9 522.74C1414.66 523.46 1415.04 524.427 1415.04 525.64C1415.04 526.227 1414.93 526.74 1414.72 527.18C1414.52 527.607 1414.18 528.12 1413.7 528.72L1409.24 534.18H1415.04V536H1406.76ZM1421.28 536.12C1420.12 536.12 1419.15 535.753 1418.36 535.02C1417.58 534.273 1417.18 533.28 1417.18 532.04V525.72C1417.18 524.48 1417.58 523.493 1418.36 522.76C1419.15 522.013 1420.12 521.64 1421.28 521.64C1422.46 521.64 1423.44 522.013 1424.22 522.76C1425.01 523.493 1425.4 524.48 1425.4 525.72V532.04C1425.4 533.28 1425.01 534.273 1424.22 535.02C1423.44 535.753 1422.46 536.12 1421.28 536.12ZM1421.28 534.3C1421.92 534.3 1422.43 534.087 1422.8 533.66C1423.18 533.233 1423.36 532.673 1423.36 531.98V525.78C1423.36 525.087 1423.18 524.527 1422.8 524.1C1422.43 523.673 1421.92 523.46 1421.28 523.46C1420.66 523.46 1420.16 523.673 1419.78 524.1C1419.41 524.527 1419.22 525.087 1419.22 525.78V531.98C1419.22 532.673 1419.41 533.233 1419.78 533.66C1420.16 534.087 1420.66 534.3 1421.28 534.3Z" fill="#DA4A4A"/>
<path d="M1355.78 549.08C1356.74 548.12 1357.97 547.64 1359.46 547.64C1360.95 547.64 1362.18 548.12 1363.14 549.08C1363.79 549.733 1364.19 550.44 1364.34 551.2C1364.5 551.96 1364.58 553.187 1364.58 554.88C1364.58 556.573 1364.5 557.8 1364.34 558.56C1364.19 559.32 1363.79 560.027 1363.14 560.68C1362.18 561.64 1360.95 562.12 1359.46 562.12C1357.97 562.12 1356.74 561.64 1355.78 560.68C1355.13 560.027 1354.72 559.32 1354.56 558.56C1354.41 557.8 1354.34 556.573 1354.34 554.88C1354.34 553.187 1354.41 551.96 1354.56 551.2C1354.72 550.44 1355.13 549.733 1355.78 549.08ZM1361.58 550.44C1361.03 549.867 1360.33 549.58 1359.46 549.58C1358.59 549.58 1357.89 549.867 1357.34 550.44C1356.99 550.813 1356.77 551.293 1356.66 551.88C1356.55 552.453 1356.5 553.453 1356.5 554.88C1356.5 556.307 1356.55 557.307 1356.66 557.88C1356.77 558.453 1356.99 558.927 1357.34 559.3C1357.9 559.887 1358.61 560.18 1359.46 560.18C1360.31 560.18 1361.02 559.887 1361.58 559.3C1361.93 558.94 1362.15 558.473 1362.26 557.9C1362.37 557.327 1362.42 556.32 1362.42 554.88C1362.42 553.44 1362.37 552.433 1362.26 551.86C1362.15 551.273 1361.93 550.8 1361.58 550.44ZM1376.04 547.76V549.7H1372.12V562H1369.96V549.7H1366.04V547.76H1376.04ZM1388.45 547.76L1382.83 554.48L1388.95 562H1386.27L1380.47 554.56L1385.85 547.76H1388.45ZM1380.45 547.76V562H1378.29V547.76H1380.45ZM1400.37 547.76V562H1398.21V549.7H1394.03V554.2C1394.03 557.093 1393.68 559.12 1392.99 560.28C1392.31 561.427 1391.22 562 1389.73 562H1388.83V560.06H1389.21C1389.64 560.06 1390 559.98 1390.31 559.82C1390.62 559.647 1390.9 559.347 1391.15 558.92C1391.42 558.493 1391.61 557.867 1391.73 557.04C1391.86 556.2 1391.93 555.153 1391.93 553.9V547.76H1400.37ZM1404.8 549.08C1405.76 548.12 1406.99 547.64 1408.48 547.64C1409.98 547.64 1411.2 548.12 1412.16 549.08C1412.82 549.733 1413.22 550.44 1413.36 551.2C1413.52 551.96 1413.6 553.187 1413.6 554.88C1413.6 556.573 1413.52 557.8 1413.36 558.56C1413.22 559.32 1412.82 560.027 1412.16 560.68C1411.2 561.64 1409.98 562.12 1408.48 562.12C1406.99 562.12 1405.76 561.64 1404.8 560.68C1404.15 560.027 1403.74 559.32 1403.58 558.56C1403.44 557.8 1403.36 556.573 1403.36 554.88C1403.36 553.187 1403.44 551.96 1403.58 551.2C1403.74 550.44 1404.15 549.733 1404.8 549.08ZM1410.6 550.44C1410.06 549.867 1409.35 549.58 1408.48 549.58C1407.62 549.58 1406.91 549.867 1406.36 550.44C1406.02 550.813 1405.79 551.293 1405.68 551.88C1405.58 552.453 1405.52 553.453 1405.52 554.88C1405.52 556.307 1405.58 557.307 1405.68 557.88C1405.79 558.453 1406.02 558.927 1406.36 559.3C1406.92 559.887 1407.63 560.18 1408.48 560.18C1409.34 560.18 1410.04 559.887 1410.6 559.3C1410.95 558.94 1411.18 558.473 1411.28 557.9C1411.39 557.327 1411.44 556.32 1411.44 554.88C1411.44 553.44 1411.39 552.433 1411.28 551.86C1411.18 551.273 1410.95 550.8 1410.6 550.44ZM1426.71 547.76V562H1424.55V555.78H1418.77V562H1416.61V547.76H1418.77V553.84H1424.55V547.76H1426.71ZM1439.34 547.76V549.7H1432.4V553.86H1438.32V555.8H1432.4V560.06H1439.34V562H1430.24V547.76H1439.34ZM1452.19 547.76V562H1450.03V555.78H1444.25V562H1442.09V547.76H1444.25V553.84H1450.03V547.76H1452.19ZM1466.22 547.76V562H1464.06V551.66L1457.68 562H1455.72V547.76H1457.88V558.08L1464.24 547.76H1466.22ZM1478.84 547.76V549.7H1471.9V553.86H1477.82V555.8H1471.9V560.06H1478.84V562H1469.74V547.76H1478.84Z" fill="#DA4A4A"/>
</svg>
