<?xml version="1.0" encoding="UTF-8" standalone="no"?><!DOCTYPE svg PUBLIC "-//W3C//DTD SVG 1.1//EN" "http://www.w3.org/Graphics/SVG/1.1/DTD/svg11.dtd"><svg width="100%" height="100%" viewBox="0 0 1480 567" version="1.1" xmlns="http://www.w3.org/2000/svg" xmlns:xlink="http://www.w3.org/1999/xlink" xml:space="preserve" xmlns:serif="http://www.serif.com/" style="fill-rule:evenodd;clip-rule:evenodd;"><g><path d="M171.16,15.44l0,490" style="fill:none;fill-rule:nonzero;stroke:#000;stroke-width:2px;"/><path d="M11.62,93.08c1.333,0 2.447,0.387 3.34,1.16c0.907,0.76 1.487,1.833 1.74,3.22l-2.2,0c-0.16,-0.747 -0.487,-1.34 -0.98,-1.78c-0.493,-0.44 -1.127,-0.66 -1.9,-0.66c-0.867,0 -1.567,0.287 -2.1,0.86c-0.36,0.373 -0.593,0.853 -0.7,1.44c-0.107,0.573 -0.16,1.573 -0.16,3c0,1.427 0.053,2.433 0.16,3.02c0.107,0.573 0.34,1.047 0.7,1.42c0.533,0.573 1.233,0.86 2.1,0.86c0.773,0 1.407,-0.22 1.9,-0.66c0.493,-0.44 0.82,-1.033 0.98,-1.78l2.2,0c-0.24,1.387 -0.82,2.467 -1.74,3.24c-0.907,0.76 -2.02,1.14 -3.34,1.14c-1.493,0 -2.72,-0.48 -3.68,-1.44c-0.64,-0.653 -1.04,-1.36 -1.2,-2.12c-0.16,-0.773 -0.24,-2 -0.24,-3.68c0,-1.68 0.08,-2.9 0.24,-3.66c0.16,-0.773 0.56,-1.487 1.2,-2.14c0.96,-0.96 2.187,-1.44 3.68,-1.44Zm17.919,0.12l-5.62,6.72l6.12,7.52l-2.68,0l-5.8,-7.44l5.38,-6.8l2.6,0Zm-8,0l0,14.24l-2.16,0l0,-14.24l2.16,0Zm10.081,0l5.4,0c1.373,0 2.473,0.407 3.3,1.22c0.84,0.813 1.26,1.847 1.26,3.1c0,1.253 -0.42,2.287 -1.26,3.1c-0.827,0.8 -1.927,1.2 -3.3,1.2l-3.24,0l0,5.62l-2.16,0l0,-14.24Zm5.28,1.94l-3.12,0l0,4.74l3.12,0c0.773,0 1.387,-0.207 1.84,-0.62c0.453,-0.413 0.68,-0.993 0.68,-1.74c0,-0.747 -0.227,-1.327 -0.68,-1.74c-0.453,-0.427 -1.067,-0.64 -1.84,-0.64Zm17.598,-1.94l0,14.24l-2.16,0l0,-10.34l-6.38,10.34l-1.96,0l0,-14.24l2.16,0l0,10.32l6.36,-10.32l1.98,0Zm13.619,0l0,14.24l-2.16,0l0,-6.22l-5.78,0l0,6.22l-2.16,0l0,-14.24l2.16,0l0,6.08l5.78,0l0,-6.08l2.16,0Zm14.028,0l0,14.24l-2.16,0l0,-10.34l-6.38,10.34l-1.96,0l0,-14.24l2.16,0l0,10.32l6.36,-10.32l1.98,0Zm13.619,0l0,14.24l-2.16,0l0,-6.22l-5.78,0l0,6.22l-2.16,0l0,-14.24l2.16,0l0,6.08l5.78,0l0,-6.08l2.16,0Zm12.288,0l0,1.94l-6.6,0l0,12.3l-2.16,0l0,-14.24l8.76,0Z" style="fill-rule:nonzero;"/><path d="M161.16,100.44l10,4.773l0,-11.546l-10,4.773l0,2Zm-52,0l53,0l0,-2l-53,0l0,2Z" style="fill-rule:nonzero;"/><path d="M4.36,251.58c-1.227,0 -2.253,-0.333 -3.08,-1c-0.813,-0.68 -1.24,-1.68 -1.28,-3l2.04,0c0.04,0.72 0.273,1.26 0.7,1.62c0.44,0.36 0.98,0.54 1.62,0.54c0.68,0 1.233,-0.207 1.66,-0.62c0.44,-0.427 0.66,-1.007 0.66,-1.74c0,-0.733 -0.2,-1.307 -0.6,-1.72c-0.4,-0.413 -0.993,-0.62 -1.78,-0.62l-0.34,0l0,-1.78l0.34,0c0.72,0 1.26,-0.187 1.62,-0.56c0.36,-0.387 0.54,-0.913 0.54,-1.58c0,-0.693 -0.2,-1.233 -0.6,-1.62c-0.4,-0.387 -0.9,-0.58 -1.5,-0.58c-0.613,0 -1.113,0.187 -1.5,0.56c-0.373,0.36 -0.587,0.853 -0.64,1.48l-2.04,0c0.053,-1.187 0.473,-2.127 1.26,-2.82c0.787,-0.707 1.76,-1.06 2.92,-1.06c1.213,0 2.207,0.373 2.98,1.12c0.773,0.733 1.16,1.687 1.16,2.86c0,1.427 -0.593,2.433 -1.78,3.02c1.333,0.587 2,1.707 2,3.36c0,1.32 -0.413,2.34 -1.24,3.06c-0.827,0.72 -1.867,1.08 -3.12,1.08Zm10.584,-0.02c-1.16,0 -2.133,-0.367 -2.92,-1.1c-0.787,-0.747 -1.18,-1.74 -1.18,-2.98l0,-6.32c0,-1.24 0.393,-2.227 1.18,-2.96c0.787,-0.747 1.76,-1.12 2.92,-1.12c1.173,0 2.153,0.373 2.94,1.12c0.787,0.733 1.18,1.72 1.18,2.96l0,6.32c0,1.24 -0.393,2.233 -1.18,2.98c-0.787,0.733 -1.767,1.1 -2.94,1.1Zm0,-1.82c0.64,0 1.147,-0.213 1.52,-0.64c0.373,-0.427 0.56,-0.987 0.56,-1.68l0,-6.2c0,-0.693 -0.187,-1.253 -0.56,-1.68c-0.373,-0.427 -0.88,-0.64 -1.52,-0.64c-0.627,0 -1.127,0.213 -1.5,0.64c-0.373,0.427 -0.56,0.987 -0.56,1.68l0,6.2c0,0.693 0.187,1.253 0.56,1.68c0.373,0.427 0.873,0.64 1.5,0.64Zm21.704,-12.54l0,14.24l-2.16,0l0,-14.24l2.16,0Zm-12.54,0l0,5.6l3.3,0c1.347,0 2.433,0.4 3.26,1.2c0.827,0.8 1.24,1.84 1.24,3.12c0,1.28 -0.42,2.32 -1.26,3.12c-0.827,0.8 -1.907,1.2 -3.24,1.2l-5.46,0l0,-14.24l2.16,0Zm3.12,7.54l-3.12,0l0,4.76l3.12,0c0.787,0 1.4,-0.207 1.84,-0.62c0.453,-0.427 0.68,-1.013 0.68,-1.76c0,-0.733 -0.227,-1.313 -0.68,-1.74c-0.44,-0.427 -1.053,-0.64 -1.84,-0.64Zm23.438,-7.54l0,14.24l-2.16,0l0,-10.34l-6.38,10.34l-1.96,0l0,-14.24l2.16,0l0,10.32l6.36,-10.32l1.98,0Zm-3.38,-4.34l1.44,0c-0.053,0.973 -0.373,1.7 -0.96,2.18c-0.573,0.48 -1.347,0.72 -2.32,0.72c-0.987,0 -1.773,-0.24 -2.36,-0.72c-0.573,-0.48 -0.887,-1.207 -0.94,-2.18l1.44,0c0.053,0.453 0.247,0.8 0.58,1.04c0.333,0.24 0.76,0.36 1.28,0.36c0.44,0 0.84,-0.113 1.2,-0.34c0.373,-0.24 0.587,-0.593 0.64,-1.06Zm21.224,4.34l-0.001,12.32l1.66,0l0.001,5.2l-2.101,0l0,-3.28l-8.74,0l0,3.28l-2.08,0l0,-5.2l1.34,0c0.587,-1.187 1.007,-2.487 1.26,-3.9c0.267,-1.413 0.4,-3.173 0.4,-5.28l0,-3.14l8.261,0Zm-2.161,1.92l-4.02,0l0,3.06c0,2.853 -0.5,5.3 -1.5,7.34l5.52,0l0,-10.4Zm15.481,-1.92l0,1.94l-6.94,0l0,4.16l5.92,0l0,1.94l-5.92,0l0,4.26l6.94,0l0,1.94l-9.1,0l0,-14.24l9.1,0Zm12.851,0l0,14.24l-2.16,0l0,-6.22l-5.78,0l0,6.22l-2.16,0l0,-14.24l2.16,0l0,6.08l5.78,0l0,-6.08l2.16,0Zm5.688,0l0,5.6l3.3,0c1.347,0 2.433,0.4 3.26,1.2c0.827,0.8 1.24,1.84 1.24,3.12c0,1.28 -0.42,2.32 -1.26,3.12c-0.827,0.8 -1.907,1.2 -3.24,1.2l-5.46,0l0,-14.24l2.16,0Zm3.12,7.54l-3.12,0l0,4.76l3.12,0c0.787,0 1.4,-0.207 1.84,-0.62c0.453,-0.427 0.68,-1.013 0.68,-1.76c0,-0.733 -0.227,-1.313 -0.68,-1.74c-0.44,-0.427 -1.053,-0.64 -1.84,-0.64Z" style="fill-rule:nonzero;"/><path d="M161.16,244.44l10,4.774l0,-11.548l-10,4.774l0,2Zm-52,0l53,0l0,-2l-53,0l0,2Z" style="fill-rule:nonzero;"/><path d="M4.36,395.58c-1.227,0 -2.253,-0.333 -3.08,-1c-0.813,-0.68 -1.24,-1.68 -1.28,-3l2.04,0c0.04,0.72 0.273,1.26 0.7,1.62c0.44,0.36 0.98,0.54 1.62,0.54c0.68,0 1.233,-0.207 1.66,-0.62c0.44,-0.427 0.66,-1.007 0.66,-1.74c0,-0.733 -0.2,-1.307 -0.6,-1.72c-0.4,-0.413 -0.993,-0.62 -1.78,-0.62l-0.34,0l0,-1.78l0.34,0c0.72,0 1.26,-0.187 1.62,-0.56c0.36,-0.387 0.54,-0.913 0.54,-1.58c0,-0.693 -0.2,-1.233 -0.6,-1.62c-0.4,-0.387 -0.9,-0.58 -1.5,-0.58c-0.613,0 -1.113,0.187 -1.5,0.56c-0.373,0.36 -0.587,0.853 -0.64,1.48l-2.04,0c0.053,-1.187 0.473,-2.127 1.26,-2.82c0.787,-0.707 1.76,-1.06 2.92,-1.06c1.213,0 2.207,0.373 2.98,1.12c0.773,0.733 1.16,1.687 1.16,2.86c0,1.427 -0.593,2.433 -1.78,3.02c1.333,0.587 2,1.707 2,3.36c0,1.32 -0.413,2.34 -1.24,3.06c-0.827,0.72 -1.867,1.08 -3.12,1.08Zm10.584,-0.02c-1.16,0 -2.133,-0.367 -2.92,-1.1c-0.787,-0.747 -1.18,-1.74 -1.18,-2.98l0,-6.32c0,-1.24 0.393,-2.227 1.18,-2.96c0.787,-0.747 1.76,-1.12 2.92,-1.12c1.173,0 2.153,0.373 2.94,1.12c0.787,0.733 1.18,1.72 1.18,2.96l0,6.32c0,1.24 -0.393,2.233 -1.18,2.98c-0.787,0.733 -1.767,1.1 -2.94,1.1Zm0,-1.82c0.64,0 1.147,-0.213 1.52,-0.64c0.373,-0.427 0.56,-0.987 0.56,-1.68l0,-6.2c0,-0.693 -0.187,-1.253 -0.56,-1.68c-0.373,-0.427 -0.88,-0.64 -1.52,-0.64c-0.627,0 -1.127,0.213 -1.5,0.64c-0.373,0.427 -0.56,0.987 -0.56,1.68l0,6.2c0,0.693 0.187,1.253 0.56,1.68c0.373,0.427 0.873,0.64 1.5,0.64Zm21.704,-12.54l0,14.24l-2.16,0l0,-14.24l2.16,0Zm-12.54,0l0,5.6l3.3,0c1.347,0 2.433,0.4 3.26,1.2c0.827,0.8 1.24,1.84 1.24,3.12c0,1.28 -0.42,2.32 -1.26,3.12c-0.827,0.8 -1.907,1.2 -3.24,1.2l-5.46,0l0,-14.24l2.16,0Zm3.12,7.54l-3.12,0l0,4.76l3.12,0c0.787,0 1.4,-0.207 1.84,-0.62c0.453,-0.427 0.68,-1.013 0.68,-1.76c0,-0.733 -0.227,-1.313 -0.68,-1.74c-0.44,-0.427 -1.053,-0.64 -1.84,-0.64Zm23.438,-7.54l0,14.24l-2.16,0l0,-10.34l-6.38,10.34l-1.96,0l0,-14.24l2.16,0l0,10.32l6.36,-10.32l1.98,0Zm-3.38,-4.34l1.44,0c-0.053,0.973 -0.373,1.7 -0.96,2.18c-0.573,0.48 -1.347,0.72 -2.32,0.72c-0.987,0 -1.773,-0.24 -2.36,-0.72c-0.573,-0.48 -0.887,-1.207 -0.94,-2.18l1.44,0c0.053,0.453 0.247,0.8 0.58,1.04c0.333,0.24 0.76,0.36 1.28,0.36c0.44,0 0.84,-0.113 1.2,-0.34c0.373,-0.24 0.587,-0.593 0.64,-1.06Zm21.224,4.34l-0.001,12.32l1.66,0l0.001,5.2l-2.101,0l0,-3.28l-8.74,0l0,3.28l-2.08,0l0,-5.2l1.34,0c0.587,-1.187 1.007,-2.487 1.26,-3.9c0.267,-1.413 0.4,-3.173 0.4,-5.28l0,-3.14l8.261,0Zm-2.161,1.92l-4.02,0l0,3.06c0,2.853 -0.5,5.3 -1.5,7.34l5.52,0l0,-10.4Zm15.481,-1.92l0,1.94l-6.94,0l0,4.16l5.92,0l0,1.94l-5.92,0l0,4.26l6.94,0l0,1.94l-9.1,0l0,-14.24l9.1,0Zm12.851,0l0,14.24l-2.16,0l0,-6.22l-5.78,0l0,6.22l-2.16,0l0,-14.24l2.16,0l0,6.08l5.78,0l0,-6.08l2.16,0Zm5.688,0l0,5.6l3.3,0c1.347,0 2.433,0.4 3.26,1.2c0.827,0.8 1.24,1.84 1.24,3.12c0,1.28 -0.42,2.32 -1.26,3.12c-0.827,0.8 -1.907,1.2 -3.24,1.2l-5.46,0l0,-14.24l2.16,0Zm3.12,7.54l-3.12,0l0,4.76l3.12,0c0.787,0 1.4,-0.207 1.84,-0.62c0.453,-0.427 0.68,-1.013 0.68,-1.76c0,-0.733 -0.227,-1.313 -0.68,-1.74c-0.44,-0.427 -1.053,-0.64 -1.84,-0.64Z" style="fill-rule:nonzero;"/><path d="M161.16,388.44l10,4.774l0,-11.548l-10,4.774l0,2Zm-52,0l53,0l0,-2l-53,0l0,2Z" style="fill-rule:nonzero;"/><path d="M170.16,505.44l688,0" style="fill:none;fill-rule:nonzero;stroke:#000;stroke-width:2px;"/><path d="M172.16,96.44l0,408l120,0l0,-408l-120,0Z" style="fill:#335ced;"/><path d="M233.16,516.44l4.774,-10l-11.548,0l4.774,10l2,0Zm0,14l0,-15l-2,0l0,15l2,0Z" style="fill-rule:nonzero;"/><path d="M222.42,551.44l0,-1.82l5.48,-6.66c0.507,-0.613 0.76,-1.247 0.76,-1.9c0,-0.653 -0.187,-1.173 -0.56,-1.56c-0.36,-0.4 -0.867,-0.6 -1.52,-0.6c-0.6,0 -1.1,0.18 -1.5,0.54c-0.4,0.36 -0.6,0.913 -0.6,1.66l-2.04,0c0,-1.2 0.387,-2.167 1.16,-2.9c0.773,-0.747 1.767,-1.12 2.98,-1.12c1.227,0 2.22,0.367 2.98,1.1c0.76,0.72 1.14,1.687 1.14,2.9c0,0.587 -0.107,1.1 -0.32,1.54c-0.2,0.427 -0.54,0.94 -1.02,1.54l-4.46,5.46l5.8,0l0,1.82l-8.28,0Zm14.524,0.12c-1.16,0 -2.133,-0.367 -2.92,-1.1c-0.787,-0.747 -1.18,-1.74 -1.18,-2.98l0,-6.32c0,-1.24 0.393,-2.227 1.18,-2.96c0.787,-0.747 1.76,-1.12 2.92,-1.12c1.173,0 2.153,0.373 2.94,1.12c0.787,0.733 1.18,1.72 1.18,2.96l0,6.32c0,1.24 -0.393,2.233 -1.18,2.98c-0.787,0.733 -1.767,1.1 -2.94,1.1Zm0,-1.82c0.64,0 1.147,-0.213 1.52,-0.64c0.373,-0.427 0.56,-0.987 0.56,-1.68l0,-6.2c0,-0.693 -0.187,-1.253 -0.56,-1.68c-0.373,-0.427 -0.88,-0.64 -1.52,-0.64c-0.627,0 -1.127,0.213 -1.5,0.64c-0.373,0.427 -0.56,0.987 -0.56,1.68l0,6.2c0,0.693 0.187,1.253 0.56,1.68c0.373,0.427 0.873,0.64 1.5,0.64Z" style="fill-rule:nonzero;"/><path d="M412.16,238.44l0,266l120,0l0,-266l-120,0Z" style="fill:#335ced;"/><path d="M473.16,516.44l4.774,-10l-11.548,0l4.774,10l2,0Zm0,14l0,-15l-2,0l0,15l2,0Z" style="fill-rule:nonzero;"/><path d="M462.42,551.44l0,-1.82l5.48,-6.66c0.507,-0.613 0.76,-1.247 0.76,-1.9c0,-0.653 -0.187,-1.173 -0.56,-1.56c-0.36,-0.4 -0.867,-0.6 -1.52,-0.6c-0.6,0 -1.1,0.18 -1.5,0.54c-0.4,0.36 -0.6,0.913 -0.6,1.66l-2.04,0c0,-1.2 0.387,-2.167 1.16,-2.9c0.773,-0.747 1.767,-1.12 2.98,-1.12c1.227,0 2.22,0.367 2.98,1.1c0.76,0.72 1.14,1.687 1.14,2.9c0,0.587 -0.107,1.1 -0.32,1.54c-0.2,0.427 -0.54,0.94 -1.02,1.54l-4.46,5.46l5.8,0l0,1.82l-8.28,0Zm14.524,0.12c-1.16,0 -2.133,-0.367 -2.92,-1.1c-0.787,-0.747 -1.18,-1.74 -1.18,-2.98l0,-6.32c0,-1.24 0.393,-2.227 1.18,-2.96c0.787,-0.747 1.76,-1.12 2.92,-1.12c1.173,0 2.153,0.373 2.94,1.12c0.787,0.733 1.18,1.72 1.18,2.96l0,6.32c0,1.24 -0.393,2.233 -1.18,2.98c-0.787,0.733 -1.767,1.1 -2.94,1.1Zm0,-1.82c0.64,0 1.147,-0.213 1.52,-0.64c0.373,-0.427 0.56,-0.987 0.56,-1.68l0,-6.2c0,-0.693 -0.187,-1.253 -0.56,-1.68c-0.373,-0.427 -0.88,-0.64 -1.52,-0.64c-0.627,0 -1.127,0.213 -1.5,0.64c-0.373,0.427 -0.56,0.987 -0.56,1.68l0,6.2c0,0.693 0.187,1.253 0.56,1.68c0.373,0.427 0.873,0.64 1.5,0.64Z" style="fill-rule:nonzero;"/><path d="M652.16,330.44l0,174l120,0l0,-174l-120,0Z" style="fill:#335ced;"/><path d="M713.16,516.44l4.774,-10l-11.548,0l4.774,10l2,0Zm0,14l0,-15l-2,0l0,15l2,0Z" style="fill-rule:nonzero;"/><path d="M702.42,551.44l0,-1.82l5.48,-6.66c0.507,-0.613 0.76,-1.247 0.76,-1.9c0,-0.653 -0.187,-1.173 -0.56,-1.56c-0.36,-0.4 -0.867,-0.6 -1.52,-0.6c-0.6,0 -1.1,0.18 -1.5,0.54c-0.4,0.36 -0.6,0.913 -0.6,1.66l-2.04,0c0,-1.2 0.387,-2.167 1.16,-2.9c0.773,-0.747 1.767,-1.12 2.98,-1.12c1.227,0 2.22,0.367 2.98,1.1c0.76,0.72 1.14,1.687 1.14,2.9c0,0.587 -0.107,1.1 -0.32,1.54c-0.2,0.427 -0.54,0.94 -1.02,1.54l-4.46,5.46l5.8,0l0,1.82l-8.28,0Zm14.524,0.12c-1.16,0 -2.133,-0.367 -2.92,-1.1c-0.787,-0.747 -1.18,-1.74 -1.18,-2.98l0,-6.32c0,-1.24 0.393,-2.227 1.18,-2.96c0.787,-0.747 1.76,-1.12 2.92,-1.12c1.173,0 2.153,0.373 2.94,1.12c0.787,0.733 1.18,1.72 1.18,2.96l0,6.32c0,1.24 -0.393,2.233 -1.18,2.98c-0.787,0.733 -1.767,1.1 -2.94,1.1Zm0,-1.82c0.64,0 1.147,-0.213 1.52,-0.64c0.373,-0.427 0.56,-0.987 0.56,-1.68l0,-6.2c0,-0.693 -0.187,-1.253 -0.56,-1.68c-0.373,-0.427 -0.88,-0.64 -1.52,-0.64c-0.627,0 -1.127,0.213 -1.5,0.64c-0.373,0.427 -0.56,0.987 -0.56,1.68l0,6.2c0,0.693 0.187,1.253 0.56,1.68c0.373,0.427 0.873,0.64 1.5,0.64Z" style="fill-rule:nonzero;"/></g></svg>