<svg width="799" height="404" viewBox="0 0 799 404" fill="none" xmlns="http://www.w3.org/2000/svg">
<path d="M47.2706 249.708C39.7973 249.708 33.4646 247.663 28.2726 243.572C23.1593 239.403 20.5633 233.188 20.4846 224.928H35.8246C35.9033 228.547 37.0046 231.3 39.1286 233.188C41.3313 234.997 44.0453 235.902 47.2706 235.902C50.6533 235.902 53.3673 234.879 55.4126 232.834C57.5366 230.789 58.5986 227.917 58.5986 224.22C58.5986 220.68 57.5366 217.887 55.4126 215.842C53.3673 213.718 50.4959 212.656 46.7986 212.656H44.5566V199.322H46.7986C50.4173 199.322 53.0919 198.378 54.8226 196.49C56.5533 194.523 57.4186 191.967 57.4186 188.82C57.4186 185.437 56.4353 182.802 54.4686 180.914C52.5019 179.026 50.0633 178.082 47.1526 178.082C44.2419 178.082 41.8033 178.987 39.8366 180.796C37.9486 182.605 36.9259 185.083 36.7686 188.23H21.4286C21.6646 180.835 24.1819 175.014 28.9806 170.766C33.8579 166.439 39.9153 164.276 47.1526 164.276C54.6259 164.276 60.7619 166.518 65.5606 171.002C70.3593 175.486 72.7586 181.268 72.7586 188.348C72.7586 196.372 69.5333 202.115 63.0826 205.576C70.3199 209.352 73.9386 215.724 73.9386 224.692C73.9386 232.716 71.3819 238.891 66.2686 243.218C61.2339 247.545 54.9013 249.708 47.2706 249.708ZM85.3809 249V235.194L116.769 198.732C119.758 195.192 121.253 191.809 121.253 188.584C121.253 185.437 120.348 182.92 118.539 181.032C116.808 179.065 114.33 178.082 111.105 178.082C108.116 178.082 105.638 178.947 103.671 180.678C101.704 182.33 100.721 185.044 100.721 188.82H85.3809C85.3809 181.347 87.8196 175.407 92.6969 171.002C97.5742 166.518 103.71 164.276 111.105 164.276C118.657 164.276 124.793 166.479 129.513 170.884C134.233 175.289 136.593 181.229 136.593 188.702C136.593 192.399 135.885 195.585 134.469 198.26C133.132 200.856 130.811 204.081 127.507 207.936L104.025 235.194H136.593V249H85.3809ZM166.089 232.244V255.49L149.333 268.47V232.244H166.089ZM211.082 249V237.082H176.744V222.568L205.536 164.984H222.292L193.5 222.568H211.082V206.874H225.714V222.568H233.502V237.082H225.714V249H211.082ZM260.167 249L299.933 164.984H311.969L272.203 249H260.167ZM271.377 204.042C268.151 206.874 264.1 208.29 259.223 208.29C254.345 208.29 250.255 206.874 246.951 204.042C243.725 201.21 242.113 197.237 242.113 192.124V180.442C242.113 175.329 243.725 171.356 246.951 168.524C250.255 165.692 254.345 164.276 259.223 164.276C264.1 164.276 268.151 165.692 271.377 168.524C274.681 171.356 276.333 175.329 276.333 180.442V192.124C276.333 197.237 274.681 201.21 271.377 204.042ZM259.223 198.378C263.235 198.378 265.241 196.097 265.241 191.534V181.032C265.241 176.548 263.235 174.306 259.223 174.306C255.289 174.306 253.323 176.548 253.323 181.032V191.534C253.323 196.097 255.289 198.378 259.223 198.378ZM324.949 245.46C321.723 248.292 317.672 249.708 312.795 249.708C307.917 249.708 303.827 248.292 300.523 245.46C297.297 242.628 295.685 238.655 295.685 233.542V221.86C295.685 216.747 297.297 212.774 300.523 209.942C303.827 207.11 307.917 205.694 312.795 205.694C317.672 205.694 321.723 207.11 324.949 209.942C328.253 212.774 329.905 216.747 329.905 221.86V233.542C329.905 238.655 328.253 242.628 324.949 245.46ZM306.777 232.952C306.777 237.436 308.783 239.678 312.795 239.678C316.807 239.678 318.813 237.436 318.813 232.952V222.45C318.813 217.887 316.807 215.606 312.795 215.606C310.985 215.606 309.53 216.196 308.429 217.376C307.327 218.556 306.777 220.247 306.777 222.45V232.952Z" fill="#335CED"/>
<line x1="347" y1="1" x2="347" y2="75.5" stroke="black" stroke-width="2" stroke-linecap="round"/>
<path d="M403.296 150.716V173.5H398.848V154.684H391.104V173.5H386.656V150.716H403.296ZM417.554 150.716L425.874 173.5H421.202L419.858 169.468H411.794L410.418 173.5H405.746L414.066 150.716H417.554ZM415.826 157.468L413.01 165.724H418.61L415.826 157.468ZM444.812 150.716V169.532H447.436V178.46H443.212V173.5H428.172V150.716H432.62V169.532H440.364V150.716H444.812ZM467.914 150.716V173.5H463.466V158.844L454.602 173.5H450.634V150.716H455.082V165.372L463.946 150.716H467.914ZM487.915 150.716V154.684H477.355V160.028H486.379V163.996H477.355V169.532H487.915V173.5H472.907V150.716H487.915ZM508.602 150.716V173.5H504.154V163.964H496.41V173.5H491.962V150.716H496.41V159.996H504.154V150.716H508.602ZM528.236 150.716V154.684H522.284V173.5H517.836V154.684H511.884V150.716H528.236ZM532.671 152.924C534.313 151.324 536.351 150.524 538.783 150.524C541.215 150.524 543.252 151.324 544.895 152.924C545.94 153.948 546.58 155.089 546.815 156.348C547.071 157.607 547.199 159.527 547.199 162.108C547.199 164.689 547.071 166.609 546.815 167.868C546.58 169.127 545.94 170.268 544.895 171.292C543.252 172.892 541.215 173.692 538.783 173.692C536.351 173.692 534.313 172.892 532.671 171.292C531.625 170.247 530.975 169.105 530.719 167.868C530.484 166.609 530.367 164.689 530.367 162.108C530.367 159.527 530.484 157.617 530.719 156.38C530.975 155.121 531.625 153.969 532.671 152.924ZM541.631 155.708C540.927 154.897 539.977 154.492 538.783 154.492C537.588 154.492 536.639 154.897 535.935 155.708C535.487 156.199 535.188 156.86 535.039 157.692C534.889 158.503 534.815 159.975 534.815 162.108C534.815 164.22 534.889 165.692 535.039 166.524C535.188 167.335 535.487 167.985 535.935 168.476C536.66 169.308 537.609 169.724 538.783 169.724C539.956 169.724 540.905 169.308 541.631 168.476C542.079 167.985 542.377 167.335 542.527 166.524C542.676 165.692 542.751 164.22 542.751 162.108C542.751 159.975 542.676 158.503 542.527 157.692C542.377 156.86 542.079 156.199 541.631 155.708ZM551.409 150.716H560.529C562.747 150.716 564.475 151.292 565.713 152.444C566.971 153.596 567.601 155.153 567.601 157.116C567.601 158.247 567.302 159.228 566.705 160.06C566.129 160.871 565.489 161.457 564.785 161.82C566.897 162.78 567.953 164.487 567.953 166.94C567.953 169.009 567.302 170.62 566.001 171.772C564.721 172.924 563.035 173.5 560.945 173.5H551.409V150.716ZM560.529 163.932H555.857V169.532H560.529C561.489 169.532 562.225 169.276 562.737 168.764C563.249 168.231 563.505 167.548 563.505 166.716C563.505 165.905 563.249 165.244 562.737 164.732C562.225 164.199 561.489 163.932 560.529 163.932ZM560.241 154.684H555.857V159.964H560.241C561.179 159.964 561.894 159.729 562.385 159.26C562.897 158.769 563.153 158.119 563.153 157.308C563.153 156.497 562.897 155.857 562.385 155.388C561.873 154.919 561.158 154.684 560.241 154.684ZM595.909 150.716V173.5H591.461V154.684H583.717V173.5H579.269V150.716H595.909ZM615.894 150.716V154.684H605.334V160.028H614.358V163.996H605.334V169.532H615.894V173.5H600.886V150.716H615.894ZM619.941 150.716H628.773C631.077 150.716 632.901 151.399 634.245 152.764C635.61 154.129 636.293 155.815 636.293 157.82C636.293 159.825 635.61 161.511 634.245 162.876C632.901 164.241 631.077 164.924 628.773 164.924H624.389V173.5H619.941V150.716ZM628.549 154.684H624.389V160.956H628.549C629.552 160.956 630.352 160.668 630.949 160.092C631.546 159.516 631.845 158.759 631.845 157.82C631.845 156.881 631.546 156.124 630.949 155.548C630.352 154.972 629.552 154.684 628.549 154.684ZM654.723 150.716V154.684H644.163V160.028H653.187V163.996H644.163V169.532H654.723V173.5H639.715V150.716H654.723ZM666.418 150.524C668.615 150.524 670.46 151.143 671.954 152.38C673.447 153.617 674.386 155.399 674.77 157.724H670.258C669.746 155.569 668.466 154.492 666.418 154.492C665.202 154.492 664.252 154.887 663.57 155.676C663.143 156.167 662.844 156.839 662.674 157.692C662.524 158.524 662.45 159.996 662.45 162.108C662.45 164.22 662.524 165.703 662.674 166.556C662.844 167.388 663.143 168.049 663.57 168.54C664.252 169.329 665.202 169.724 666.418 169.724C668.466 169.724 669.746 168.647 670.258 166.492H674.77C674.386 168.817 673.447 170.599 671.954 171.836C670.46 173.073 668.615 173.692 666.418 173.692C663.986 173.692 661.948 172.892 660.306 171.292C659.26 170.247 658.61 169.105 658.354 167.868C658.119 166.609 658.002 164.689 658.002 162.108C658.002 159.527 658.119 157.617 658.354 156.38C658.61 155.121 659.26 153.969 660.306 152.924C661.948 151.324 663.986 150.524 666.418 150.524ZM692.543 150.716V154.684H686.591V173.5H682.143V154.684H676.191V150.716H692.543ZM702.972 150.716L711.292 173.5H706.62L705.276 169.468H697.212L695.836 173.5H691.164L699.484 150.716H702.972ZM701.244 157.468L698.428 165.724H704.028L701.244 157.468ZM730.817 150.716V173.5H726.369V154.684H720.961V161.308C720.961 164.444 720.684 166.919 720.129 168.732C719.596 170.524 718.828 171.772 717.825 172.476C716.844 173.159 715.532 173.5 713.889 173.5H712.129V169.532H712.769C713.388 169.532 713.911 169.425 714.337 169.212C714.785 168.977 715.191 168.572 715.553 167.996C715.937 167.399 716.215 166.524 716.385 165.372C716.577 164.22 716.673 162.78 716.673 161.052V150.716H730.817ZM753.113 150.716V173.5H748.665V158.844L739.801 173.5H735.833V150.716H740.281V165.372L749.145 150.716H753.113ZM403.936 191.716V214.5H399.488V199.844L390.624 214.5H386.656V191.716H391.104V206.372L399.968 191.716H403.936ZM416.578 191.524C418.775 191.524 420.62 192.143 422.114 193.38C423.607 194.617 424.546 196.399 424.93 198.724H420.418C419.906 196.569 418.626 195.492 416.578 195.492C415.362 195.492 414.412 195.887 413.73 196.676C413.303 197.167 413.004 197.839 412.834 198.692C412.684 199.524 412.61 200.996 412.61 203.108C412.61 205.22 412.684 206.703 412.834 207.556C413.004 208.388 413.303 209.049 413.73 209.54C414.412 210.329 415.362 210.724 416.578 210.724C418.626 210.724 419.906 209.647 420.418 207.492H424.93C424.546 209.817 423.607 211.599 422.114 212.836C420.62 214.073 418.775 214.692 416.578 214.692C414.146 214.692 412.108 213.892 410.466 212.292C409.42 211.247 408.77 210.105 408.514 208.868C408.279 207.609 408.162 205.689 408.162 203.108C408.162 200.527 408.279 198.617 408.514 197.38C408.77 196.121 409.42 194.969 410.466 193.924C412.108 192.324 414.146 191.524 416.578 191.524ZM445.094 191.716V214.5H440.646V195.684H432.902V214.5H428.454V191.716H445.094ZM474.295 191.716V214.5H469.847V191.716H474.295ZM454.519 191.716V200.292H458.935C461.239 200.292 463.063 200.985 464.407 202.372C465.751 203.737 466.423 205.412 466.423 207.396C466.423 209.38 465.751 211.065 464.407 212.452C463.063 213.817 461.239 214.5 458.935 214.5H450.071V191.716H454.519ZM458.679 204.26H454.519V210.532H458.679C459.703 210.532 460.503 210.244 461.079 209.668C461.676 209.092 461.975 208.335 461.975 207.396C461.975 206.479 461.676 205.732 461.079 205.156C460.503 204.559 459.703 204.26 458.679 204.26ZM493.97 191.716V195.684H488.018V214.5H483.57V195.684H477.618V191.716H493.97ZM521.499 191.716V214.5H517.051V191.716H521.499ZM501.723 191.716V200.292H506.139C508.443 200.292 510.267 200.985 511.611 202.372C512.955 203.737 513.627 205.412 513.627 207.396C513.627 209.38 512.955 211.065 511.611 212.452C510.267 213.817 508.443 214.5 506.139 214.5H497.275V191.716H501.723ZM505.883 204.26H501.723V210.532H505.883C506.907 210.532 507.707 210.244 508.283 209.668C508.88 209.092 509.179 208.335 509.179 207.396C509.179 206.479 508.88 205.732 508.283 205.156C507.707 204.559 506.907 204.26 505.883 204.26ZM526.517 191.716H535.637C537.856 191.716 539.584 192.292 540.821 193.444C542.08 194.596 542.709 196.153 542.709 198.116C542.709 199.247 542.411 200.228 541.813 201.06C541.237 201.871 540.597 202.457 539.893 202.82C542.005 203.78 543.061 205.487 543.061 207.94C543.061 210.009 542.411 211.62 541.109 212.772C539.829 213.924 538.144 214.5 536.053 214.5H526.517V191.716ZM535.637 204.932H530.965V210.532H535.637C536.597 210.532 537.333 210.276 537.845 209.764C538.357 209.231 538.613 208.548 538.613 207.716C538.613 206.905 538.357 206.244 537.845 205.732C537.333 205.199 536.597 204.932 535.637 204.932ZM535.349 195.684H530.965V200.964H535.349C536.288 200.964 537.003 200.729 537.493 200.26C538.005 199.769 538.261 199.119 538.261 198.308C538.261 197.497 538.005 196.857 537.493 196.388C536.981 195.919 536.267 195.684 535.349 195.684ZM556.227 191.716L564.547 214.5H559.875L558.531 210.468H550.467L549.091 214.5H544.419L552.739 191.716H556.227ZM554.499 198.468L551.683 206.724H557.283L554.499 198.468ZM579.502 191.716V195.684H573.55V214.5H569.102V195.684H563.15V191.716H579.502ZM587.255 191.716V200.292H591.671C593.975 200.292 595.799 200.985 597.143 202.372C598.487 203.737 599.159 205.412 599.159 207.396C599.159 209.38 598.487 211.065 597.143 212.452C595.799 213.817 593.975 214.5 591.671 214.5H582.807V191.716H587.255ZM591.415 204.26H587.255V210.532H591.415C592.439 210.532 593.239 210.244 593.815 209.668C594.413 209.092 594.711 208.335 594.711 207.396C594.711 206.479 594.413 205.732 593.815 205.156C593.239 204.559 592.439 204.26 591.415 204.26ZM636.002 191.716V214.5H609.698V191.716H614.146V210.532H620.642V191.716H625.09V210.532H631.554V191.716H636.002ZM656.812 191.716L648.748 210.66C647.617 213.22 645.921 214.5 643.66 214.5H640.94V210.532H642.732C643.5 210.532 644.076 210.34 644.46 209.956C644.844 209.572 645.174 209.028 645.452 208.324L645.772 207.524L638.476 191.716H643.148L647.916 202.692L652.268 191.716H656.812ZM679.917 191.716V214.5H675.469V201.252L671.117 209.348H668.109L663.725 201.252V214.5H659.277V191.716H663.661L669.613 203.524L675.533 191.716H679.917ZM386.656 232.716H395.776C397.995 232.716 399.723 233.292 400.96 234.444C402.219 235.596 402.848 237.153 402.848 239.116C402.848 240.247 402.549 241.228 401.952 242.06C401.376 242.871 400.736 243.457 400.032 243.82C402.144 244.78 403.2 246.487 403.2 248.94C403.2 251.009 402.549 252.62 401.248 253.772C399.968 254.924 398.283 255.5 396.192 255.5H386.656V232.716ZM395.776 245.932H391.104V251.532H395.776C396.736 251.532 397.472 251.276 397.984 250.764C398.496 250.231 398.752 249.548 398.752 248.716C398.752 247.905 398.496 247.244 397.984 246.732C397.472 246.199 396.736 245.932 395.776 245.932ZM395.488 236.684H391.104V241.964H395.488C396.427 241.964 397.141 241.729 397.632 241.26C398.144 240.769 398.4 240.119 398.4 239.308C398.4 238.497 398.144 237.857 397.632 237.388C397.12 236.919 396.405 236.684 395.488 236.684ZM430.324 232.716L422.26 251.66C421.129 254.22 419.433 255.5 417.172 255.5H414.452V251.532H416.244C417.012 251.532 417.588 251.34 417.972 250.956C418.356 250.572 418.687 250.028 418.964 249.324L419.284 248.524L411.988 232.716H416.66L421.428 243.692L425.78 232.716H430.324ZM459.094 232.716V255.5H432.79V232.716H437.238V251.532H443.734V232.716H448.182V251.532H454.646V232.716H459.094ZM473.375 232.716L481.695 255.5H477.023L475.679 251.468H467.615L466.239 255.5H461.567L469.887 232.716H473.375ZM471.647 239.468L468.831 247.724H474.431L471.647 239.468ZM500.182 232.716L493.558 243.82L500.63 255.5H495.542L491.158 247.564L486.742 255.5H481.654L488.726 243.82L482.102 232.716H487.19L491.158 240.076L495.094 232.716H500.182Z" fill="black"/>
<line x1="347" y1="328.5" x2="347" y2="403" stroke="black" stroke-width="2" stroke-linecap="round"/>
</svg>
