<svg width="700" height="839" viewBox="0 0 700 839" fill="none" xmlns="http://www.w3.org/2000/svg">
<path d="M688.5 333.5C688.5 517.687 539.187 667 355 667C170.813 667 21.5 517.687 21.5 333.5C21.5 149.313 170.813 0 355 0C539.187 0 688.5 149.313 688.5 333.5ZM176.543 333.5C176.543 432.059 256.441 511.957 355 511.957C453.559 511.957 533.457 432.059 533.457 333.5C533.457 234.941 453.559 155.043 355 155.043C256.441 155.043 176.543 234.941 176.543 333.5Z" fill="#471840"/>
<path d="M355 0C266.55 -1.05475e-06 181.723 35.1365 119.18 97.6799C56.6365 160.223 21.5 245.05 21.5 333.5C21.5 421.95 56.6365 506.777 119.18 569.32C181.723 631.863 266.55 667 355 667L355 511.957C307.67 511.957 262.279 493.155 228.812 459.688C195.345 426.221 176.543 380.83 176.543 333.5C176.543 286.17 195.345 240.779 228.812 207.312C262.279 173.845 307.67 155.043 355 155.043V0Z" fill="#953385"/>
<path d="M73.472 699.912V717H70.136V702.888H64.328V717H60.992V699.912H73.472ZM86.9731 704.496L81.6211 719.016C81.3811 719.688 81.0691 720.224 80.6851 720.624C80.0451 721.264 79.1491 721.584 77.9971 721.584H76.7731V718.776H77.4931C77.9411 718.776 78.2691 718.696 78.4771 718.536C78.7011 718.392 78.8931 718.096 79.0531 717.648L79.5811 716.112L75.3091 704.496H78.5971L81.1891 712.224L83.6851 704.496H86.9731ZM98.8805 704.496V717H95.7605V711.984H91.7045V717H88.5845V704.496H91.7045V709.224H95.7605V704.496H98.8805ZM113.045 704.496L108.629 710.352L113.333 717H109.589L105.293 710.448L109.397 704.496H113.045ZM105.269 704.496V717H102.149V704.496H105.269ZM124.186 704.496V707.304H120.418V717H117.298V707.304H113.218V704.496H124.186ZM128.02 713.592V718.32L124.612 720.96V713.592H128.02ZM136.197 717V714.192L142.581 706.776C143.189 706.056 143.493 705.368 143.493 704.712C143.493 704.072 143.309 703.56 142.941 703.176C142.589 702.776 142.085 702.576 141.429 702.576C140.821 702.576 140.317 702.752 139.917 703.104C139.517 703.44 139.317 703.992 139.317 704.76H136.197C136.197 703.24 136.693 702.032 137.685 701.136C138.677 700.224 139.925 699.768 141.429 699.768C142.965 699.768 144.213 700.216 145.173 701.112C146.133 702.008 146.613 703.216 146.613 704.736C146.613 705.488 146.469 706.136 146.181 706.68C145.909 707.208 145.437 707.864 144.765 708.648L139.989 714.192H146.613V717H136.197ZM154.028 717.144C152.508 717.144 151.22 716.728 150.164 715.896C149.124 715.048 148.596 713.784 148.58 712.104H151.7C151.716 712.84 151.94 713.4 152.372 713.784C152.82 714.152 153.372 714.336 154.028 714.336C154.716 714.336 155.268 714.128 155.684 713.712C156.116 713.296 156.332 712.712 156.332 711.96C156.332 711.24 156.116 710.672 155.684 710.256C155.268 709.824 154.684 709.608 153.932 709.608H153.476V706.896H153.932C154.668 706.896 155.212 706.704 155.564 706.32C155.916 705.92 156.092 705.4 156.092 704.76C156.092 704.072 155.892 703.536 155.492 703.152C155.092 702.768 154.596 702.576 154.004 702.576C153.412 702.576 152.916 702.76 152.516 703.128C152.132 703.496 151.924 704 151.892 704.64H148.772C148.82 703.136 149.332 701.952 150.308 701.088C151.3 700.208 152.532 699.768 154.004 699.768C155.524 699.768 156.772 700.224 157.748 701.136C158.724 702.048 159.212 703.224 159.212 704.664C159.212 706.296 158.556 707.464 157.244 708.168C158.716 708.936 159.452 710.232 159.452 712.056C159.452 713.688 158.932 714.944 157.892 715.824C156.868 716.704 155.58 717.144 154.028 717.144ZM170.622 717L178.71 699.912H181.158L173.07 717H170.622ZM172.902 707.856C172.246 708.432 171.422 708.72 170.43 708.72C169.438 708.72 168.606 708.432 167.934 707.856C167.278 707.28 166.95 706.472 166.95 705.432V703.056C166.95 702.016 167.278 701.208 167.934 700.632C168.606 700.056 169.438 699.768 170.43 699.768C171.422 699.768 172.246 700.056 172.902 700.632C173.574 701.208 173.91 702.016 173.91 703.056V705.432C173.91 706.472 173.574 707.28 172.902 707.856ZM170.43 706.704C171.246 706.704 171.654 706.24 171.654 705.312V703.176C171.654 702.264 171.246 701.808 170.43 701.808C169.63 701.808 169.23 702.264 169.23 703.176V705.312C169.23 706.24 169.63 706.704 170.43 706.704ZM183.798 716.28C183.142 716.856 182.318 717.144 181.326 717.144C180.334 717.144 179.502 716.856 178.83 716.28C178.174 715.704 177.846 714.896 177.846 713.856V711.48C177.846 710.44 178.174 709.632 178.83 709.056C179.502 708.48 180.334 708.192 181.326 708.192C182.318 708.192 183.142 708.48 183.798 709.056C184.47 709.632 184.806 710.44 184.806 711.48V713.856C184.806 714.896 184.47 715.704 183.798 716.28ZM180.102 713.736C180.102 714.648 180.51 715.104 181.326 715.104C182.142 715.104 182.55 714.648 182.55 713.736V711.6C182.55 710.672 182.142 710.208 181.326 710.208C180.958 710.208 180.662 710.328 180.438 710.568C180.214 710.808 180.102 711.152 180.102 711.6V713.736Z" fill="black"/>
<rect width="35" height="31" transform="matrix(-1 0 0 1 35 692)" fill="#953385"/>
<path d="M73.488 739.944C73.68 740.84 73.776 742.344 73.776 744.456C73.776 746.568 73.68 748.072 73.488 748.968C73.296 749.864 72.816 750.696 72.048 751.464C70.928 752.584 69.512 753.144 67.8 753.144C66.072 753.144 64.648 752.584 63.528 751.464C62.776 750.712 62.304 749.888 62.112 748.992C61.92 748.096 61.824 746.584 61.824 744.456C61.824 742.328 61.92 740.816 62.112 739.92C62.304 739.024 62.776 738.2 63.528 737.448C64.648 736.328 66.072 735.768 67.8 735.768C69.512 735.768 70.928 736.328 72.048 737.448C72.816 738.216 73.296 739.048 73.488 739.944ZM71.736 748.392C71.88 747.624 71.952 746.312 71.952 744.456C71.952 742.6 71.88 741.296 71.736 740.544C71.592 739.776 71.264 739.128 70.752 738.6C69.952 737.8 68.968 737.4 67.8 737.4C66.632 737.4 65.648 737.8 64.848 738.6C64.336 739.128 64.008 739.776 63.864 740.544C63.72 741.296 63.648 742.6 63.648 744.456C63.648 746.312 63.72 747.624 63.864 748.392C64.008 749.144 64.336 749.784 64.848 750.312C65.648 751.112 66.632 751.512 67.8 751.512C68.968 751.512 69.952 751.112 70.752 750.312C71.264 749.784 71.592 749.144 71.736 748.392ZM86.6734 753H84.9454V742.68H79.2334V753H77.5294V741.192H86.6734V753ZM100.153 753H98.4253V743.856L92.3533 753H90.6493V741.192H92.3533V750.288L98.4253 741.192H100.153V753ZM112.709 751.392C112.053 752.08 111.445 752.544 110.885 752.784C110.309 753.024 109.645 753.144 108.893 753.144C107.245 753.144 105.949 752.608 105.005 751.536C104.061 750.464 103.589 748.984 103.589 747.096C103.589 745.208 104.061 743.728 105.005 742.656C105.949 741.584 107.245 741.048 108.893 741.048C109.645 741.048 110.309 741.168 110.885 741.408C111.445 741.648 112.053 742.112 112.709 742.8L111.533 743.904C111.005 743.36 110.557 743.008 110.189 742.848C109.789 742.672 109.349 742.584 108.869 742.584C106.501 742.584 105.317 744.088 105.317 747.096C105.317 750.104 106.493 751.608 108.845 751.608C109.341 751.608 109.773 751.528 110.141 751.368C110.525 751.192 110.989 750.824 111.533 750.264L112.709 751.392ZM124.187 753H122.459V751.872C121.995 752.336 121.507 752.664 120.995 752.856C120.483 753.048 119.835 753.144 119.051 753.144C117.563 753.144 116.451 752.784 115.715 752.064C115.123 751.488 114.827 750.688 114.827 749.664C114.827 748.608 115.179 747.776 115.883 747.168C116.603 746.56 117.619 746.256 118.931 746.256H122.459V745.128C122.459 744.248 122.219 743.6 121.739 743.184C121.275 742.752 120.507 742.536 119.435 742.536C118.699 742.536 118.107 742.64 117.659 742.848C117.227 743.056 116.827 743.408 116.459 743.904L115.283 742.824C115.779 742.152 116.347 741.688 116.987 741.432C117.627 741.176 118.451 741.048 119.459 741.048C122.611 741.048 124.187 742.36 124.187 744.984V753ZM122.459 748.824V747.552H119.171C117.395 747.552 116.507 748.248 116.507 749.64C116.507 750.984 117.419 751.656 119.243 751.656C120.411 751.656 121.283 751.392 121.859 750.864C122.259 750.48 122.459 749.8 122.459 748.824ZM137.299 753H135.571V747.648H129.859V753H128.155V741.192H129.859V746.16H135.571V741.192H137.299V753ZM150.896 753H149.168V743.856L143.096 753H141.392V741.192H143.096V750.288L149.168 741.192H150.896V753ZM164.028 747.552H156.06C156.06 748.864 156.356 749.872 156.948 750.576C157.54 751.28 158.404 751.632 159.54 751.632C160.212 751.632 160.772 751.528 161.22 751.32C161.684 751.112 162.156 750.768 162.636 750.288L163.812 751.32C163.172 751.96 162.532 752.424 161.892 752.712C161.252 753 160.452 753.144 159.492 753.144C157.86 753.144 156.588 752.648 155.676 751.656C154.78 750.648 154.332 749.128 154.332 747.096C154.332 745.192 154.764 743.712 155.628 742.656C156.492 741.584 157.676 741.048 159.18 741.048C160.7 741.048 161.884 741.56 162.732 742.584C163.596 743.592 164.028 744.992 164.028 746.784V747.552ZM162.324 746.256C162.26 745.344 162.132 744.688 161.94 744.288C161.38 743.104 160.46 742.512 159.18 742.512C157.9 742.512 156.98 743.104 156.42 744.288C156.228 744.704 156.108 745.36 156.06 746.256H162.324ZM182.371 749.736C182.371 750.744 182.059 751.544 181.435 752.136C180.811 752.712 179.947 753 178.843 753H173.227V741.192H178.699C179.739 741.192 180.579 741.48 181.219 742.056C181.859 742.616 182.179 743.36 182.179 744.288C182.179 745.568 181.555 746.432 180.307 746.88C181.683 747.392 182.371 748.344 182.371 749.736ZM180.475 744.432C180.475 743.264 179.779 742.68 178.387 742.68H174.931V746.208H178.387C179.779 746.208 180.475 745.616 180.475 744.432ZM180.091 750.984C180.475 750.632 180.667 750.16 180.667 749.568C180.667 748.976 180.475 748.504 180.091 748.152C179.723 747.8 179.203 747.624 178.531 747.624H174.931V751.512H178.531C179.203 751.512 179.723 751.336 180.091 750.984ZM200.781 753H199.053V747.648H193.341V753H191.637V741.192H193.341V746.16H199.053V741.192H200.781V753ZM213.898 747.552H205.93C205.93 748.864 206.226 749.872 206.818 750.576C207.41 751.28 208.274 751.632 209.41 751.632C210.082 751.632 210.642 751.528 211.09 751.32C211.554 751.112 212.026 750.768 212.506 750.288L213.682 751.32C213.042 751.96 212.402 752.424 211.762 752.712C211.122 753 210.322 753.144 209.362 753.144C207.73 753.144 206.458 752.648 205.546 751.656C204.65 750.648 204.202 749.128 204.202 747.096C204.202 745.192 204.634 743.712 205.498 742.656C206.362 741.584 207.546 741.048 209.05 741.048C210.57 741.048 211.754 741.56 212.602 742.584C213.466 743.592 213.898 744.992 213.898 746.784V747.552ZM212.194 746.256C212.13 745.344 212.002 744.688 211.81 744.288C211.25 743.104 210.33 742.512 209.05 742.512C207.77 742.512 206.85 743.104 206.29 744.288C206.098 744.704 205.978 745.36 205.93 746.256H212.194ZM225.809 751.392C225.153 752.08 224.545 752.544 223.985 752.784C223.409 753.024 222.745 753.144 221.993 753.144C220.345 753.144 219.049 752.608 218.105 751.536C217.161 750.464 216.689 748.984 216.689 747.096C216.689 745.208 217.161 743.728 218.105 742.656C219.049 741.584 220.345 741.048 221.993 741.048C222.745 741.048 223.409 741.168 223.985 741.408C224.545 741.648 225.153 742.112 225.809 742.8L224.633 743.904C224.105 743.36 223.657 743.008 223.289 742.848C222.889 742.672 222.449 742.584 221.969 742.584C219.601 742.584 218.417 744.088 218.417 747.096C218.417 750.104 219.593 751.608 221.945 751.608C222.441 751.608 222.873 751.528 223.241 751.368C223.625 751.192 224.089 750.824 224.633 750.264L225.809 751.392ZM230.686 753H228.958V741.192H230.686V753ZM238.535 753H236.302L230.71 746.88L235.918 741.192H238.054L232.75 746.76L238.535 753ZM249.154 747.096C249.154 749.256 248.674 750.824 247.714 751.8C246.85 752.696 245.722 753.144 244.33 753.144C242.938 753.144 241.81 752.696 240.946 751.8C239.986 750.824 239.506 749.256 239.506 747.096C239.506 744.92 239.986 743.352 240.946 742.392C241.81 741.496 242.938 741.048 244.33 741.048C245.722 741.048 246.85 741.496 247.714 742.392C248.674 743.352 249.154 744.92 249.154 747.096ZM247.426 747.096C247.426 745.288 247.114 744.072 246.49 743.448C245.914 742.872 245.194 742.584 244.33 742.584C243.482 742.584 242.77 742.872 242.194 743.448C241.554 744.088 241.234 745.304 241.234 747.096C241.234 748.888 241.554 750.104 242.194 750.744C242.77 751.32 243.482 751.608 244.33 751.608C245.194 751.608 245.914 751.32 246.49 750.744C247.114 750.104 247.426 748.888 247.426 747.096ZM260.932 753H259.204V742.68H255.028V746.76C255.028 749.08 254.7 750.704 254.044 751.632C253.388 752.544 252.468 753 251.284 753H250.492V751.512H250.876C251.132 751.512 251.356 751.488 251.548 751.44C251.74 751.392 251.956 751.272 252.196 751.08C252.452 750.872 252.652 750.592 252.796 750.24C252.956 749.888 253.092 749.376 253.204 748.704C253.316 748.016 253.372 747.2 253.372 746.256V741.192H260.932V753ZM273.002 746.856C273.69 747.512 274.034 748.376 274.034 749.448C274.034 750.52 273.69 751.384 273.002 752.04C272.314 752.68 271.41 753 270.29 753H265.034V741.192H266.738V745.872H270.29C271.426 745.872 272.33 746.2 273.002 746.856ZM271.73 750.984C272.114 750.616 272.306 750.104 272.306 749.448C272.306 748.792 272.114 748.288 271.73 747.936C271.362 747.568 270.818 747.384 270.098 747.384H266.738V751.512H270.098C270.818 751.512 271.362 751.336 271.73 750.984ZM278.734 753H277.006V741.192H278.734V753ZM286.582 753H284.35L278.758 746.88L283.966 741.192H286.102L280.798 746.76L286.582 753ZM297.202 747.096C297.202 749.256 296.722 750.824 295.762 751.8C294.898 752.696 293.77 753.144 292.378 753.144C290.986 753.144 289.858 752.696 288.994 751.8C288.034 750.824 287.554 749.256 287.554 747.096C287.554 744.92 288.034 743.352 288.994 742.392C289.858 741.496 290.986 741.048 292.378 741.048C293.77 741.048 294.898 741.496 295.762 742.392C296.722 743.352 297.202 744.92 297.202 747.096ZM295.474 747.096C295.474 745.288 295.162 744.072 294.538 743.448C293.962 742.872 293.242 742.584 292.378 742.584C291.53 742.584 290.818 742.872 290.242 743.448C289.602 744.088 289.282 745.304 289.282 747.096C289.282 748.888 289.602 750.104 290.242 750.744C290.818 751.32 291.53 751.608 292.378 751.608C293.242 751.608 293.962 751.32 294.538 750.744C295.162 750.104 295.474 748.888 295.474 747.096ZM314.873 751.392C314.217 752.08 313.609 752.544 313.049 752.784C312.473 753.024 311.809 753.144 311.057 753.144C309.409 753.144 308.113 752.608 307.169 751.536C306.225 750.464 305.753 748.984 305.753 747.096C305.753 745.208 306.225 743.728 307.169 742.656C308.113 741.584 309.409 741.048 311.057 741.048C311.809 741.048 312.473 741.168 313.049 741.408C313.609 741.648 314.217 742.112 314.873 742.8L313.697 743.904C313.169 743.36 312.721 743.008 312.353 742.848C311.953 742.672 311.513 742.584 311.033 742.584C308.665 742.584 307.481 744.088 307.481 747.096C307.481 750.104 308.657 751.608 311.009 751.608C311.505 751.608 311.937 751.528 312.305 751.368C312.689 751.192 313.153 750.824 313.697 750.264L314.873 751.392ZM325.796 742.68H321.932V753H320.204V742.68H316.148V741.192H325.796V742.68ZM337.337 747.096C337.337 749.464 336.857 751.136 335.897 752.112C335.209 752.8 334.249 753.144 333.017 753.144C331.609 753.144 330.497 752.632 329.681 751.608V758.28H327.953V741.192H329.681V742.584C330.497 741.56 331.609 741.048 333.017 741.048C334.249 741.048 335.209 741.392 335.897 742.08C336.857 743.04 337.337 744.712 337.337 747.096ZM335.489 748.8C335.569 748.32 335.609 747.752 335.609 747.096C335.609 746.44 335.569 745.872 335.489 745.392C335.425 744.912 335.297 744.448 335.105 744C334.913 743.536 334.609 743.184 334.193 742.944C333.777 742.704 333.265 742.584 332.657 742.584C332.161 742.584 331.729 742.672 331.361 742.848C330.993 743.008 330.697 743.224 330.473 743.496C330.265 743.768 330.097 744.112 329.969 744.528C329.857 744.944 329.777 745.352 329.729 745.752C329.697 746.136 329.681 746.584 329.681 747.096C329.681 747.608 329.697 748.064 329.729 748.464C329.777 748.848 329.857 749.248 329.969 749.664C330.097 750.08 330.265 750.424 330.473 750.696C330.697 750.968 330.993 751.192 331.361 751.368C331.729 751.528 332.161 751.608 332.657 751.608C333.265 751.608 333.777 751.488 334.193 751.248C334.609 751.008 334.913 750.664 335.105 750.216C335.297 749.752 335.425 749.28 335.489 748.8ZM349.815 747.096C349.815 749.256 349.335 750.824 348.375 751.8C347.511 752.696 346.383 753.144 344.991 753.144C343.599 753.144 342.471 752.696 341.607 751.8C340.647 750.824 340.167 749.256 340.167 747.096C340.167 744.92 340.647 743.352 341.607 742.392C342.471 741.496 343.599 741.048 344.991 741.048C346.383 741.048 347.511 741.496 348.375 742.392C349.335 743.352 349.815 744.92 349.815 747.096ZM348.087 747.096C348.087 745.288 347.775 744.072 347.151 743.448C346.575 742.872 345.855 742.584 344.991 742.584C344.143 742.584 343.431 742.872 342.855 743.448C342.215 744.088 341.895 745.304 341.895 747.096C341.895 748.888 342.215 750.104 342.855 750.744C343.431 751.32 344.143 751.608 344.991 751.608C345.855 751.608 346.575 751.32 347.151 750.744C347.775 750.104 348.087 748.888 348.087 747.096ZM355.101 753H353.373V741.192H355.101V753ZM362.949 753H360.717L355.125 746.88L360.333 741.192H362.469L357.165 746.76L362.949 753Z" fill="black"/>
<path d="M73.472 778.912V796H70.136V781.888H64.328V796H60.992V778.912H73.472ZM86.9731 783.496L81.6211 798.016C81.3811 798.688 81.0691 799.224 80.6851 799.624C80.0451 800.264 79.1491 800.584 77.9971 800.584H76.7731V797.776H77.4931C77.9411 797.776 78.2691 797.696 78.4771 797.536C78.7011 797.392 78.8931 797.096 79.0531 796.648L79.5811 795.112L75.3091 783.496H78.5971L81.1891 791.224L83.6851 783.496H86.9731ZM98.8805 783.496V796H95.7605V790.984H91.7045V796H88.5845V783.496H91.7045V788.224H95.7605V783.496H98.8805ZM113.045 783.496L108.629 789.352L113.333 796H109.589L105.293 789.448L109.397 783.496H113.045ZM105.269 783.496V796H102.149V783.496H105.269ZM124.186 783.496V786.304H120.418V796H117.298V786.304H113.218V783.496H124.186ZM128.02 792.592V797.32L124.612 799.96V792.592H128.02ZM136.197 796V793.192L142.581 785.776C143.189 785.056 143.493 784.368 143.493 783.712C143.493 783.072 143.309 782.56 142.941 782.176C142.589 781.776 142.085 781.576 141.429 781.576C140.821 781.576 140.317 781.752 139.917 782.104C139.517 782.44 139.317 782.992 139.317 783.76H136.197C136.197 782.24 136.693 781.032 137.685 780.136C138.677 779.224 139.925 778.768 141.429 778.768C142.965 778.768 144.213 779.216 145.173 780.112C146.133 781.008 146.613 782.216 146.613 783.736C146.613 784.488 146.469 785.136 146.181 785.68C145.909 786.208 145.437 786.864 144.765 787.648L139.989 793.192H146.613V796H136.197ZM154.028 796.144C152.508 796.144 151.22 795.728 150.164 794.896C149.124 794.048 148.596 792.784 148.58 791.104H151.7C151.716 791.84 151.94 792.4 152.372 792.784C152.82 793.152 153.372 793.336 154.028 793.336C154.716 793.336 155.268 793.128 155.684 792.712C156.116 792.296 156.332 791.712 156.332 790.96C156.332 790.24 156.116 789.672 155.684 789.256C155.268 788.824 154.684 788.608 153.932 788.608H153.476V785.896H153.932C154.668 785.896 155.212 785.704 155.564 785.32C155.916 784.92 156.092 784.4 156.092 783.76C156.092 783.072 155.892 782.536 155.492 782.152C155.092 781.768 154.596 781.576 154.004 781.576C153.412 781.576 152.916 781.76 152.516 782.128C152.132 782.496 151.924 783 151.892 783.64H148.772C148.82 782.136 149.332 780.952 150.308 780.088C151.3 779.208 152.532 778.768 154.004 778.768C155.524 778.768 156.772 779.224 157.748 780.136C158.724 781.048 159.212 782.224 159.212 783.664C159.212 785.296 158.556 786.464 157.244 787.168C158.716 787.936 159.452 789.232 159.452 791.056C159.452 792.688 158.932 793.944 157.892 794.824C156.868 795.704 155.58 796.144 154.028 796.144ZM170.622 796L178.71 778.912H181.158L173.07 796H170.622ZM172.902 786.856C172.246 787.432 171.422 787.72 170.43 787.72C169.438 787.72 168.606 787.432 167.934 786.856C167.278 786.28 166.95 785.472 166.95 784.432V782.056C166.95 781.016 167.278 780.208 167.934 779.632C168.606 779.056 169.438 778.768 170.43 778.768C171.422 778.768 172.246 779.056 172.902 779.632C173.574 780.208 173.91 781.016 173.91 782.056V784.432C173.91 785.472 173.574 786.28 172.902 786.856ZM170.43 785.704C171.246 785.704 171.654 785.24 171.654 784.312V782.176C171.654 781.264 171.246 780.808 170.43 780.808C169.63 780.808 169.23 781.264 169.23 782.176V784.312C169.23 785.24 169.63 785.704 170.43 785.704ZM183.798 795.28C183.142 795.856 182.318 796.144 181.326 796.144C180.334 796.144 179.502 795.856 178.83 795.28C178.174 794.704 177.846 793.896 177.846 792.856V790.48C177.846 789.44 178.174 788.632 178.83 788.056C179.502 787.48 180.334 787.192 181.326 787.192C182.318 787.192 183.142 787.48 183.798 788.056C184.47 788.632 184.806 789.44 184.806 790.48V792.856C184.806 793.896 184.47 794.704 183.798 795.28ZM180.102 792.736C180.102 793.648 180.51 794.104 181.326 794.104C182.142 794.104 182.55 793.648 182.55 792.736V790.6C182.55 789.672 182.142 789.208 181.326 789.208C180.958 789.208 180.662 789.328 180.438 789.568C180.214 789.808 180.102 790.152 180.102 790.6V792.736Z" fill="black"/>
<rect width="35" height="31" transform="matrix(-1 0 0 1 35 771)" fill="#471840"/>
<path d="M73.488 818.944C73.68 819.84 73.776 821.344 73.776 823.456C73.776 825.568 73.68 827.072 73.488 827.968C73.296 828.864 72.816 829.696 72.048 830.464C70.928 831.584 69.512 832.144 67.8 832.144C66.072 832.144 64.648 831.584 63.528 830.464C62.776 829.712 62.304 828.888 62.112 827.992C61.92 827.096 61.824 825.584 61.824 823.456C61.824 821.328 61.92 819.816 62.112 818.92C62.304 818.024 62.776 817.2 63.528 816.448C64.648 815.328 66.072 814.768 67.8 814.768C69.512 814.768 70.928 815.328 72.048 816.448C72.816 817.216 73.296 818.048 73.488 818.944ZM71.736 827.392C71.88 826.624 71.952 825.312 71.952 823.456C71.952 821.6 71.88 820.296 71.736 819.544C71.592 818.776 71.264 818.128 70.752 817.6C69.952 816.8 68.968 816.4 67.8 816.4C66.632 816.4 65.648 816.8 64.848 817.6C64.336 818.128 64.008 818.776 63.864 819.544C63.72 820.296 63.648 821.6 63.648 823.456C63.648 825.312 63.72 826.624 63.864 827.392C64.008 828.144 64.336 828.784 64.848 829.312C65.648 830.112 66.632 830.512 67.8 830.512C68.968 830.512 69.952 830.112 70.752 829.312C71.264 828.784 71.592 828.144 71.736 827.392ZM86.6734 832H84.9454V821.68H79.2334V832H77.5294V820.192H86.6734V832ZM100.153 832H98.4253V822.856L92.3533 832H90.6493V820.192H92.3533V829.288L98.4253 820.192H100.153V832ZM112.709 830.392C112.053 831.08 111.445 831.544 110.885 831.784C110.309 832.024 109.645 832.144 108.893 832.144C107.245 832.144 105.949 831.608 105.005 830.536C104.061 829.464 103.589 827.984 103.589 826.096C103.589 824.208 104.061 822.728 105.005 821.656C105.949 820.584 107.245 820.048 108.893 820.048C109.645 820.048 110.309 820.168 110.885 820.408C111.445 820.648 112.053 821.112 112.709 821.8L111.533 822.904C111.005 822.36 110.557 822.008 110.189 821.848C109.789 821.672 109.349 821.584 108.869 821.584C106.501 821.584 105.317 823.088 105.317 826.096C105.317 829.104 106.493 830.608 108.845 830.608C109.341 830.608 109.773 830.528 110.141 830.368C110.525 830.192 110.989 829.824 111.533 829.264L112.709 830.392ZM124.187 832H122.459V830.872C121.995 831.336 121.507 831.664 120.995 831.856C120.483 832.048 119.835 832.144 119.051 832.144C117.563 832.144 116.451 831.784 115.715 831.064C115.123 830.488 114.827 829.688 114.827 828.664C114.827 827.608 115.179 826.776 115.883 826.168C116.603 825.56 117.619 825.256 118.931 825.256H122.459V824.128C122.459 823.248 122.219 822.6 121.739 822.184C121.275 821.752 120.507 821.536 119.435 821.536C118.699 821.536 118.107 821.64 117.659 821.848C117.227 822.056 116.827 822.408 116.459 822.904L115.283 821.824C115.779 821.152 116.347 820.688 116.987 820.432C117.627 820.176 118.451 820.048 119.459 820.048C122.611 820.048 124.187 821.36 124.187 823.984V832ZM122.459 827.824V826.552H119.171C117.395 826.552 116.507 827.248 116.507 828.64C116.507 829.984 117.419 830.656 119.243 830.656C120.411 830.656 121.283 830.392 121.859 829.864C122.259 829.48 122.459 828.8 122.459 827.824ZM137.299 832H135.571V826.648H129.859V832H128.155V820.192H129.859V825.16H135.571V820.192H137.299V832ZM150.896 832H149.168V822.856L143.096 832H141.392V820.192H143.096V829.288L149.168 820.192H150.896V832ZM164.028 826.552H156.06C156.06 827.864 156.356 828.872 156.948 829.576C157.54 830.28 158.404 830.632 159.54 830.632C160.212 830.632 160.772 830.528 161.22 830.32C161.684 830.112 162.156 829.768 162.636 829.288L163.812 830.32C163.172 830.96 162.532 831.424 161.892 831.712C161.252 832 160.452 832.144 159.492 832.144C157.86 832.144 156.588 831.648 155.676 830.656C154.78 829.648 154.332 828.128 154.332 826.096C154.332 824.192 154.764 822.712 155.628 821.656C156.492 820.584 157.676 820.048 159.18 820.048C160.7 820.048 161.884 820.56 162.732 821.584C163.596 822.592 164.028 823.992 164.028 825.784V826.552ZM162.324 825.256C162.26 824.344 162.132 823.688 161.94 823.288C161.38 822.104 160.46 821.512 159.18 821.512C157.9 821.512 156.98 822.104 156.42 823.288C156.228 823.704 156.108 824.36 156.06 825.256H162.324ZM182.371 828.736C182.371 829.744 182.059 830.544 181.435 831.136C180.811 831.712 179.947 832 178.843 832H173.227V820.192H178.699C179.739 820.192 180.579 820.48 181.219 821.056C181.859 821.616 182.179 822.36 182.179 823.288C182.179 824.568 181.555 825.432 180.307 825.88C181.683 826.392 182.371 827.344 182.371 828.736ZM180.475 823.432C180.475 822.264 179.779 821.68 178.387 821.68H174.931V825.208H178.387C179.779 825.208 180.475 824.616 180.475 823.432ZM180.091 829.984C180.475 829.632 180.667 829.16 180.667 828.568C180.667 827.976 180.475 827.504 180.091 827.152C179.723 826.8 179.203 826.624 178.531 826.624H174.931V830.512H178.531C179.203 830.512 179.723 830.336 180.091 829.984ZM200.781 832H199.053V826.648H193.341V832H191.637V820.192H193.341V825.16H199.053V820.192H200.781V832ZM213.898 826.552H205.93C205.93 827.864 206.226 828.872 206.818 829.576C207.41 830.28 208.274 830.632 209.41 830.632C210.082 830.632 210.642 830.528 211.09 830.32C211.554 830.112 212.026 829.768 212.506 829.288L213.682 830.32C213.042 830.96 212.402 831.424 211.762 831.712C211.122 832 210.322 832.144 209.362 832.144C207.73 832.144 206.458 831.648 205.546 830.656C204.65 829.648 204.202 828.128 204.202 826.096C204.202 824.192 204.634 822.712 205.498 821.656C206.362 820.584 207.546 820.048 209.05 820.048C210.57 820.048 211.754 820.56 212.602 821.584C213.466 822.592 213.898 823.992 213.898 825.784V826.552ZM212.194 825.256C212.13 824.344 212.002 823.688 211.81 823.288C211.25 822.104 210.33 821.512 209.05 821.512C207.77 821.512 206.85 822.104 206.29 823.288C206.098 823.704 205.978 824.36 205.93 825.256H212.194ZM225.809 830.392C225.153 831.08 224.545 831.544 223.985 831.784C223.409 832.024 222.745 832.144 221.993 832.144C220.345 832.144 219.049 831.608 218.105 830.536C217.161 829.464 216.689 827.984 216.689 826.096C216.689 824.208 217.161 822.728 218.105 821.656C219.049 820.584 220.345 820.048 221.993 820.048C222.745 820.048 223.409 820.168 223.985 820.408C224.545 820.648 225.153 821.112 225.809 821.8L224.633 822.904C224.105 822.36 223.657 822.008 223.289 821.848C222.889 821.672 222.449 821.584 221.969 821.584C219.601 821.584 218.417 823.088 218.417 826.096C218.417 829.104 219.593 830.608 221.945 830.608C222.441 830.608 222.873 830.528 223.241 830.368C223.625 830.192 224.089 829.824 224.633 829.264L225.809 830.392ZM230.686 832H228.958V820.192H230.686V832ZM238.535 832H236.302L230.71 825.88L235.918 820.192H238.054L232.75 825.76L238.535 832ZM249.154 826.096C249.154 828.256 248.674 829.824 247.714 830.8C246.85 831.696 245.722 832.144 244.33 832.144C242.938 832.144 241.81 831.696 240.946 830.8C239.986 829.824 239.506 828.256 239.506 826.096C239.506 823.92 239.986 822.352 240.946 821.392C241.81 820.496 242.938 820.048 244.33 820.048C245.722 820.048 246.85 820.496 247.714 821.392C248.674 822.352 249.154 823.92 249.154 826.096ZM247.426 826.096C247.426 824.288 247.114 823.072 246.49 822.448C245.914 821.872 245.194 821.584 244.33 821.584C243.482 821.584 242.77 821.872 242.194 822.448C241.554 823.088 241.234 824.304 241.234 826.096C241.234 827.888 241.554 829.104 242.194 829.744C242.77 830.32 243.482 830.608 244.33 830.608C245.194 830.608 245.914 830.32 246.49 829.744C247.114 829.104 247.426 827.888 247.426 826.096ZM260.932 832H259.204V821.68H255.028V825.76C255.028 828.08 254.7 829.704 254.044 830.632C253.388 831.544 252.468 832 251.284 832H250.492V830.512H250.876C251.132 830.512 251.356 830.488 251.548 830.44C251.74 830.392 251.956 830.272 252.196 830.08C252.452 829.872 252.652 829.592 252.796 829.24C252.956 828.888 253.092 828.376 253.204 827.704C253.316 827.016 253.372 826.2 253.372 825.256V820.192H260.932V832ZM273.002 825.856C273.69 826.512 274.034 827.376 274.034 828.448C274.034 829.52 273.69 830.384 273.002 831.04C272.314 831.68 271.41 832 270.29 832H265.034V820.192H266.738V824.872H270.29C271.426 824.872 272.33 825.2 273.002 825.856ZM271.73 829.984C272.114 829.616 272.306 829.104 272.306 828.448C272.306 827.792 272.114 827.288 271.73 826.936C271.362 826.568 270.818 826.384 270.098 826.384H266.738V830.512H270.098C270.818 830.512 271.362 830.336 271.73 829.984ZM278.734 832H277.006V820.192H278.734V832ZM286.582 832H284.35L278.758 825.88L283.966 820.192H286.102L280.798 825.76L286.582 832ZM297.202 826.096C297.202 828.256 296.722 829.824 295.762 830.8C294.898 831.696 293.77 832.144 292.378 832.144C290.986 832.144 289.858 831.696 288.994 830.8C288.034 829.824 287.554 828.256 287.554 826.096C287.554 823.92 288.034 822.352 288.994 821.392C289.858 820.496 290.986 820.048 292.378 820.048C293.77 820.048 294.898 820.496 295.762 821.392C296.722 822.352 297.202 823.92 297.202 826.096ZM295.474 826.096C295.474 824.288 295.162 823.072 294.538 822.448C293.962 821.872 293.242 821.584 292.378 821.584C291.53 821.584 290.818 821.872 290.242 822.448C289.602 823.088 289.282 824.304 289.282 826.096C289.282 827.888 289.602 829.104 290.242 829.744C290.818 830.32 291.53 830.608 292.378 830.608C293.242 830.608 293.962 830.32 294.538 829.744C295.162 829.104 295.474 827.888 295.474 826.096ZM314.873 830.392C314.217 831.08 313.609 831.544 313.049 831.784C312.473 832.024 311.809 832.144 311.057 832.144C309.409 832.144 308.113 831.608 307.169 830.536C306.225 829.464 305.753 827.984 305.753 826.096C305.753 824.208 306.225 822.728 307.169 821.656C308.113 820.584 309.409 820.048 311.057 820.048C311.809 820.048 312.473 820.168 313.049 820.408C313.609 820.648 314.217 821.112 314.873 821.8L313.697 822.904C313.169 822.36 312.721 822.008 312.353 821.848C311.953 821.672 311.513 821.584 311.033 821.584C308.665 821.584 307.481 823.088 307.481 826.096C307.481 829.104 308.657 830.608 311.009 830.608C311.505 830.608 311.937 830.528 312.305 830.368C312.689 830.192 313.153 829.824 313.697 829.264L314.873 830.392ZM325.796 821.68H321.932V832H320.204V821.68H316.148V820.192H325.796V821.68ZM337.337 826.096C337.337 828.464 336.857 830.136 335.897 831.112C335.209 831.8 334.249 832.144 333.017 832.144C331.609 832.144 330.497 831.632 329.681 830.608V837.28H327.953V820.192H329.681V821.584C330.497 820.56 331.609 820.048 333.017 820.048C334.249 820.048 335.209 820.392 335.897 821.08C336.857 822.04 337.337 823.712 337.337 826.096ZM335.489 827.8C335.569 827.32 335.609 826.752 335.609 826.096C335.609 825.44 335.569 824.872 335.489 824.392C335.425 823.912 335.297 823.448 335.105 823C334.913 822.536 334.609 822.184 334.193 821.944C333.777 821.704 333.265 821.584 332.657 821.584C332.161 821.584 331.729 821.672 331.361 821.848C330.993 822.008 330.697 822.224 330.473 822.496C330.265 822.768 330.097 823.112 329.969 823.528C329.857 823.944 329.777 824.352 329.729 824.752C329.697 825.136 329.681 825.584 329.681 826.096C329.681 826.608 329.697 827.064 329.729 827.464C329.777 827.848 329.857 828.248 329.969 828.664C330.097 829.08 330.265 829.424 330.473 829.696C330.697 829.968 330.993 830.192 331.361 830.368C331.729 830.528 332.161 830.608 332.657 830.608C333.265 830.608 333.777 830.488 334.193 830.248C334.609 830.008 334.913 829.664 335.105 829.216C335.297 828.752 335.425 828.28 335.489 827.8ZM349.815 826.096C349.815 828.256 349.335 829.824 348.375 830.8C347.511 831.696 346.383 832.144 344.991 832.144C343.599 832.144 342.471 831.696 341.607 830.8C340.647 829.824 340.167 828.256 340.167 826.096C340.167 823.92 340.647 822.352 341.607 821.392C342.471 820.496 343.599 820.048 344.991 820.048C346.383 820.048 347.511 820.496 348.375 821.392C349.335 822.352 349.815 823.92 349.815 826.096ZM348.087 826.096C348.087 824.288 347.775 823.072 347.151 822.448C346.575 821.872 345.855 821.584 344.991 821.584C344.143 821.584 343.431 821.872 342.855 822.448C342.215 823.088 341.895 824.304 341.895 826.096C341.895 827.888 342.215 829.104 342.855 829.744C343.431 830.32 344.143 830.608 344.991 830.608C345.855 830.608 346.575 830.32 347.151 829.744C347.775 829.104 348.087 827.888 348.087 826.096ZM355.101 832H353.373V820.192H355.101V832ZM362.949 832H360.717L355.125 825.88L360.333 820.192H362.469L357.165 825.76L362.949 832Z" fill="black"/>
</svg>
