<svg width="1012" height="68" viewBox="0 0 1012 68" fill="none" xmlns="http://www.w3.org/2000/svg">
<path d="M1 55H983.601L1012 67H1V55Z" fill="#FF7900"/>
<path d="M49.948 1.496L27.132 32.224L52.156 67H36.792L13.516 32.684L35.044 1.496H49.948ZM13.424 1.496V67H0.636V1.496H13.424ZM105.214 1.496V67H92.4261V12.904H76.8781V31.948C76.8781 40.964 76.0808 48.0787 74.4861 53.292C72.9528 58.444 70.7448 62.032 67.8621 64.056C65.0408 66.0187 61.2688 67 56.5461 67H51.4861V55.592H53.3261C55.1048 55.592 56.6075 55.2853 57.8341 54.672C59.1221 53.9973 60.2875 52.832 61.3301 51.176C62.4341 49.4587 63.2315 46.944 63.7221 43.632C64.2741 40.32 64.5501 36.18 64.5501 31.212V1.496H105.214ZM169.316 1.496V67H156.528V24.864L131.044 67H119.636V1.496H132.424V43.632L157.908 1.496H169.316ZM231.513 1.496V67H218.725V39.584H196.461V67H183.673V1.496H196.461V28.176H218.725V1.496H231.513ZM295.503 1.496V67H282.715V24.864L257.231 67H245.823V1.496H258.611V43.632L284.095 1.496H295.503ZM354.296 1.496V67H341.508V39.584C341.386 39.584 340.098 39.7987 337.644 40.228C335.252 40.596 333.044 40.872 331.02 41.056C328.996 41.24 326.942 41.332 324.856 41.332C320.256 41.332 316.3 39.952 312.988 37.192C309.738 34.432 308.112 30.5067 308.112 25.416V1.496H320.9V22.012C320.9 27.2867 323.63 29.924 329.088 29.924C332.768 29.924 336.908 29.464 341.508 28.544V1.496H354.296ZM411.834 1.496V12.904H381.474V28.268H407.418V39.676H381.474V55.592H411.834V67H368.686V1.496H411.834ZM445.457 0.943995C451.775 0.943995 457.08 2.72266 461.373 6.28C465.667 9.83733 468.365 14.9587 469.469 21.644H456.497C455.025 15.4493 451.345 12.352 445.457 12.352C441.961 12.352 439.232 13.4867 437.269 15.756C436.043 17.1667 435.184 19.0987 434.693 21.552C434.264 23.944 434.049 28.176 434.049 34.248C434.049 40.32 434.264 44.5827 434.693 47.036C435.184 49.428 436.043 51.3293 437.269 52.74C439.232 55.0093 441.961 56.144 445.457 56.144C451.345 56.144 455.025 53.0467 456.497 46.852H469.469C468.365 53.5373 465.667 58.6587 461.373 62.216C457.08 65.7733 451.775 67.552 445.457 67.552C438.465 67.552 432.608 65.252 427.885 60.652C424.88 57.6467 423.009 54.3653 422.273 50.808C421.599 47.1893 421.261 41.6693 421.261 34.248C421.261 26.8267 421.599 21.3373 422.273 17.78C423.009 14.1613 424.88 10.8493 427.885 7.844C432.608 3.244 438.465 0.943995 445.457 0.943995ZM528.912 1.496L506.096 32.224L531.12 67H515.756L492.48 32.684L514.008 1.496H528.912ZM492.388 1.496V67H479.6V1.496H492.388ZM586.938 1.496V67H574.15V24.864L548.666 67H537.258V1.496H550.046V43.632L575.53 1.496H586.938ZM644.443 1.496V12.904H614.083V28.268H640.027V39.676H614.083V55.592H644.443V67H601.295V1.496H644.443ZM698.529 0.943995C704.847 0.943995 710.152 2.72266 714.445 6.28C718.739 9.83733 721.437 14.9587 722.541 21.644H709.569C708.097 15.4493 704.417 12.352 698.529 12.352C695.033 12.352 692.304 13.4867 690.341 15.756C689.115 17.1667 688.256 19.0987 687.765 21.552C687.336 23.944 687.121 28.176 687.121 34.248C687.121 40.32 687.336 44.5827 687.765 47.036C688.256 49.428 689.115 51.3293 690.341 52.74C692.304 55.0093 695.033 56.144 698.529 56.144C704.417 56.144 708.097 53.0467 709.569 46.852H722.541C721.437 53.5373 718.739 58.6587 714.445 62.216C710.152 65.7733 704.847 67.552 698.529 67.552C691.537 67.552 685.68 65.252 680.957 60.652C677.952 57.6467 676.081 54.3653 675.345 50.808C674.671 47.1893 674.333 41.6693 674.333 34.248C674.333 26.8267 674.671 21.3373 675.345 17.78C676.081 14.1613 677.952 10.8493 680.957 7.844C685.68 3.244 691.537 0.943995 698.529 0.943995ZM779.143 1.496V67H766.355V12.904H750.807V31.948C750.807 40.964 750.01 48.0787 748.415 53.292C746.882 58.444 744.674 62.032 741.791 64.056C738.97 66.0187 735.198 67 730.475 67H725.415V55.592H727.255C729.034 55.592 730.536 55.2853 731.763 54.672C733.051 53.9973 734.216 52.832 735.259 51.176C736.363 49.4587 737.16 46.944 737.651 43.632C738.203 40.32 738.479 36.18 738.479 31.212V1.496H779.143ZM839.013 1.496L815.829 55.96C812.578 63.32 807.702 67 801.201 67H793.381V55.592H798.533C800.741 55.592 802.397 55.04 803.501 53.936C804.605 52.832 805.555 51.268 806.353 49.244L807.273 46.944L786.297 1.496H799.729L813.437 33.052L825.949 1.496H839.013ZM890.538 1.496V67H877.75V39.584C877.627 39.584 876.339 39.7987 873.886 40.228C871.494 40.596 869.286 40.872 867.262 41.056C865.238 41.24 863.183 41.332 861.098 41.332C856.498 41.332 852.542 39.952 849.23 37.192C845.979 34.432 844.354 30.5067 844.354 25.416V1.496H857.142V22.012C857.142 27.2867 859.871 29.924 865.33 29.924C869.01 29.924 873.15 29.464 877.75 28.544V1.496H890.538ZM931.608 1.496L955.528 67H942.096L938.232 55.408H915.048L911.092 67H897.66L921.58 1.496H931.608ZM926.64 20.908L918.544 44.644H934.644L926.64 20.908ZM1011.82 1.496V67H999.029V24.864L973.545 67H962.137V1.496H974.925V43.632L1000.41 1.496H1011.82Z" fill="black"/>
</svg>
