<svg xmlns="http://www.w3.org/2000/svg" xml:space="preserve" fill-rule="evenodd" stroke-linejoin="round" stroke-miterlimit="2" clip-rule="evenodd" viewBox="0 0 187 55"><path fill="#9d9d9c" d="M29.3 0h-3.9C16.2.8 8.3 6 3.8 13.6V0H0v55h54.7V0h-3.8v13.5A27.3 27.3 0 0 0 29.3 0ZM3.8 51.2h9.6c-4-2.3-7.2-5.6-9.6-9.6v9.6Zm47-9.6c-2.3 4-5.6 7.3-9.5 9.6h9.6v-9.6Zm-21.5-12V51a23.6 23.6 0 0 0 21.5-21.7H29.3Zm-25.4 0C4.9 41 13.9 50 25.4 51V29.4H4ZM29.3 3.8v21.7h21.5c-1-11.6-10-20.7-21.5-21.7Zm-3.9 0A23.6 23.6 0 0 0 4 25.6h21.5V3.9Z"/><path fill="#ed7a33" d="M67.1 48.7h5.3c0 .7-.1 1.4-.3 2-.3.8-.7 1.4-1.2 1.8a3 3 0 0 1-2 .7c-1 0-1.8-.3-2.3-.8-.5-.5-.8-1.2-1-2.2h-2.2c.1 1 .4 1.7.8 2.5.4.7 1 1.3 1.8 1.7.8.4 1.8.6 3 .6 1.1 0 2.1-.3 3-.8.8-.6 1.5-1.3 2-2.3.4-1 .6-2.2.6-3.6v-1.5c0-1.3-.2-2.5-.7-3.5a5.4 5.4 0 0 0-5-3.1c-1.2 0-2.1.2-3 .6-.7.4-1.3 1-1.7 1.7-.4.8-.7 1.6-.8 2.5h2.2l.5-1.6c.2-.4.6-.8 1-1 .5-.3 1-.4 1.7-.4.8 0 1.5.2 2 .6.5.4 1 1 1.2 1.7.3.7.4 1.6.4 2.5h-5.3v1.9Zm99-1.1c0 1.5-.3 2.8-.9 4-.5 1-1.3 2-2.3 2.5-1 .6-2 .9-3.3.9-1.2 0-2.3-.3-3.3-.9-1-.6-1.8-1.4-2.3-2.6a8.7 8.7 0 0 1-.9-4c0-1.5.3-2.8.9-3.9a6.2 6.2 0 0 1 5.6-3.5c1.3 0 2.4.3 3.3 1 1 .5 1.8 1.4 2.3 2.5.6 1.1.9 2.4.9 4ZM99 45h2.1a6 6 0 0 0-.7-2c-.3-.6-.7-1.1-1.3-1.6-.5-.4-1-.7-1.8-1a6.7 6.7 0 0 0-5.4.6c-1 .6-1.7 1.5-2.3 2.6a8.7 8.7 0 0 0-.9 4c0 1.5.3 2.8.9 4 .5 1 1.3 2 2.3 2.5a6.6 6.6 0 0 0 5.5.5c.7-.2 1.3-.5 1.8-1 .5-.4 1-.9 1.3-1.5a6 6 0 0 0 .6-2H99a3.4 3.4 0 0 1-2.5 2.7 4.4 4.4 0 0 1-3.5-.4c-.6-.4-1.2-1-1.5-1.8a7 7 0 0 1-.6-3 7 7 0 0 1 .6-3c.3-.8.9-1.4 1.5-1.8a4.3 4.3 0 0 1 3.5-.4 3.6 3.6 0 0 1 2 1.4L99 45ZM50.8 25.6a23.6 23.6 0 0 0-40-14.8L8 8l.1-.2a27.3 27.3 0 0 1 19-7.9h.4a27.2 27.2 0 0 1 27.1 25.6v3.8a27.6 27.6 0 0 1-27 25.6H27a27.2 27.2 0 0 1-19-8l2.6-2.8c4.3 4.3 10.1 7 16.6 7 12.4 0 22.5-9.6 23.5-21.8H17v-3.8h33.8Zm34.8 29.2-4.9-6.5h-1.5v6.5H77V40.3h2.2v6.2h.7l5.5-6.2H88l-5.8 6.5 6 8h-2.6Zm88.2-14.5h-5.3v14.5h5.5c1.1 0 2-.2 2.8-.5a3.5 3.5 0 0 0 2-3.4c0-.7 0-1.4-.4-1.9-.3-.5-.7-1-1.1-1.2-.5-.3-1-.4-1.4-.5v-.1l1.2-.5.9-1c.2-.4.3-1 .3-1.6 0-.7-.2-1.3-.5-1.9-.3-.6-.8-1-1.5-1.3-.7-.4-1.5-.6-2.5-.6Zm-32.9 0v2h4.5v12.5h2.2V42.2h4.5v-1.9h-11.2Zm-11.6 0h5.1c1.1 0 2 .3 2.8.7a4 4 0 0 1 1.7 1.6c.3.7.5 1.5.5 2.4 0 1-.2 1.7-.5 2.4a4 4 0 0 1-1.7 1.7c-.7.4-1.7.6-2.8.6h-3v5.1h-2V40.3Zm-2.6 0h-9v14.5h9v-1.9H120v-4.4h6.3v-1.9H120v-4.4h6.8v-1.9Zm-12 14.5h-2.2V42.2h-6.7v12.6h-2.2V40.3h11v14.5Zm49.2-7.2a7 7 0 0 0-.5-3c-.4-.8-1-1.4-1.6-1.8a4 4 0 0 0-2.2-.7 4 4 0 0 0-3.7 2.5 7 7 0 0 0-.6 3 7 7 0 0 0 .6 3c.3.8.9 1.4 1.5 1.8a4 4 0 0 0 2.2.6 4 4 0 0 0 2.2-.6c.7-.4 1.2-1 1.6-1.8a7 7 0 0 0 .5-3Zm9.9 5.3h-3.1v-4.6h3.2c.6 0 1 .1 1.5.3l1 1c.2.3.3.8.3 1.2a2 2 0 0 1-.7 1.5c-.4.4-1.2.6-2.2.6Zm-39.6-5h-2.7v-5.7h2.7c.7 0 1.3.1 1.7.4.5.2.8.6 1 1 .2.4.3.9.3 1.4 0 .6 0 1-.3 1.5-.2.4-.5.8-1 1-.4.2-1 .4-1.7.4Zm39.4-1.3h-3v-4.4h3c.9 0 1.5.2 2 .6.4.4.6 1 .6 1.5s-.1.9-.4 1.2c-.2.4-.5.6-1 .8a3 3 0 0 1-1.2.3Zm-66.7-19c.5-1.2.8-2.5.8-4 0-1.6-.3-3-.8-4a6.1 6.1 0 0 0-5.7-3.5c-1.2 0-2.3.3-3.3 1-1 .5-1.7 1.4-2.3 2.5a8.7 8.7 0 0 0-.9 4c0 1.5.3 2.8.9 4 .6 1 1.3 1.9 2.3 2.5 1 .6 2 .9 3.3.9 1.3 0 2.4-.3 3.3-1 1-.5 1.8-1.4 2.4-2.5Zm16 3.2h2.3l1.3-3.8h5.7l1.3 3.8h2.3l-5.2-14.5h-2.5l-5.2 14.5Zm-13.9 0v-1.9h.4c.6 0 1-.2 1.4-.6.3-.4.6-1 .7-1.8.2-.9.3-2 .3-3.4l.3-6.8h9v14.5h-2V18.2h-5l-.2 5.5a21 21 0 0 1-.5 3.9c-.2 1-.7 1.8-1.2 2.4-.6.5-1.5.8-2.6.8h-.6Zm-17.4 0-4.9-6.5h-1.5v6.5H83V16.3h2.2v6.1h.7l5.5-6H94l-5.7 6.4 6 8h-2.7ZM64 16.3h2.1V29H71V16.3H73V29h4.7V16.3H80v14.5H64V16.3Zm40.9 4.3c.4.8.5 1.8.5 3a7 7 0 0 1-.5 3c-.4.7-1 1.4-1.6 1.8a4 4 0 0 1-2.2.6 4 4 0 0 1-2.2-.6c-.6-.4-1.2-1-1.5-1.9a7 7 0 0 1-.6-3 7 7 0 0 1 .6-3 4 4 0 0 1 3.8-2.5 4 4 0 0 1 3.7 2.6Zm26.5 4.5-2-6.1h-.2l-2.1 6.1h4.3Z"/></svg>