<svg width="123" height="123" viewBox="20 30 90 70" fill="none" xmlns="http://www.w3.org/2000/svg">
<path fill-rule="evenodd" clip-rule="evenodd" d="M93.5286 25.1809C93.5286 25.1809 98.1949 29.1059 99.3951 31.8353C101.129 35.7796 97.2769 42.6634 97.2769 42.6634L87.7161 52.9161L52.7713 90.1629C52.1675 90.7842 51.3765 91.204 50.5111 91.3625L33.2519 94.2786C30.9836 94.2508 29.1164 92.5278 28.9724 90.3292L30.6267 74.032C30.7296 73.2009 31.1113 72.4266 31.713 71.8285L65.1478 36.2346L76.9234 23.6835C76.9234 23.6835 83.5239 19.5014 87.6273 20.8617C90.7617 21.9007 93.5286 25.1809 93.5286 25.1809Z" stroke="black" stroke-width="2" stroke-linecap="round" stroke-linejoin="round"/>
<path d="M70.2109 30.9094C70.2109 30.9094 70.4525 34.1777 71.4383 37.7715C72.209 40.5809 73.1903 42.7466 75.5436 44.9661C77.7747 47.0703 79.8311 48.011 82.5243 48.5634C87.0196 49.4853 91.4775 49.2698 91.4775 49.2698" stroke="black" stroke-width="2"/>
<path d="M14.3887 107.919H100.34" stroke="black" stroke-width="2"/>
</svg>
