<svg width="103" height="109" viewBox="0 0 103 109" fill="none" xmlns="http://www.w3.org/2000/svg">
<path d="M31.8485 36.3874C28.5246 33.0636 24.0164 31.1962 19.3157 31.1962C14.6151 31.1962 10.1069 33.0636 6.78302 36.3874C3.45914 39.7113 1.5918 44.2195 1.5918 48.9202V90.2761C1.5918 94.9767 3.45914 99.4849 6.78302 102.809C10.1069 106.133 14.6151 108 19.3157 108C24.0164 108 28.5246 106.133 31.8485 102.809C32.5468 102.11 33.1809 101.36 33.7468 100.566" stroke="black" stroke-width="2"/>
<path d="M32.0593 33.9303L32.0723 34.0101V34.091V93.5844C32.0723 97.1424 33.4857 100.555 36.0016 103.071C38.5175 105.586 41.9298 107 45.4878 107L87.5526 107L87.5567 107C89.3231 107.007 91.0735 106.665 92.7075 105.995C94.3415 105.324 95.8269 104.337 97.0784 103.09C98.33 101.844 99.3231 100.362 100.001 98.731L100.924 99.1146L100.001 98.731C100.678 97.0998 101.027 95.3508 101.027 93.5844V45.5525C101.027 43.7939 100.68 42.0526 100.005 40.4285C99.3306 38.8044 98.3418 37.3296 97.0957 36.0886C95.8497 34.8476 94.3708 33.865 92.7439 33.197C91.1171 32.529 89.3744 32.1889 87.6158 32.1961H87.6117H60.6713H59.6713V31.1961V10.3454C59.654 8.47042 59.0505 6.64776 57.9453 5.13289C56.8393 3.61689 55.2864 2.48525 53.5044 1.8968L53.4668 1.88438L53.4303 1.86903C52.5009 1.47814 51.5068 1.26426 50.4989 1.23833C49.1817 1.24439 47.8832 1.55191 46.7031 2.13739C45.528 2.7204 44.5014 3.56354 43.7012 4.60263C37.8204 13.3852 33.8536 23.3072 32.0587 33.7236C32.0479 33.7921 32.0481 33.8619 32.0593 33.9303Z" fill="#ED7A33" stroke="black" stroke-width="2"/>
</svg>
